{"glyphs":{"0":{"ha":1010,"x_min":231,"x_max":781,"o":"m 231 704 q 253 802 231 760 q 336 868 276 844 q 504 892 396 892 q 673 867 613 892 q 757 801 733 843 q 781 704 781 760 l 781 294 q 757 197 781 239 q 673 131 733 154 q 504 107 613 107 q 336 131 396 107 q 253 197 276 154 q 231 294 231 239 l 231 704 m 244 704 l 244 294 q 268 203 244 242 q 348 142 292 164 q 504 121 404 121 q 662 142 604 121 q 743 203 719 164 q 767 294 767 242 l 767 704 q 743 796 767 757 q 662 856 719 835 q 504 878 604 878 q 348 856 404 878 q 268 796 292 835 q 244 704 244 757 z "},"1":{"ha":835,"x_min":192,"x_max":656,"o":"m 192 118 l 192 132 l 428 132 l 428 861 l 219 861 l 219 875 l 442 875 l 442 132 l 656 132 l 656 118 l 192 118 z "},"2":{"ha":888,"x_min":207,"x_max":692,"o":"m 283 456 l 607 563 q 636 585 625 569 q 647 628 647 601 l 647 754 q 611 840 647 818 q 513 861 575 861 l 233 861 l 233 875 l 513 875 q 622 849 583 875 q 661 754 661 824 l 661 628 q 648 578 661 596 q 613 550 635 560 l 289 443 q 235 409 250 429 q 219 342 219 389 l 219 139 l 692 139 l 692 125 l 207 125 l 207 342 q 224 417 207 393 q 283 456 240 442 z "},"3":{"ha":885,"x_min":193,"x_max":681,"o":"m 306 499 l 306 513 l 421 513 q 524 531 492 513 q 566 577 557 549 q 575 639 575 606 l 575 733 q 561 799 575 769 q 511 844 547 828 q 407 861 475 861 l 193 861 l 193 875 l 407 875 q 524 855 485 875 q 576 801 563 835 q 589 728 589 768 l 589 639 q 583 586 589 613 q 558 540 578 560 q 497 510 539 519 l 519 510 q 643 472 606 510 q 681 360 681 433 l 681 264 q 667 192 681 224 q 615 142 654 160 q 499 125 576 125 l 193 125 l 193 139 l 499 139 q 604 154 568 139 q 653 198 640 169 q 667 264 667 226 l 667 360 q 632 464 667 429 q 517 499 597 499 l 306 499 z "},"4":{"ha":985,"x_min":239,"x_max":739,"o":"m 739 875 l 739 125 l 725 125 l 725 371 l 393 371 q 276 408 313 371 q 239 517 239 444 l 239 875 l 253 875 l 253 517 q 393 385 253 385 l 725 385 l 725 875 l 739 875 z "},"5":{"ha":899,"x_min":201,"x_max":688,"o":"m 201 139 l 529 139 q 640 168 607 139 q 674 261 674 197 l 674 383 q 640 477 674 449 q 542 506 607 506 l 242 506 l 242 875 l 664 875 l 664 861 l 256 861 l 256 519 l 542 519 q 651 488 615 519 q 688 383 688 456 l 688 261 q 651 158 688 190 q 529 125 615 125 l 201 125 l 201 139 z "},"6":{"ha":963,"x_min":236,"x_max":747,"o":"m 250 454 q 303 508 267 492 q 392 528 340 524 q 506 532 443 532 q 628 524 574 532 q 715 485 683 517 q 747 382 747 454 l 747 260 q 715 156 747 190 q 626 110 682 121 q 501 99 571 99 q 367 109 426 99 q 272 154 307 119 q 236 260 236 189 l 236 715 q 285 842 236 808 q 422 875 333 875 l 667 875 l 667 861 l 422 861 q 296 831 342 861 q 250 715 250 801 l 250 454 m 250 386 l 250 260 q 285 162 250 193 q 376 122 319 131 q 501 113 433 113 q 618 122 565 113 q 702 163 671 131 q 733 260 733 194 l 733 382 q 702 478 733 450 q 619 512 671 506 q 506 518 567 518 q 499 518 503 518 q 408 516 453 518 q 328 502 364 514 q 272 463 293 490 q 250 386 250 436 z "},"7":{"ha":871,"x_min":178,"x_max":649,"o":"m 310 125 l 310 333 q 323 383 310 365 q 358 411 336 401 l 594 506 q 635 569 635 522 l 635 861 l 178 861 l 178 875 l 649 875 l 649 569 q 637 520 649 538 q 600 492 625 503 l 364 397 q 335 375 346 390 q 324 333 324 360 l 324 125 l 310 125 z "},"8":{"ha":988,"x_min":213,"x_max":775,"o":"m 213 240 l 213 368 q 250 460 213 421 q 389 513 288 499 q 292 554 322 525 q 263 632 263 583 l 263 775 q 317 873 263 840 q 494 906 372 906 q 671 872 617 906 q 725 764 725 838 l 725 632 q 696 554 725 583 q 600 513 667 525 q 738 461 701 500 q 775 369 775 422 l 775 240 q 751 164 775 197 q 667 112 728 131 q 494 93 607 93 q 322 112 383 93 q 236 164 260 131 q 213 240 213 197 m 226 240 q 285 144 226 181 q 494 107 343 107 q 653 124 596 107 q 736 170 711 140 q 761 240 761 200 l 761 369 q 703 468 761 431 q 494 506 644 506 q 285 467 344 506 q 226 368 226 429 l 226 240 m 276 632 q 331 546 276 572 q 494 519 385 519 q 658 546 606 519 q 711 632 711 572 l 711 764 q 658 863 711 833 q 494 892 604 892 q 276 775 276 892 l 276 632 z "},"9":{"ha":963,"x_min":215,"x_max":726,"o":"m 457 468 q 334 476 389 468 q 247 515 279 483 q 215 618 215 547 l 215 740 q 248 845 215 811 q 336 890 281 879 q 461 901 392 901 q 597 891 536 901 q 692 847 657 881 q 726 740 726 813 l 726 285 q 678 158 726 192 q 540 125 629 125 l 296 125 l 296 139 l 540 139 q 667 169 621 139 q 713 285 713 199 l 713 546 q 659 492 696 508 q 571 472 622 476 q 457 468 519 468 m 713 614 l 713 740 q 678 839 713 808 q 586 878 643 869 q 461 888 529 888 q 344 878 397 888 q 260 838 292 869 q 229 740 229 807 l 229 618 q 260 523 229 551 q 344 488 292 494 q 457 482 396 482 q 464 482 460 482 q 554 484 510 482 q 634 498 599 486 q 691 537 669 510 q 713 614 713 564 z "}," ":{"ha":313,"x_min":0,"x_max":0,"o":""}," ":{"ha":313,"x_min":0,"x_max":0,"o":""},"A":{"ha":1014,"x_min":222,"x_max":792,"o":"m 792 125 l 778 125 l 778 364 l 236 364 l 236 125 l 222 125 l 222 421 q 228 492 222 460 q 246 556 235 525 l 335 783 q 369 849 350 822 q 436 875 389 875 l 572 875 q 637 849 618 875 q 672 782 656 822 l 768 556 q 785 492 779 525 q 792 421 792 460 l 792 125 m 236 378 l 778 378 l 778 421 q 772 490 778 458 q 756 550 767 522 l 660 776 q 628 837 644 813 q 572 861 611 861 l 436 861 q 378 838 394 861 q 347 778 361 814 l 258 550 q 242 490 249 522 q 236 421 236 458 l 236 378 z "},"À":{"ha":1014,"x_min":222,"x_max":792,"o":"m 792 125 l 778 125 l 778 364 l 236 364 l 236 125 l 222 125 l 222 421 q 228 492 222 460 q 246 556 235 525 l 335 783 q 369 849 350 822 q 436 875 389 875 l 572 875 q 637 849 618 875 q 672 782 656 822 l 768 556 q 785 492 779 525 q 792 421 792 460 l 792 125 m 236 378 l 778 378 l 778 421 q 772 490 778 458 q 756 550 767 522 l 660 776 q 628 837 644 813 q 572 861 611 861 l 436 861 q 378 838 394 861 q 347 778 361 814 l 258 550 q 242 490 249 522 q 236 421 236 458 l 236 378 m 340 1218 l 672 1176 l 672 1163 l 340 1204 l 340 1218 z "},"Á":{"ha":1014,"x_min":222,"x_max":792,"o":"m 792 125 l 778 125 l 778 364 l 236 364 l 236 125 l 222 125 l 222 421 q 228 492 222 460 q 246 556 235 525 l 335 783 q 369 849 350 822 q 436 875 389 875 l 572 875 q 637 849 618 875 q 672 782 656 822 l 768 556 q 785 492 779 525 q 792 421 792 460 l 792 125 m 236 378 l 778 378 l 778 421 q 772 490 778 458 q 756 550 767 522 l 660 776 q 628 837 644 813 q 572 861 611 861 l 436 861 q 378 838 394 861 q 347 778 361 814 l 258 550 q 242 490 249 522 q 236 421 236 458 l 236 378 m 672 1218 l 672 1204 l 340 1163 l 340 1176 l 672 1218 z "},"Â":{"ha":1014,"x_min":222,"x_max":792,"o":"m 792 125 l 778 125 l 778 364 l 236 364 l 236 125 l 222 125 l 222 421 q 228 492 222 460 q 246 556 235 525 l 335 783 q 369 849 350 822 q 436 875 389 875 l 572 875 q 637 849 618 875 q 672 782 656 822 l 768 556 q 785 492 779 525 q 792 421 792 460 l 792 125 m 236 378 l 778 378 l 778 421 q 772 490 778 458 q 756 550 767 522 l 660 776 q 628 837 644 813 q 572 861 611 861 l 436 861 q 378 838 394 861 q 347 778 361 814 l 258 550 q 242 490 249 522 q 236 421 236 458 l 236 378 m 671 1181 l 550 1219 q 530 1225 540 1222 q 506 1228 519 1228 q 482 1225 492 1228 q 461 1219 472 1222 l 340 1181 l 340 1196 l 456 1233 q 479 1239 468 1236 q 506 1242 490 1242 q 532 1239 521 1242 q 556 1233 543 1236 l 671 1196 l 671 1181 z "},"Ã":{"ha":1014,"x_min":222,"x_max":792,"o":"m 792 125 l 778 125 l 778 364 l 236 364 l 236 125 l 222 125 l 222 421 q 228 492 222 460 q 246 556 235 525 l 335 783 q 369 849 350 822 q 436 875 389 875 l 572 875 q 637 849 618 875 q 672 782 656 822 l 768 556 q 785 492 779 525 q 792 421 792 460 l 792 125 m 236 378 l 778 378 l 778 421 q 772 490 778 458 q 756 550 767 522 l 660 776 q 628 837 644 813 q 572 861 611 861 l 436 861 q 378 838 394 861 q 347 778 361 814 l 258 550 q 242 490 249 522 q 236 421 236 458 l 236 378 m 669 1154 q 610 1154 642 1151 q 525 1165 578 1157 l 503 1168 l 464 1174 q 390 1182 418 1181 q 339 1179 363 1183 l 339 1194 q 391 1196 363 1197 q 467 1188 419 1194 l 506 1182 l 528 1179 q 611 1168 581 1171 q 669 1168 642 1165 l 669 1154 z "},"Ä":{"ha":1014,"x_min":222,"x_max":792,"o":"m 792 125 l 778 125 l 778 364 l 236 364 l 236 125 l 222 125 l 222 421 q 228 492 222 460 q 246 556 235 525 l 335 783 q 369 849 350 822 q 436 875 389 875 l 572 875 q 637 849 618 875 q 672 782 656 822 l 768 556 q 785 492 779 525 q 792 421 792 460 l 792 125 m 236 378 l 778 378 l 778 421 q 772 490 778 458 q 756 550 767 522 l 660 776 q 628 837 644 813 q 572 861 611 861 l 436 861 q 378 838 394 861 q 347 778 361 814 l 258 550 q 242 490 249 522 q 236 421 236 458 l 236 378 m 314 1153 l 314 1218 l 328 1218 l 328 1153 l 314 1153 m 672 1153 l 672 1218 l 686 1218 l 686 1153 l 672 1153 z "},"Å":{"ha":1014,"x_min":222,"x_max":792,"o":"m 792 125 l 778 125 l 778 364 l 236 364 l 236 125 l 222 125 l 222 421 q 228 492 222 460 q 246 556 235 525 l 335 783 q 369 849 350 822 q 436 875 389 875 l 572 875 q 637 849 618 875 q 672 782 656 822 l 768 556 q 785 492 779 525 q 792 421 792 460 l 792 125 m 236 378 l 778 378 l 778 421 q 772 490 778 458 q 756 550 767 522 l 660 776 q 628 837 644 813 q 572 861 611 861 l 436 861 q 378 838 394 861 q 347 778 361 814 l 258 550 q 242 490 249 522 q 236 421 236 458 l 236 378 m 313 1118 q 327 1192 313 1160 q 384 1241 342 1224 q 508 1258 426 1258 q 634 1240 592 1258 q 692 1191 676 1222 q 707 1118 707 1160 l 707 1056 q 692 983 707 1014 q 634 934 676 951 q 508 917 592 917 q 384 934 426 917 q 327 983 342 951 q 313 1056 313 1014 l 313 1118 m 326 1118 l 326 1056 q 341 989 326 1017 q 395 946 356 961 q 508 931 435 931 q 623 946 583 931 q 678 989 663 961 q 693 1056 693 1017 l 693 1118 q 678 1185 693 1157 q 623 1228 663 1213 q 508 1244 583 1244 q 395 1229 435 1244 q 341 1185 356 1214 q 326 1118 326 1157 z "},"Ā":{"ha":1014,"x_min":222,"x_max":792,"o":"m 792 125 l 778 125 l 778 364 l 236 364 l 236 125 l 222 125 l 222 421 q 228 492 222 460 q 246 556 235 525 l 335 783 q 369 849 350 822 q 436 875 389 875 l 572 875 q 637 849 618 875 q 672 782 656 822 l 768 556 q 785 492 779 525 q 792 421 792 460 l 792 125 m 236 378 l 778 378 l 778 421 q 772 490 778 458 q 756 550 767 522 l 660 776 q 628 837 644 813 q 572 861 611 861 l 436 861 q 378 838 394 861 q 347 778 361 814 l 258 550 q 242 490 249 522 q 236 421 236 458 l 236 378 m 672 1176 l 672 1163 l 340 1163 l 340 1176 l 672 1176 z "},"Ă":{"ha":1014,"x_min":222,"x_max":792,"o":"m 792 125 l 778 125 l 778 364 l 236 364 l 236 125 l 222 125 l 222 421 q 228 492 222 460 q 246 556 235 525 l 335 783 q 369 849 350 822 q 436 875 389 875 l 572 875 q 637 849 618 875 q 672 782 656 822 l 768 556 q 785 492 779 525 q 792 421 792 460 l 792 125 m 236 378 l 778 378 l 778 421 q 772 490 778 458 q 756 550 767 522 l 660 776 q 628 837 644 813 q 572 861 611 861 l 436 861 q 378 838 394 861 q 347 778 361 814 l 258 550 q 242 490 249 522 q 236 421 236 458 l 236 378 m 707 1260 l 707 1247 q 692 1195 707 1221 q 635 1153 678 1169 q 506 1136 592 1136 q 378 1153 419 1136 q 324 1195 336 1169 q 311 1247 311 1221 l 311 1260 l 325 1260 l 325 1247 q 339 1200 325 1222 q 392 1164 353 1178 q 506 1150 431 1150 q 622 1164 581 1150 q 678 1200 663 1178 q 693 1247 693 1222 l 693 1260 l 707 1260 z "},"Ą":{"ha":1014,"x_min":222,"x_max":814,"o":"m 792 125 l 786 125 q 752 100 760 111 q 740 58 744 89 l 724 -60 q 728 -124 718 -101 q 781 -147 738 -147 l 814 -147 l 814 -161 l 781 -161 q 715 -135 729 -161 q 710 -57 701 -108 l 726 58 q 740 106 732 92 q 778 136 749 119 l 778 364 l 236 364 l 236 125 l 222 125 l 222 421 q 228 492 222 460 q 246 556 235 525 l 335 783 q 369 849 350 822 q 436 875 389 875 l 572 875 q 637 849 618 875 q 672 782 656 822 l 768 556 q 785 492 779 525 q 792 421 792 460 l 792 125 m 236 378 l 778 378 l 778 421 q 772 490 778 458 q 756 550 767 522 l 660 776 q 628 837 644 813 q 572 861 611 861 l 436 861 q 378 838 394 861 q 347 778 361 814 l 258 550 q 242 490 249 522 q 236 421 236 458 l 236 378 z "},"B":{"ha":1007,"x_min":250,"x_max":806,"o":"m 250 875 l 532 875 q 649 855 610 875 q 701 801 688 835 q 714 728 714 768 l 714 639 q 699 563 714 597 q 625 513 685 528 q 741 492 703 513 q 792 435 779 471 q 806 353 806 399 l 806 264 q 792 192 806 224 q 740 142 779 160 q 624 125 701 125 l 250 125 l 250 875 m 264 499 l 264 139 l 624 139 q 729 154 693 139 q 778 198 765 169 q 792 264 792 226 l 792 353 q 779 427 792 394 q 731 479 767 460 q 625 499 696 499 l 264 499 m 532 513 q 644 531 608 513 q 690 577 679 549 q 700 639 700 606 l 700 728 q 688 796 700 765 q 639 844 675 826 q 532 861 603 861 l 264 861 l 264 513 l 532 513 z "},"C":{"ha":872,"x_min":231,"x_max":685,"o":"m 685 125 l 453 125 q 315 143 363 125 q 249 201 267 161 q 231 304 231 240 l 231 693 q 249 799 231 760 q 316 857 268 839 q 453 875 364 875 l 685 875 l 685 861 l 453 861 q 326 845 371 861 q 263 792 281 829 q 244 693 244 756 l 244 304 q 262 208 244 244 q 324 155 279 171 q 453 139 369 139 l 685 139 l 685 125 z "},"Ç":{"ha":872,"x_min":231,"x_max":685,"o":"m 685 125 l 563 125 l 499 -50 l 485 -50 l 547 125 l 453 125 q 315 143 363 125 q 249 201 267 161 q 231 304 231 240 l 231 693 q 249 799 231 760 q 316 857 268 839 q 453 875 364 875 l 685 875 l 685 861 l 453 861 q 326 845 371 861 q 263 792 281 829 q 244 693 244 756 l 244 304 q 262 208 244 244 q 324 155 279 171 q 453 139 369 139 l 685 139 l 685 125 z "},"Ć":{"ha":872,"x_min":231,"x_max":686,"o":"m 685 125 l 453 125 q 315 143 363 125 q 249 201 267 161 q 231 304 231 240 l 231 693 q 249 799 231 760 q 316 857 268 839 q 453 875 364 875 l 685 875 l 685 861 l 453 861 q 326 845 371 861 q 263 792 281 829 q 244 693 244 756 l 244 304 q 262 208 244 244 q 324 155 279 171 q 453 139 369 139 l 685 139 l 685 125 m 686 1218 l 686 1204 l 354 1163 l 354 1176 l 686 1218 z "},"Ĉ":{"ha":872,"x_min":231,"x_max":685,"o":"m 685 125 l 453 125 q 315 143 363 125 q 249 201 267 161 q 231 304 231 240 l 231 693 q 249 799 231 760 q 316 857 268 839 q 453 875 364 875 l 685 875 l 685 861 l 453 861 q 326 845 371 861 q 263 792 281 829 q 244 693 244 756 l 244 304 q 262 208 244 244 q 324 155 279 171 q 453 139 369 139 l 685 139 l 685 125 m 643 1181 l 522 1219 q 502 1225 513 1222 q 478 1228 492 1228 q 454 1225 464 1228 q 433 1219 444 1222 l 313 1181 l 313 1196 l 428 1233 q 451 1239 440 1236 q 478 1242 463 1242 q 504 1239 493 1242 q 528 1233 515 1236 l 643 1196 l 643 1181 z "},"Ċ":{"ha":872,"x_min":231,"x_max":685,"o":"m 685 125 l 453 125 q 315 143 363 125 q 249 201 267 161 q 231 304 231 240 l 231 693 q 249 799 231 760 q 316 857 268 839 q 453 875 364 875 l 685 875 l 685 861 l 453 861 q 326 845 371 861 q 263 792 281 829 q 244 693 244 756 l 244 304 q 262 208 244 244 q 324 155 279 171 q 453 139 369 139 l 685 139 l 685 125 m 489 1153 l 489 1235 l 503 1235 l 503 1153 l 489 1153 z "},"Č":{"ha":872,"x_min":231,"x_max":685,"o":"m 685 125 l 453 125 q 315 143 363 125 q 249 201 267 161 q 231 304 231 240 l 231 693 q 249 799 231 760 q 316 857 268 839 q 453 875 364 875 l 685 875 l 685 861 l 453 861 q 326 845 371 861 q 263 792 281 829 q 244 693 244 756 l 244 304 q 262 208 244 244 q 324 155 279 171 q 453 139 369 139 l 685 139 l 685 125 m 313 1221 l 433 1182 q 454 1176 444 1179 q 478 1174 464 1174 q 502 1176 492 1174 q 522 1182 513 1179 l 643 1221 l 643 1206 l 528 1168 q 504 1163 515 1165 q 478 1160 493 1160 q 451 1163 463 1160 q 428 1168 440 1165 l 313 1206 l 313 1221 z "},"D":{"ha":1036,"x_min":247,"x_max":806,"o":"m 247 125 l 247 875 l 583 875 q 726 849 678 875 q 790 780 774 824 q 806 682 806 736 l 806 314 q 790 218 806 261 q 727 150 775 175 q 583 125 679 125 l 247 125 m 583 861 l 261 861 l 261 139 l 583 139 q 717 162 672 139 q 776 224 761 185 q 792 314 792 264 l 792 682 q 776 774 792 733 q 716 838 761 814 q 583 861 671 861 z "},"Ď":{"ha":1036,"x_min":247,"x_max":806,"o":"m 247 125 l 247 875 l 583 875 q 726 849 678 875 q 790 780 774 824 q 806 682 806 736 l 806 314 q 790 218 806 261 q 727 150 775 175 q 583 125 679 125 l 247 125 m 583 861 l 261 861 l 261 139 l 583 139 q 717 162 672 139 q 776 224 761 185 q 792 314 792 264 l 792 682 q 776 774 792 733 q 716 838 761 814 q 583 861 671 861 m 351 1221 l 472 1182 q 493 1176 483 1179 q 517 1174 503 1174 q 541 1176 531 1174 q 561 1182 551 1179 l 682 1221 l 682 1206 l 567 1168 q 543 1163 554 1165 q 517 1160 532 1160 q 490 1163 501 1160 q 467 1168 479 1165 l 351 1206 l 351 1221 z "},"E":{"ha":908,"x_min":247,"x_max":715,"o":"m 715 139 l 715 125 l 247 125 l 247 875 l 715 875 l 715 861 l 261 861 l 261 513 l 603 513 l 603 499 l 261 499 l 261 139 l 715 139 z "},"È":{"ha":908,"x_min":247,"x_max":715,"o":"m 715 139 l 715 125 l 247 125 l 247 875 l 715 875 l 715 861 l 261 861 l 261 513 l 603 513 l 603 499 l 261 499 l 261 139 l 715 139 m 288 1218 l 619 1176 l 619 1163 l 288 1204 l 288 1218 z "},"É":{"ha":908,"x_min":247,"x_max":715,"o":"m 715 139 l 715 125 l 247 125 l 247 875 l 715 875 l 715 861 l 261 861 l 261 513 l 603 513 l 603 499 l 261 499 l 261 139 l 715 139 m 661 1218 l 661 1204 l 329 1163 l 329 1176 l 661 1218 z "},"Ê":{"ha":908,"x_min":247,"x_max":715,"o":"m 715 139 l 715 125 l 247 125 l 247 875 l 715 875 l 715 861 l 261 861 l 261 513 l 603 513 l 603 499 l 261 499 l 261 139 l 715 139 m 632 1181 l 511 1219 q 491 1225 501 1222 q 467 1228 481 1228 q 443 1225 453 1228 q 422 1219 433 1222 l 301 1181 l 301 1196 l 417 1233 q 440 1239 429 1236 q 467 1242 451 1242 q 493 1239 482 1242 q 517 1233 504 1236 l 632 1196 l 632 1181 z "},"Ë":{"ha":908,"x_min":247,"x_max":715,"o":"m 715 139 l 715 125 l 247 125 l 247 875 l 715 875 l 715 861 l 261 861 l 261 513 l 603 513 l 603 499 l 261 499 l 261 139 l 715 139 m 289 1153 l 289 1218 l 303 1218 l 303 1153 l 289 1153 m 647 1153 l 647 1218 l 661 1218 l 661 1153 l 647 1153 z "},"Ē":{"ha":908,"x_min":247,"x_max":715,"o":"m 715 139 l 715 125 l 247 125 l 247 875 l 715 875 l 715 861 l 261 861 l 261 513 l 603 513 l 603 499 l 261 499 l 261 139 l 715 139 m 633 1176 l 633 1163 l 301 1163 l 301 1176 l 633 1176 z "},"Ĕ":{"ha":908,"x_min":247,"x_max":715,"o":"m 715 139 l 715 125 l 247 125 l 247 875 l 715 875 l 715 861 l 261 861 l 261 513 l 603 513 l 603 499 l 261 499 l 261 139 l 715 139 m 682 1260 l 682 1247 q 667 1195 682 1221 q 610 1153 653 1169 q 481 1136 567 1136 q 353 1153 394 1136 q 299 1195 311 1169 q 286 1247 286 1221 l 286 1260 l 300 1260 l 300 1247 q 314 1200 300 1222 q 367 1164 328 1178 q 481 1150 406 1150 q 597 1164 556 1150 q 653 1200 638 1178 q 668 1247 668 1222 l 668 1260 l 682 1260 z "},"Ė":{"ha":908,"x_min":247,"x_max":715,"o":"m 715 139 l 715 125 l 247 125 l 247 875 l 715 875 l 715 861 l 261 861 l 261 513 l 603 513 l 603 499 l 261 499 l 261 139 l 715 139 m 447 1153 l 447 1235 l 461 1235 l 461 1153 l 447 1153 z "},"Ę":{"ha":908,"x_min":247,"x_max":715,"o":"m 715 139 l 715 125 l 688 125 q 653 100 661 111 q 642 58 646 89 l 625 -60 q 629 -124 619 -101 q 682 -147 639 -147 l 715 -147 l 715 -161 l 682 -161 q 617 -135 631 -161 q 611 -57 603 -108 l 628 58 q 638 99 632 86 q 661 125 644 113 l 247 125 l 247 875 l 715 875 l 715 861 l 261 861 l 261 513 l 603 513 l 603 499 l 261 499 l 261 139 l 715 139 z "},"Ě":{"ha":908,"x_min":247,"x_max":715,"o":"m 715 139 l 715 125 l 247 125 l 247 875 l 715 875 l 715 861 l 261 861 l 261 513 l 603 513 l 603 499 l 261 499 l 261 139 l 715 139 m 311 1221 l 432 1182 q 453 1176 443 1179 q 476 1174 463 1174 q 501 1176 490 1174 q 521 1182 511 1179 l 642 1221 l 642 1206 l 526 1168 q 503 1163 514 1165 q 476 1160 492 1160 q 450 1163 461 1160 q 426 1168 439 1165 l 311 1206 l 311 1221 z "},"F":{"ha":858,"x_min":247,"x_max":690,"o":"m 247 125 l 247 875 l 690 875 l 690 861 l 261 861 l 261 464 l 578 464 l 578 450 l 261 450 l 261 125 l 247 125 z "},"G":{"ha":983,"x_min":232,"x_max":758,"o":"m 758 404 l 758 125 l 482 125 q 326 143 381 125 q 252 201 272 161 q 232 304 232 240 l 232 693 q 251 799 232 760 q 317 857 269 839 q 454 875 365 875 l 694 875 l 694 861 l 454 861 q 327 845 372 861 q 264 792 282 829 q 246 693 246 756 l 246 304 q 266 208 246 244 q 338 155 286 171 q 482 139 389 139 l 744 139 l 744 404 l 758 404 z "},"Ĝ":{"ha":983,"x_min":232,"x_max":758,"o":"m 758 404 l 758 125 l 482 125 q 326 143 381 125 q 252 201 272 161 q 232 304 232 240 l 232 693 q 251 799 232 760 q 317 857 269 839 q 454 875 365 875 l 694 875 l 694 861 l 454 861 q 327 845 372 861 q 264 792 282 829 q 246 693 246 756 l 246 304 q 266 208 246 244 q 338 155 286 171 q 482 139 389 139 l 744 139 l 744 404 l 758 404 m 693 1181 l 572 1219 q 552 1225 563 1222 q 528 1228 542 1228 q 504 1225 514 1228 q 483 1219 494 1222 l 363 1181 l 363 1196 l 478 1233 q 501 1239 490 1236 q 528 1242 513 1242 q 554 1239 543 1242 q 578 1233 565 1236 l 693 1196 l 693 1181 z "},"Ğ":{"ha":983,"x_min":232,"x_max":758,"o":"m 758 404 l 758 125 l 482 125 q 326 143 381 125 q 252 201 272 161 q 232 304 232 240 l 232 693 q 251 799 232 760 q 317 857 269 839 q 454 875 365 875 l 694 875 l 694 861 l 454 861 q 327 845 372 861 q 264 792 282 829 q 246 693 246 756 l 246 304 q 266 208 246 244 q 338 155 286 171 q 482 139 389 139 l 744 139 l 744 404 l 758 404 m 719 1260 l 719 1247 q 705 1195 719 1221 q 647 1153 690 1169 q 518 1136 604 1136 q 390 1153 432 1136 q 336 1195 349 1169 q 324 1247 324 1221 l 324 1260 l 338 1260 l 338 1247 q 351 1200 338 1222 q 404 1164 365 1178 q 518 1150 443 1150 q 634 1164 593 1150 q 690 1200 675 1178 q 706 1247 706 1222 l 706 1260 l 719 1260 z "},"Ġ":{"ha":983,"x_min":232,"x_max":758,"o":"m 758 404 l 758 125 l 482 125 q 326 143 381 125 q 252 201 272 161 q 232 304 232 240 l 232 693 q 251 799 232 760 q 317 857 269 839 q 454 875 365 875 l 694 875 l 694 861 l 454 861 q 327 845 372 861 q 264 792 282 829 q 246 693 246 756 l 246 304 q 266 208 246 244 q 338 155 286 171 q 482 139 389 139 l 744 139 l 744 404 l 758 404 m 515 1153 l 515 1235 l 529 1235 l 529 1153 l 515 1153 z "},"Ģ":{"ha":983,"x_min":232,"x_max":758,"o":"m 758 404 l 758 125 l 482 125 q 326 143 381 125 q 252 201 272 161 q 232 304 232 240 l 232 693 q 251 799 232 760 q 317 857 269 839 q 454 875 365 875 l 694 875 l 694 861 l 454 861 q 327 845 372 861 q 264 792 282 829 q 246 693 246 756 l 246 304 q 266 208 246 244 q 338 155 286 171 q 482 139 389 139 l 744 139 l 744 404 l 758 404 m 601 -183 l 601 -318 q 572 -410 601 -382 q 486 -437 543 -437 l 438 -437 l 438 -424 l 486 -424 q 562 -399 536 -424 q 588 -318 588 -374 l 588 -197 l 438 -197 l 438 -183 l 601 -183 z "},"H":{"ha":1054,"x_min":246,"x_max":807,"o":"m 807 875 l 807 125 l 793 125 l 793 493 l 260 493 l 260 125 l 246 125 l 246 875 l 260 875 l 260 507 l 793 507 l 793 875 l 807 875 z "},"Ĥ":{"ha":1054,"x_min":246,"x_max":807,"o":"m 807 875 l 807 125 l 793 125 l 793 493 l 260 493 l 260 125 l 246 125 l 246 875 l 260 875 l 260 507 l 793 507 l 793 875 l 807 875 m 690 1181 l 569 1219 q 549 1225 560 1222 q 525 1228 539 1228 q 501 1225 511 1228 q 481 1219 492 1222 l 360 1181 l 360 1196 l 475 1233 q 499 1239 488 1236 q 525 1242 510 1242 q 551 1239 540 1242 q 575 1233 563 1236 l 690 1196 l 690 1181 z "},"I":{"ha":840,"x_min":199,"x_max":640,"o":"m 199 875 l 640 875 l 640 861 l 428 861 l 428 139 l 640 139 l 640 125 l 199 125 l 199 139 l 414 139 l 414 861 l 199 861 l 199 875 z "},"Ì":{"ha":840,"x_min":199,"x_max":640,"o":"m 199 875 l 640 875 l 640 861 l 428 861 l 428 139 l 640 139 l 640 125 l 199 125 l 199 139 l 414 139 l 414 861 l 199 861 l 199 875 m 253 1218 l 585 1176 l 585 1163 l 253 1204 l 253 1218 z "},"Í":{"ha":840,"x_min":199,"x_max":640,"o":"m 199 875 l 640 875 l 640 861 l 428 861 l 428 139 l 640 139 l 640 125 l 199 125 l 199 139 l 414 139 l 414 861 l 199 861 l 199 875 m 585 1218 l 585 1204 l 253 1163 l 253 1176 l 585 1218 z "},"Î":{"ha":840,"x_min":199,"x_max":640,"o":"m 199 875 l 640 875 l 640 861 l 428 861 l 428 139 l 640 139 l 640 125 l 199 125 l 199 139 l 414 139 l 414 861 l 199 861 l 199 875 m 583 1181 l 463 1219 q 442 1225 453 1222 q 418 1228 432 1228 q 394 1225 404 1228 q 374 1219 385 1222 l 253 1181 l 253 1196 l 368 1233 q 392 1239 381 1236 q 418 1242 403 1242 q 444 1239 433 1242 q 468 1233 456 1236 l 583 1196 l 583 1181 z "},"Ï":{"ha":840,"x_min":199,"x_max":640,"o":"m 199 875 l 640 875 l 640 861 l 428 861 l 428 139 l 640 139 l 640 125 l 199 125 l 199 139 l 414 139 l 414 861 l 199 861 l 199 875 m 226 1153 l 226 1218 l 240 1218 l 240 1153 l 226 1153 m 585 1153 l 585 1218 l 599 1218 l 599 1153 l 585 1153 z "},"Ĩ":{"ha":840,"x_min":199,"x_max":640,"o":"m 199 875 l 640 875 l 640 861 l 428 861 l 428 139 l 640 139 l 640 125 l 199 125 l 199 139 l 414 139 l 414 861 l 199 861 l 199 875 m 582 1154 q 522 1154 554 1151 q 438 1165 490 1157 l 415 1168 l 376 1174 q 303 1182 331 1181 q 251 1179 275 1183 l 251 1194 q 303 1196 275 1197 q 379 1188 332 1194 l 418 1182 l 440 1179 q 524 1168 493 1171 q 582 1168 554 1165 l 582 1154 z "},"Ī":{"ha":840,"x_min":199,"x_max":640,"o":"m 199 875 l 640 875 l 640 861 l 428 861 l 428 139 l 640 139 l 640 125 l 199 125 l 199 139 l 414 139 l 414 861 l 199 861 l 199 875 m 585 1176 l 585 1163 l 253 1163 l 253 1176 l 585 1176 z "},"Ĭ":{"ha":840,"x_min":199,"x_max":640,"o":"m 199 875 l 640 875 l 640 861 l 428 861 l 428 139 l 640 139 l 640 125 l 199 125 l 199 139 l 414 139 l 414 861 l 199 861 l 199 875 m 619 1260 l 619 1247 q 605 1195 619 1221 q 547 1153 590 1169 q 418 1136 504 1136 q 290 1153 332 1136 q 236 1195 249 1169 q 224 1247 224 1221 l 224 1260 l 238 1260 l 238 1247 q 251 1200 238 1222 q 304 1164 265 1178 q 418 1150 343 1150 q 534 1164 493 1150 q 590 1200 575 1178 q 606 1247 606 1222 l 606 1260 l 619 1260 z "},"Į":{"ha":840,"x_min":199,"x_max":640,"o":"m 199 875 l 640 875 l 640 861 l 428 861 l 428 139 l 640 139 l 640 125 l 613 125 q 578 100 586 111 q 567 58 571 89 l 550 -60 q 554 -124 544 -101 q 607 -147 564 -147 l 640 -147 l 640 -161 l 607 -161 q 542 -135 556 -161 q 536 -57 528 -108 l 553 58 q 563 99 557 86 q 586 125 569 113 l 199 125 l 199 139 l 414 139 l 414 861 l 199 861 l 199 875 z "},"İ":{"ha":840,"x_min":199,"x_max":640,"o":"m 199 875 l 640 875 l 640 861 l 428 861 l 428 139 l 640 139 l 640 125 l 199 125 l 199 139 l 414 139 l 414 861 l 199 861 l 199 875 m 415 1153 l 415 1235 l 429 1235 l 429 1153 l 415 1153 z "},"J":{"ha":956,"x_min":201,"x_max":714,"o":"m 714 875 l 714 296 q 692 199 714 242 q 616 133 671 157 q 463 108 561 108 q 302 132 358 108 q 224 198 246 156 q 201 296 201 240 l 201 406 l 215 406 l 215 296 q 237 204 215 243 q 313 144 258 165 q 463 122 367 122 q 606 144 554 122 q 679 205 658 165 q 700 296 700 244 l 700 875 l 714 875 z "},"Ĵ":{"ha":956,"x_min":201,"x_max":861,"o":"m 714 875 l 714 296 q 692 199 714 242 q 616 133 671 157 q 463 108 561 108 q 302 132 358 108 q 224 198 246 156 q 201 296 201 240 l 201 406 l 215 406 l 215 296 q 237 204 215 243 q 313 144 258 165 q 463 122 367 122 q 606 144 554 122 q 679 205 658 165 q 700 296 700 244 l 700 875 l 714 875 m 861 1181 l 740 1219 q 720 1225 731 1222 q 696 1228 710 1228 q 672 1225 682 1228 q 651 1219 663 1222 l 531 1181 l 531 1196 l 646 1233 q 669 1239 658 1236 q 696 1242 681 1242 q 722 1239 711 1242 q 746 1233 733 1236 l 861 1196 l 861 1181 z "},"K":{"ha":1036,"x_min":247,"x_max":803,"o":"m 261 875 l 261 506 l 563 506 l 722 875 l 738 875 l 578 506 l 635 506 q 762 474 721 506 q 803 369 803 443 l 803 125 l 789 125 l 789 369 q 751 464 789 436 q 635 492 713 492 l 261 492 l 261 125 l 247 125 l 247 875 l 261 875 z "},"Ķ":{"ha":1036,"x_min":247,"x_max":803,"o":"m 261 875 l 261 506 l 563 506 l 722 875 l 738 875 l 578 506 l 635 506 q 762 474 721 506 q 803 369 803 443 l 803 125 l 789 125 l 789 369 q 751 464 789 436 q 635 492 713 492 l 261 492 l 261 125 l 247 125 l 247 875 l 261 875 m 600 -183 l 600 -318 q 571 -410 600 -382 q 485 -437 542 -437 l 436 -437 l 436 -424 l 485 -424 q 560 -399 535 -424 q 586 -318 586 -374 l 586 -197 l 436 -197 l 436 -183 l 600 -183 z "},"L":{"ha":965,"x_min":247,"x_max":758,"o":"m 758 413 l 758 125 l 247 125 l 247 875 l 261 875 l 261 139 l 744 139 l 744 413 l 758 413 z "},"Ĺ":{"ha":965,"x_min":221,"x_max":758,"o":"m 758 413 l 758 125 l 247 125 l 247 875 l 261 875 l 261 139 l 744 139 l 744 413 l 758 413 m 553 1218 l 553 1204 l 221 1163 l 221 1176 l 553 1218 z "},"Ļ":{"ha":965,"x_min":247,"x_max":758,"o":"m 758 413 l 758 125 l 247 125 l 247 875 l 261 875 l 261 139 l 744 139 l 744 413 l 758 413 m 588 -183 l 588 -318 q 558 -410 588 -382 q 472 -437 529 -437 l 424 -437 l 424 -424 l 472 -424 q 548 -399 522 -424 q 574 -318 574 -374 l 574 -197 l 424 -197 l 424 -183 l 588 -183 z "},"Ľ":{"ha":965,"x_min":247,"x_max":758,"o":"m 758 413 l 758 125 l 247 125 l 247 875 l 261 875 l 261 139 l 744 139 l 744 413 l 758 413 m 699 746 l 724 875 l 739 875 l 714 746 l 699 746 z "},"M":{"ha":1179,"x_min":243,"x_max":926,"o":"m 585 535 q 621 546 610 535 q 656 593 632 557 l 825 851 q 844 870 833 865 q 865 875 854 875 l 889 875 q 926 832 926 875 l 926 125 l 913 125 l 913 832 q 908 852 913 843 q 889 861 904 861 l 868 861 q 851 858 858 861 q 836 842 844 856 l 667 586 q 628 535 642 549 q 585 521 615 521 q 541 535 554 521 q 503 586 528 549 l 333 842 q 317 858 325 856 q 300 861 310 861 l 279 861 q 261 852 265 861 q 257 832 257 843 l 257 125 l 243 125 l 243 832 q 279 875 243 875 l 303 875 q 325 870 314 875 q 344 851 336 865 l 514 593 q 549 546 538 557 q 585 535 560 535 z "},"N":{"ha":1046,"x_min":242,"x_max":804,"o":"m 279 864 l 790 289 l 790 875 l 804 875 l 804 125 l 790 125 l 790 268 l 265 857 q 258 861 261 861 q 256 857 256 861 l 256 125 l 242 125 l 242 860 q 258 876 242 876 q 279 864 267 876 z "},"Ñ":{"ha":1046,"x_min":242,"x_max":804,"o":"m 279 864 l 790 289 l 790 875 l 804 875 l 804 125 l 790 125 l 790 268 l 265 857 q 258 861 261 861 q 256 857 256 861 l 256 125 l 242 125 l 242 860 q 258 876 242 876 q 279 864 267 876 m 685 1154 q 625 1154 657 1151 q 540 1165 593 1157 l 518 1168 l 479 1174 q 406 1182 433 1181 q 354 1179 378 1183 l 354 1194 q 406 1196 378 1197 q 482 1188 435 1194 l 521 1182 l 543 1179 q 626 1168 596 1171 q 685 1168 657 1165 l 685 1154 z "},"Ń":{"ha":1046,"x_min":242,"x_max":804,"o":"m 279 864 l 790 289 l 790 875 l 804 875 l 804 125 l 790 125 l 790 268 l 265 857 q 258 861 261 861 q 256 857 256 861 l 256 125 l 242 125 l 242 860 q 258 876 242 876 q 279 864 267 876 m 701 1218 l 701 1204 l 369 1163 l 369 1176 l 701 1218 z "},"Ņ":{"ha":1046,"x_min":242,"x_max":804,"o":"m 279 864 l 790 289 l 790 875 l 804 875 l 804 125 l 790 125 l 790 268 l 265 857 q 258 861 261 861 q 256 857 256 861 l 256 125 l 242 125 l 242 860 q 258 876 242 876 q 279 864 267 876 m 604 -183 l 604 -318 q 575 -410 604 -382 q 489 -437 546 -437 l 440 -437 l 440 -424 l 489 -424 q 565 -399 539 -424 q 590 -318 590 -374 l 590 -197 l 440 -197 l 440 -183 l 604 -183 z "},"Ň":{"ha":1046,"x_min":242,"x_max":804,"o":"m 279 864 l 790 289 l 790 875 l 804 875 l 804 125 l 790 125 l 790 268 l 265 857 q 258 861 261 861 q 256 857 256 861 l 256 125 l 242 125 l 242 860 q 258 876 242 876 q 279 864 267 876 m 342 1221 l 463 1182 q 483 1176 474 1179 q 507 1174 493 1174 q 531 1176 521 1174 q 551 1182 542 1179 l 672 1221 l 672 1206 l 557 1168 q 533 1163 544 1165 q 507 1160 522 1160 q 481 1163 492 1160 q 457 1168 469 1165 l 342 1206 l 342 1221 z "},"O":{"ha":1024,"x_min":231,"x_max":792,"o":"m 510 107 q 340 131 401 107 q 255 197 279 154 q 231 294 231 239 l 231 704 q 255 803 231 761 q 340 868 279 844 q 510 892 401 892 q 681 868 619 892 q 767 803 742 844 q 792 704 792 761 l 792 294 q 767 197 792 239 q 681 131 742 154 q 510 107 619 107 m 510 121 q 672 142 614 121 q 754 203 731 164 q 778 294 778 243 l 778 704 q 754 796 778 757 q 672 856 731 835 q 510 878 614 878 q 349 856 407 878 q 267 796 290 835 q 244 704 244 757 l 244 294 q 267 203 244 243 q 349 142 290 164 q 510 121 407 121 z "},"Ò":{"ha":1024,"x_min":231,"x_max":792,"o":"m 510 107 q 340 131 401 107 q 255 197 279 154 q 231 294 231 239 l 231 704 q 255 803 231 761 q 340 868 279 844 q 510 892 401 892 q 681 868 619 892 q 767 803 742 844 q 792 704 792 761 l 792 294 q 767 197 792 239 q 681 131 742 154 q 510 107 619 107 m 510 121 q 672 142 614 121 q 754 203 731 164 q 778 294 778 243 l 778 704 q 754 796 778 757 q 672 856 731 835 q 510 878 614 878 q 349 856 407 878 q 267 796 290 835 q 244 704 244 757 l 244 294 q 267 203 244 243 q 349 142 290 164 q 510 121 407 121 m 344 1218 l 676 1176 l 676 1163 l 344 1204 l 344 1218 z "},"Ó":{"ha":1024,"x_min":231,"x_max":792,"o":"m 510 107 q 340 131 401 107 q 255 197 279 154 q 231 294 231 239 l 231 704 q 255 803 231 761 q 340 868 279 844 q 510 892 401 892 q 681 868 619 892 q 767 803 742 844 q 792 704 792 761 l 792 294 q 767 197 792 239 q 681 131 742 154 q 510 107 619 107 m 510 121 q 672 142 614 121 q 754 203 731 164 q 778 294 778 243 l 778 704 q 754 796 778 757 q 672 856 731 835 q 510 878 614 878 q 349 856 407 878 q 267 796 290 835 q 244 704 244 757 l 244 294 q 267 203 244 243 q 349 142 290 164 q 510 121 407 121 m 676 1218 l 676 1204 l 344 1163 l 344 1176 l 676 1218 z "},"Ô":{"ha":1024,"x_min":231,"x_max":792,"o":"m 510 107 q 340 131 401 107 q 255 197 279 154 q 231 294 231 239 l 231 704 q 255 803 231 761 q 340 868 279 844 q 510 892 401 892 q 681 868 619 892 q 767 803 742 844 q 792 704 792 761 l 792 294 q 767 197 792 239 q 681 131 742 154 q 510 107 619 107 m 510 121 q 672 142 614 121 q 754 203 731 164 q 778 294 778 243 l 778 704 q 754 796 778 757 q 672 856 731 835 q 510 878 614 878 q 349 856 407 878 q 267 796 290 835 q 244 704 244 757 l 244 294 q 267 203 244 243 q 349 142 290 164 q 510 121 407 121 m 675 1181 l 554 1219 q 534 1225 544 1222 q 510 1228 524 1228 q 486 1225 496 1228 q 465 1219 476 1222 l 344 1181 l 344 1196 l 460 1233 q 483 1239 472 1236 q 510 1242 494 1242 q 536 1239 525 1242 q 560 1233 547 1236 l 675 1196 l 675 1181 z "},"Õ":{"ha":1024,"x_min":231,"x_max":792,"o":"m 510 107 q 340 131 401 107 q 255 197 279 154 q 231 294 231 239 l 231 704 q 255 803 231 761 q 340 868 279 844 q 510 892 401 892 q 681 868 619 892 q 767 803 742 844 q 792 704 792 761 l 792 294 q 767 197 792 239 q 681 131 742 154 q 510 107 619 107 m 510 121 q 672 142 614 121 q 754 203 731 164 q 778 294 778 243 l 778 704 q 754 796 778 757 q 672 856 731 835 q 510 878 614 878 q 349 856 407 878 q 267 796 290 835 q 244 704 244 757 l 244 294 q 267 203 244 243 q 349 142 290 164 q 510 121 407 121 m 674 1154 q 614 1154 646 1151 q 529 1165 582 1157 l 507 1168 l 468 1174 q 394 1182 422 1181 q 343 1179 367 1183 l 343 1194 q 395 1196 367 1197 q 471 1188 424 1194 l 510 1182 l 532 1179 q 615 1168 585 1171 q 674 1168 646 1165 l 674 1154 z "},"Ö":{"ha":1024,"x_min":231,"x_max":792,"o":"m 510 107 q 340 131 401 107 q 255 197 279 154 q 231 294 231 239 l 231 704 q 255 803 231 761 q 340 868 279 844 q 510 892 401 892 q 681 868 619 892 q 767 803 742 844 q 792 704 792 761 l 792 294 q 767 197 792 239 q 681 131 742 154 q 510 107 619 107 m 510 121 q 672 142 614 121 q 754 203 731 164 q 778 294 778 243 l 778 704 q 754 796 778 757 q 672 856 731 835 q 510 878 614 878 q 349 856 407 878 q 267 796 290 835 q 244 704 244 757 l 244 294 q 267 203 244 243 q 349 142 290 164 q 510 121 407 121 m 318 1153 l 318 1218 l 332 1218 l 332 1153 l 318 1153 m 676 1153 l 676 1218 l 690 1218 l 690 1153 l 676 1153 z "},"Ō":{"ha":1024,"x_min":231,"x_max":792,"o":"m 510 107 q 340 131 401 107 q 255 197 279 154 q 231 294 231 239 l 231 704 q 255 803 231 761 q 340 868 279 844 q 510 892 401 892 q 681 868 619 892 q 767 803 742 844 q 792 704 792 761 l 792 294 q 767 197 792 239 q 681 131 742 154 q 510 107 619 107 m 510 121 q 672 142 614 121 q 754 203 731 164 q 778 294 778 243 l 778 704 q 754 796 778 757 q 672 856 731 835 q 510 878 614 878 q 349 856 407 878 q 267 796 290 835 q 244 704 244 757 l 244 294 q 267 203 244 243 q 349 142 290 164 q 510 121 407 121 m 676 1176 l 676 1163 l 344 1163 l 344 1176 l 676 1176 z "},"Ŏ":{"ha":1024,"x_min":231,"x_max":792,"o":"m 510 107 q 340 131 401 107 q 255 197 279 154 q 231 294 231 239 l 231 704 q 255 803 231 761 q 340 868 279 844 q 510 892 401 892 q 681 868 619 892 q 767 803 742 844 q 792 704 792 761 l 792 294 q 767 197 792 239 q 681 131 742 154 q 510 107 619 107 m 510 121 q 672 142 614 121 q 754 203 731 164 q 778 294 778 243 l 778 704 q 754 796 778 757 q 672 856 731 835 q 510 878 614 878 q 349 856 407 878 q 267 796 290 835 q 244 704 244 757 l 244 294 q 267 203 244 243 q 349 142 290 164 q 510 121 407 121 m 711 1260 l 711 1247 q 697 1195 711 1221 q 639 1153 682 1169 q 510 1136 596 1136 q 382 1153 424 1136 q 328 1195 340 1169 q 315 1247 315 1221 l 315 1260 l 329 1260 l 329 1247 q 343 1200 329 1222 q 396 1164 357 1178 q 510 1150 435 1150 q 626 1164 585 1150 q 682 1200 667 1178 q 697 1247 697 1222 l 697 1260 l 711 1260 z "},"Ő":{"ha":1024,"x_min":231,"x_max":792,"o":"m 510 107 q 340 131 401 107 q 255 197 279 154 q 231 294 231 239 l 231 704 q 255 803 231 761 q 340 868 279 844 q 510 892 401 892 q 681 868 619 892 q 767 803 742 844 q 792 704 792 761 l 792 294 q 767 197 792 239 q 681 131 742 154 q 510 107 619 107 m 510 121 q 672 142 614 121 q 754 203 731 164 q 778 294 778 243 l 778 704 q 754 796 778 757 q 672 856 731 835 q 510 878 614 878 q 349 856 407 878 q 267 796 290 835 q 244 704 244 757 l 244 294 q 267 203 244 243 q 349 142 290 164 q 510 121 407 121 m 339 1181 l 374 1315 l 389 1315 l 354 1181 l 339 1181 m 700 1181 l 735 1315 l 750 1315 l 715 1181 l 700 1181 z "},"P":{"ha":947,"x_min":251,"x_max":760,"o":"m 265 399 l 265 125 l 251 125 l 251 875 l 551 875 q 684 850 639 875 q 744 783 729 825 q 760 686 760 740 l 760 583 q 744 488 760 529 q 684 422 729 446 q 551 399 639 399 l 265 399 m 551 413 q 675 434 633 413 q 731 494 717 456 q 746 583 746 533 l 746 686 q 731 776 746 736 q 675 838 717 815 q 551 861 633 861 l 265 861 l 265 413 l 551 413 z "},"Q":{"ha":1024,"x_min":231,"x_max":792,"o":"m 503 107 q 338 132 397 108 q 254 197 278 156 q 231 294 231 239 l 231 704 q 255 803 231 761 q 340 868 279 844 q 510 892 401 892 q 681 868 619 892 q 767 803 742 844 q 792 704 792 761 l 792 294 q 767 197 792 239 q 683 132 743 156 q 517 107 622 108 l 517 0 l 503 0 l 503 107 m 510 121 q 672 142 614 121 q 754 203 731 164 q 778 294 778 243 l 778 704 q 754 796 778 757 q 672 856 731 835 q 510 878 614 878 q 349 856 407 878 q 267 796 290 835 q 244 704 244 757 l 244 294 q 267 203 244 243 q 349 142 290 164 q 510 121 407 121 z "},"R":{"ha":1032,"x_min":246,"x_max":821,"o":"m 807 125 l 807 311 q 653 447 807 447 l 260 447 l 260 125 l 246 125 l 246 875 l 563 875 q 683 831 644 875 q 721 717 721 786 l 721 621 q 704 517 721 558 q 638 460 688 475 l 653 460 q 821 311 821 460 l 821 125 l 807 125 m 260 460 l 563 460 q 678 501 649 460 q 707 619 707 543 l 707 717 q 672 822 707 782 q 563 861 636 861 l 260 861 l 260 460 z "},"Ŕ":{"ha":1032,"x_min":246,"x_max":821,"o":"m 807 125 l 807 311 q 653 447 807 447 l 260 447 l 260 125 l 246 125 l 246 875 l 563 875 q 683 831 644 875 q 721 717 721 786 l 721 621 q 704 517 721 558 q 638 460 688 475 l 653 460 q 821 311 821 460 l 821 125 l 807 125 m 260 460 l 563 460 q 678 501 649 460 q 707 619 707 543 l 707 717 q 672 822 707 782 q 563 861 636 861 l 260 861 l 260 460 m 667 1218 l 667 1204 l 335 1163 l 335 1176 l 667 1218 z "},"Ŗ":{"ha":1032,"x_min":246,"x_max":821,"o":"m 807 125 l 807 311 q 653 447 807 447 l 260 447 l 260 125 l 246 125 l 246 875 l 563 875 q 683 831 644 875 q 721 717 721 786 l 721 621 q 704 517 721 558 q 638 460 688 475 l 653 460 q 821 311 821 460 l 821 125 l 807 125 m 260 460 l 563 460 q 678 501 649 460 q 707 619 707 543 l 707 717 q 672 822 707 782 q 563 861 636 861 l 260 861 l 260 460 m 611 -183 l 611 -318 q 582 -410 611 -382 q 496 -437 553 -437 l 447 -437 l 447 -424 l 496 -424 q 572 -399 546 -424 q 597 -318 597 -374 l 597 -197 l 447 -197 l 447 -183 l 611 -183 z "},"Ř":{"ha":1032,"x_min":246,"x_max":821,"o":"m 807 125 l 807 311 q 653 447 807 447 l 260 447 l 260 125 l 246 125 l 246 875 l 563 875 q 683 831 644 875 q 721 717 721 786 l 721 621 q 704 517 721 558 q 638 460 688 475 l 653 460 q 821 311 821 460 l 821 125 l 807 125 m 260 460 l 563 460 q 678 501 649 460 q 707 619 707 543 l 707 717 q 672 822 707 782 q 563 861 636 861 l 260 861 l 260 460 m 349 1221 l 469 1182 q 490 1176 481 1179 q 514 1174 500 1174 q 538 1176 528 1174 q 558 1182 549 1179 l 679 1221 l 679 1206 l 564 1168 q 540 1163 551 1165 q 514 1160 529 1160 q 488 1163 499 1160 q 464 1168 476 1165 l 349 1206 l 349 1221 z "},"S":{"ha":903,"x_min":196,"x_max":696,"o":"m 672 861 l 364 861 q 271 829 306 861 q 236 749 236 797 l 236 635 q 256 567 236 586 q 307 542 275 549 l 600 482 q 669 447 642 474 q 696 346 696 419 l 696 265 q 654 165 696 204 q 542 125 613 125 l 196 125 l 196 139 l 542 139 q 644 174 607 139 q 682 265 682 210 l 682 346 q 659 435 682 411 q 597 468 636 460 l 304 528 q 245 556 268 535 q 222 635 222 578 l 222 749 q 261 840 222 804 q 364 875 300 875 l 672 875 l 672 861 z "},"Ś":{"ha":903,"x_min":196,"x_max":696,"o":"m 672 861 l 364 861 q 271 829 306 861 q 236 749 236 797 l 236 635 q 256 567 236 586 q 307 542 275 549 l 600 482 q 669 447 642 474 q 696 346 696 419 l 696 265 q 654 165 696 204 q 542 125 613 125 l 196 125 l 196 139 l 542 139 q 644 174 607 139 q 682 265 682 210 l 682 346 q 659 435 682 411 q 597 468 636 460 l 304 528 q 245 556 268 535 q 222 635 222 578 l 222 749 q 261 840 222 804 q 364 875 300 875 l 672 875 l 672 861 m 631 1218 l 631 1204 l 299 1163 l 299 1176 l 631 1218 z "},"Ŝ":{"ha":903,"x_min":196,"x_max":696,"o":"m 672 861 l 364 861 q 271 829 306 861 q 236 749 236 797 l 236 635 q 256 567 236 586 q 307 542 275 549 l 600 482 q 669 447 642 474 q 696 346 696 419 l 696 265 q 654 165 696 204 q 542 125 613 125 l 196 125 l 196 139 l 542 139 q 644 174 607 139 q 682 265 682 210 l 682 346 q 659 435 682 411 q 597 468 636 460 l 304 528 q 245 556 268 535 q 222 635 222 578 l 222 749 q 261 840 222 804 q 364 875 300 875 l 672 875 l 672 861 m 615 1181 l 494 1219 q 474 1225 485 1222 q 450 1228 464 1228 q 426 1225 436 1228 q 406 1219 417 1222 l 285 1181 l 285 1196 l 400 1233 q 424 1239 413 1236 q 450 1242 435 1242 q 476 1239 465 1242 q 500 1233 488 1236 l 615 1196 l 615 1181 z "},"Ş":{"ha":903,"x_min":196,"x_max":696,"o":"m 672 861 l 364 861 q 271 829 306 861 q 236 749 236 797 l 236 635 q 256 567 236 586 q 307 542 275 549 l 600 482 q 669 447 642 474 q 696 346 696 419 l 696 265 q 654 165 696 204 q 542 125 613 125 l 493 125 l 429 -50 l 415 -50 l 478 125 l 196 125 l 196 139 l 542 139 q 644 174 607 139 q 682 265 682 210 l 682 346 q 659 435 682 411 q 597 468 636 460 l 304 528 q 245 556 268 535 q 222 635 222 578 l 222 749 q 261 840 222 804 q 364 875 300 875 l 672 875 l 672 861 z "},"Š":{"ha":903,"x_min":196,"x_max":696,"o":"m 672 861 l 364 861 q 271 829 306 861 q 236 749 236 797 l 236 635 q 256 567 236 586 q 307 542 275 549 l 600 482 q 669 447 642 474 q 696 346 696 419 l 696 265 q 654 165 696 204 q 542 125 613 125 l 196 125 l 196 139 l 542 139 q 644 174 607 139 q 682 265 682 210 l 682 346 q 659 435 682 411 q 597 468 636 460 l 304 528 q 245 556 268 535 q 222 635 222 578 l 222 749 q 261 840 222 804 q 364 875 300 875 l 672 875 l 672 861 m 299 1221 l 419 1182 q 440 1176 431 1179 q 464 1174 450 1174 q 488 1176 478 1174 q 508 1182 499 1179 l 629 1221 l 629 1206 l 514 1168 q 490 1163 501 1165 q 464 1160 479 1160 q 438 1163 449 1160 q 414 1168 426 1165 l 299 1206 l 299 1221 z "},"Ș":{"ha":903,"x_min":196,"x_max":696,"o":"m 672 861 l 364 861 q 271 829 306 861 q 236 749 236 797 l 236 635 q 256 567 236 586 q 307 542 275 549 l 600 482 q 669 447 642 474 q 696 346 696 419 l 696 265 q 654 165 696 204 q 542 125 613 125 l 196 125 l 196 139 l 542 139 q 644 174 607 139 q 682 265 682 210 l 682 346 q 659 435 682 411 q 597 468 636 460 l 304 528 q 245 556 268 535 q 222 635 222 578 l 222 749 q 261 840 222 804 q 364 875 300 875 l 672 875 l 672 861 m 547 -183 l 547 -318 q 518 -410 547 -382 q 432 -437 489 -437 l 383 -437 l 383 -424 l 432 -424 q 508 -399 482 -424 q 533 -318 533 -374 l 533 -197 l 383 -197 l 383 -183 l 547 -183 z "},"T":{"ha":911,"x_min":164,"x_max":747,"o":"m 449 125 l 449 861 l 164 861 l 164 875 l 747 875 l 747 861 l 463 861 l 463 125 l 449 125 z "},"Ţ":{"ha":911,"x_min":164,"x_max":747,"o":"m 449 125 l 449 861 l 164 861 l 164 875 l 747 875 l 747 861 l 463 861 l 463 125 l 449 125 m 538 -183 l 538 -318 q 508 -410 538 -382 q 422 -437 479 -437 l 374 -437 l 374 -424 l 422 -424 q 498 -399 472 -424 q 524 -318 524 -374 l 524 -197 l 374 -197 l 374 -183 l 538 -183 z "},"Ț":{"ha":911,"x_min":164,"x_max":747,"o":"m 449 125 l 449 861 l 164 861 l 164 875 l 747 875 l 747 861 l 463 861 l 463 125 l 449 125 m 538 -183 l 538 -318 q 508 -410 538 -382 q 422 -437 479 -437 l 374 -437 l 374 -424 l 422 -424 q 498 -399 472 -424 q 524 -318 524 -374 l 524 -197 l 374 -197 l 374 -183 l 538 -183 z "},"Ť":{"ha":911,"x_min":164,"x_max":747,"o":"m 449 125 l 449 861 l 164 861 l 164 875 l 747 875 l 747 861 l 463 861 l 463 125 l 449 125 m 289 1221 l 410 1182 q 431 1176 421 1179 q 454 1174 440 1174 q 478 1176 468 1174 q 499 1182 489 1179 l 619 1221 l 619 1206 l 504 1168 q 481 1163 492 1165 q 454 1160 469 1160 q 428 1163 439 1160 q 404 1168 417 1165 l 289 1206 l 289 1221 z "},"U":{"ha":1036,"x_min":242,"x_max":799,"o":"m 242 875 l 256 875 l 256 296 q 278 205 256 244 q 359 144 301 165 q 519 122 417 122 q 681 144 624 122 q 762 205 739 165 q 785 296 785 244 l 785 875 l 799 875 l 799 296 q 774 198 799 240 q 690 132 750 156 q 519 108 629 108 q 351 132 411 108 q 266 198 290 156 q 242 296 242 240 l 242 875 z "},"Ù":{"ha":1036,"x_min":242,"x_max":799,"o":"m 242 875 l 256 875 l 256 296 q 278 205 256 244 q 359 144 301 165 q 519 122 417 122 q 681 144 624 122 q 762 205 739 165 q 785 296 785 244 l 785 875 l 799 875 l 799 296 q 774 198 799 240 q 690 132 750 156 q 519 108 629 108 q 351 132 411 108 q 266 198 290 156 q 242 296 242 240 l 242 875 m 338 1218 l 669 1176 l 669 1163 l 338 1204 l 338 1218 z "},"Ú":{"ha":1036,"x_min":242,"x_max":799,"o":"m 242 875 l 256 875 l 256 296 q 278 205 256 244 q 359 144 301 165 q 519 122 417 122 q 681 144 624 122 q 762 205 739 165 q 785 296 785 244 l 785 875 l 799 875 l 799 296 q 774 198 799 240 q 690 132 750 156 q 519 108 629 108 q 351 132 411 108 q 266 198 290 156 q 242 296 242 240 l 242 875 m 697 1218 l 697 1204 l 365 1163 l 365 1176 l 697 1218 z "},"Û":{"ha":1036,"x_min":242,"x_max":799,"o":"m 242 875 l 256 875 l 256 296 q 278 205 256 244 q 359 144 301 165 q 519 122 417 122 q 681 144 624 122 q 762 205 739 165 q 785 296 785 244 l 785 875 l 799 875 l 799 296 q 774 198 799 240 q 690 132 750 156 q 519 108 629 108 q 351 132 411 108 q 266 198 290 156 q 242 296 242 240 l 242 875 m 682 1181 l 561 1219 q 541 1225 551 1222 q 517 1228 531 1228 q 493 1225 503 1228 q 472 1219 483 1222 l 351 1181 l 351 1196 l 467 1233 q 490 1239 479 1236 q 517 1242 501 1242 q 543 1239 532 1242 q 567 1233 554 1236 l 682 1196 l 682 1181 z "},"Ü":{"ha":1036,"x_min":242,"x_max":799,"o":"m 242 875 l 256 875 l 256 296 q 278 205 256 244 q 359 144 301 165 q 519 122 417 122 q 681 144 624 122 q 762 205 739 165 q 785 296 785 244 l 785 875 l 799 875 l 799 296 q 774 198 799 240 q 690 132 750 156 q 519 108 629 108 q 351 132 411 108 q 266 198 290 156 q 242 296 242 240 l 242 875 m 325 1153 l 325 1218 l 339 1218 l 339 1153 l 325 1153 m 683 1153 l 683 1218 l 697 1218 l 697 1153 l 683 1153 z "},"Ũ":{"ha":1036,"x_min":242,"x_max":799,"o":"m 242 875 l 256 875 l 256 296 q 278 205 256 244 q 359 144 301 165 q 519 122 417 122 q 681 144 624 122 q 762 205 739 165 q 785 296 785 244 l 785 875 l 799 875 l 799 296 q 774 198 799 240 q 690 132 750 156 q 519 108 629 108 q 351 132 411 108 q 266 198 290 156 q 242 296 242 240 l 242 875 m 681 1154 q 621 1154 653 1151 q 536 1165 589 1157 l 514 1168 l 475 1174 q 401 1182 429 1181 q 350 1179 374 1183 l 350 1194 q 402 1196 374 1197 q 478 1188 431 1194 l 517 1182 l 539 1179 q 622 1168 592 1171 q 681 1168 653 1165 l 681 1154 z "},"Ū":{"ha":1036,"x_min":242,"x_max":799,"o":"m 242 875 l 256 875 l 256 296 q 278 205 256 244 q 359 144 301 165 q 519 122 417 122 q 681 144 624 122 q 762 205 739 165 q 785 296 785 244 l 785 875 l 799 875 l 799 296 q 774 198 799 240 q 690 132 750 156 q 519 108 629 108 q 351 132 411 108 q 266 198 290 156 q 242 296 242 240 l 242 875 m 683 1176 l 683 1163 l 351 1163 l 351 1176 l 683 1176 z "},"Ŭ":{"ha":1036,"x_min":242,"x_max":799,"o":"m 242 875 l 256 875 l 256 296 q 278 205 256 244 q 359 144 301 165 q 519 122 417 122 q 681 144 624 122 q 762 205 739 165 q 785 296 785 244 l 785 875 l 799 875 l 799 296 q 774 198 799 240 q 690 132 750 156 q 519 108 629 108 q 351 132 411 108 q 266 198 290 156 q 242 296 242 240 l 242 875 m 718 1260 l 718 1247 q 703 1195 718 1221 q 646 1153 689 1169 q 517 1136 603 1136 q 389 1153 431 1136 q 335 1195 347 1169 q 322 1247 322 1221 l 322 1260 l 336 1260 l 336 1247 q 350 1200 336 1222 q 403 1164 364 1178 q 517 1150 442 1150 q 633 1164 592 1150 q 689 1200 674 1178 q 704 1247 704 1222 l 704 1260 l 718 1260 z "},"Ů":{"ha":1036,"x_min":242,"x_max":799,"o":"m 242 875 l 256 875 l 256 296 q 278 205 256 244 q 359 144 301 165 q 519 122 417 122 q 681 144 624 122 q 762 205 739 165 q 785 296 785 244 l 785 875 l 799 875 l 799 296 q 774 198 799 240 q 690 132 750 156 q 519 108 629 108 q 351 132 411 108 q 266 198 290 156 q 242 296 242 240 l 242 875 m 322 1354 q 337 1428 322 1396 q 394 1477 351 1460 q 518 1494 436 1494 q 644 1476 601 1494 q 701 1427 686 1458 q 717 1354 717 1396 l 717 1278 q 701 1205 717 1236 q 644 1156 686 1174 q 518 1139 601 1139 q 394 1156 436 1139 q 337 1205 351 1174 q 322 1278 322 1236 l 322 1354 m 336 1354 l 336 1278 q 351 1211 336 1239 q 405 1168 365 1183 q 518 1153 444 1153 q 633 1168 593 1153 q 688 1211 672 1183 q 703 1278 703 1239 l 703 1354 q 688 1421 703 1393 q 633 1465 672 1449 q 518 1481 593 1481 q 405 1465 444 1481 q 351 1422 365 1450 q 336 1354 336 1393 z "},"Ű":{"ha":1036,"x_min":242,"x_max":799,"o":"m 242 875 l 256 875 l 256 296 q 278 205 256 244 q 359 144 301 165 q 519 122 417 122 q 681 144 624 122 q 762 205 739 165 q 785 296 785 244 l 785 875 l 799 875 l 799 296 q 774 198 799 240 q 690 132 750 156 q 519 108 629 108 q 351 132 411 108 q 266 198 290 156 q 242 296 242 240 l 242 875 m 351 1181 l 386 1315 l 401 1315 l 367 1181 l 351 1181 m 713 1181 l 747 1315 l 763 1315 l 728 1181 l 713 1181 z "},"Ų":{"ha":1036,"x_min":242,"x_max":799,"o":"m 242 875 l 256 875 l 256 296 q 278 205 256 244 q 359 144 301 165 q 519 122 417 122 q 681 144 624 122 q 762 205 739 165 q 785 296 785 244 l 785 875 l 799 875 l 799 296 q 778 204 799 244 q 708 140 758 164 q 568 110 657 115 q 537 85 544 96 q 525 44 529 74 l 508 -74 q 513 -138 503 -115 q 565 -161 522 -161 l 599 -161 l 599 -175 l 565 -175 q 500 -149 514 -175 q 494 -71 486 -122 l 511 44 q 521 84 515 71 q 542 108 526 97 q 519 108 531 108 q 351 132 411 108 q 266 198 290 156 q 242 296 242 240 l 242 875 z "},"V":{"ha":1014,"x_min":232,"x_max":785,"o":"m 246 875 l 246 575 q 268 446 246 500 l 360 224 q 392 163 375 188 q 447 139 408 139 l 569 139 q 626 163 610 139 q 657 224 643 188 l 749 446 q 771 575 771 500 l 771 875 l 785 875 l 785 575 q 780 503 785 536 q 763 440 775 471 l 671 218 q 634 151 654 178 q 569 125 614 125 l 447 125 q 383 151 404 125 q 346 218 363 178 l 254 440 q 237 503 242 471 q 232 575 232 536 l 232 875 l 246 875 z "},"W":{"ha":1154,"x_min":233,"x_max":924,"o":"m 610 465 l 547 465 q 519 455 531 465 q 490 407 507 444 l 376 149 q 357 130 371 135 q 331 125 343 125 l 321 125 q 275 168 285 125 l 240 325 q 234 393 235 351 q 233 465 233 435 l 233 875 l 247 875 l 247 467 q 248 394 247 436 q 254 326 249 353 l 289 168 q 301 148 292 157 q 321 139 310 139 l 328 139 q 349 142 339 139 q 365 158 360 144 l 479 414 q 511 467 497 454 q 547 479 525 479 l 610 479 q 646 467 632 479 q 678 414 660 454 l 792 158 q 809 142 799 144 q 829 139 819 139 l 836 139 q 857 148 847 139 q 868 168 867 157 l 903 326 q 909 394 908 353 q 910 467 910 436 l 910 875 l 924 875 l 924 465 q 923 393 924 435 q 917 325 922 351 l 882 168 q 836 125 872 125 l 826 125 q 801 130 814 125 q 781 149 788 135 l 667 407 q 638 455 650 444 q 610 465 626 465 z "},"Ŵ":{"ha":1154,"x_min":233,"x_max":924,"o":"m 610 465 l 547 465 q 519 455 531 465 q 490 407 507 444 l 376 149 q 357 130 371 135 q 331 125 343 125 l 321 125 q 275 168 285 125 l 240 325 q 234 393 235 351 q 233 465 233 435 l 233 875 l 247 875 l 247 467 q 248 394 247 436 q 254 326 249 353 l 289 168 q 301 148 292 157 q 321 139 310 139 l 328 139 q 349 142 339 139 q 365 158 360 144 l 479 414 q 511 467 497 454 q 547 479 525 479 l 610 479 q 646 467 632 479 q 678 414 660 454 l 792 158 q 809 142 799 144 q 829 139 819 139 l 836 139 q 857 148 847 139 q 868 168 867 157 l 903 326 q 909 394 908 353 q 910 467 910 436 l 910 875 l 924 875 l 924 465 q 923 393 924 435 q 917 325 922 351 l 882 168 q 836 125 872 125 l 826 125 q 801 130 814 125 q 781 149 788 135 l 667 407 q 638 455 650 444 q 610 465 626 465 m 740 1181 l 619 1219 q 599 1225 610 1222 q 575 1228 589 1228 q 551 1225 561 1228 q 531 1219 542 1222 l 410 1181 l 410 1196 l 525 1233 q 549 1239 538 1236 q 575 1242 560 1242 q 601 1239 590 1242 q 625 1233 613 1236 l 740 1196 l 740 1181 z "},"Ẁ":{"ha":1154,"x_min":233,"x_max":924,"o":"m 610 465 l 547 465 q 519 455 531 465 q 490 407 507 444 l 376 149 q 357 130 371 135 q 331 125 343 125 l 321 125 q 275 168 285 125 l 240 325 q 234 393 235 351 q 233 465 233 435 l 233 875 l 247 875 l 247 467 q 248 394 247 436 q 254 326 249 353 l 289 168 q 301 148 292 157 q 321 139 310 139 l 328 139 q 349 142 339 139 q 365 158 360 144 l 479 414 q 511 467 497 454 q 547 479 525 479 l 610 479 q 646 467 632 479 q 678 414 660 454 l 792 158 q 809 142 799 144 q 829 139 819 139 l 836 139 q 857 148 847 139 q 868 168 867 157 l 903 326 q 909 394 908 353 q 910 467 910 436 l 910 875 l 924 875 l 924 465 q 923 393 924 435 q 917 325 922 351 l 882 168 q 836 125 872 125 l 826 125 q 801 130 814 125 q 781 149 788 135 l 667 407 q 638 455 650 444 q 610 465 626 465 m 396 1218 l 728 1176 l 728 1163 l 396 1204 l 396 1218 z "},"Ẃ":{"ha":1154,"x_min":233,"x_max":924,"o":"m 610 465 l 547 465 q 519 455 531 465 q 490 407 507 444 l 376 149 q 357 130 371 135 q 331 125 343 125 l 321 125 q 275 168 285 125 l 240 325 q 234 393 235 351 q 233 465 233 435 l 233 875 l 247 875 l 247 467 q 248 394 247 436 q 254 326 249 353 l 289 168 q 301 148 292 157 q 321 139 310 139 l 328 139 q 349 142 339 139 q 365 158 360 144 l 479 414 q 511 467 497 454 q 547 479 525 479 l 610 479 q 646 467 632 479 q 678 414 660 454 l 792 158 q 809 142 799 144 q 829 139 819 139 l 836 139 q 857 148 847 139 q 868 168 867 157 l 903 326 q 909 394 908 353 q 910 467 910 436 l 910 875 l 924 875 l 924 465 q 923 393 924 435 q 917 325 922 351 l 882 168 q 836 125 872 125 l 826 125 q 801 130 814 125 q 781 149 788 135 l 667 407 q 638 455 650 444 q 610 465 626 465 m 756 1218 l 756 1204 l 424 1163 l 424 1176 l 756 1218 z "},"Ẅ":{"ha":1154,"x_min":233,"x_max":924,"o":"m 610 465 l 547 465 q 519 455 531 465 q 490 407 507 444 l 376 149 q 357 130 371 135 q 331 125 343 125 l 321 125 q 275 168 285 125 l 240 325 q 234 393 235 351 q 233 465 233 435 l 233 875 l 247 875 l 247 467 q 248 394 247 436 q 254 326 249 353 l 289 168 q 301 148 292 157 q 321 139 310 139 l 328 139 q 349 142 339 139 q 365 158 360 144 l 479 414 q 511 467 497 454 q 547 479 525 479 l 610 479 q 646 467 632 479 q 678 414 660 454 l 792 158 q 809 142 799 144 q 829 139 819 139 l 836 139 q 857 148 847 139 q 868 168 867 157 l 903 326 q 909 394 908 353 q 910 467 910 436 l 910 875 l 924 875 l 924 465 q 923 393 924 435 q 917 325 922 351 l 882 168 q 836 125 872 125 l 826 125 q 801 130 814 125 q 781 149 788 135 l 667 407 q 638 455 650 444 q 610 465 626 465 m 383 1153 l 383 1218 l 397 1218 l 397 1153 l 383 1153 m 742 1153 l 742 1218 l 756 1218 l 756 1153 l 742 1153 z "},"X":{"ha":1024,"x_min":232,"x_max":792,"o":"m 246 188 l 246 125 l 232 125 l 232 188 q 232 194 232 190 q 235 247 232 222 q 253 294 238 272 l 419 522 l 253 747 q 235 797 238 769 q 232 854 232 824 l 232 875 l 246 875 l 246 854 q 249 799 246 825 q 265 753 251 772 l 432 528 l 597 528 l 758 753 q 775 799 772 772 q 778 854 778 825 l 778 875 l 792 875 l 792 854 q 789 797 792 824 q 771 747 786 769 l 607 519 l 771 294 q 789 245 786 272 q 792 188 792 218 l 792 125 l 778 125 l 778 188 q 776 243 778 217 q 758 289 774 269 l 596 514 l 429 514 l 265 289 q 249 244 251 271 q 246 188 246 217 z "},"Y":{"ha":979,"x_min":213,"x_max":769,"o":"m 483 125 l 483 363 l 469 363 q 415 376 439 363 q 368 421 392 390 l 233 608 q 215 657 218 629 q 213 715 213 685 l 213 875 l 226 875 l 226 715 q 229 660 226 686 q 246 614 232 635 l 381 426 q 423 388 400 399 q 469 376 446 376 l 507 376 q 555 388 533 376 q 597 426 576 400 l 736 614 q 753 660 751 633 q 756 715 756 686 l 756 875 l 769 875 l 769 715 q 769 708 769 713 q 767 655 769 681 q 749 608 764 629 l 610 421 q 563 376 588 390 q 507 363 539 363 l 497 363 l 497 125 l 483 125 z "},"Ý":{"ha":979,"x_min":213,"x_max":769,"o":"m 483 125 l 483 363 l 469 363 q 415 376 439 363 q 368 421 392 390 l 233 608 q 215 657 218 629 q 213 715 213 685 l 213 875 l 226 875 l 226 715 q 229 660 226 686 q 246 614 232 635 l 381 426 q 423 388 400 399 q 469 376 446 376 l 507 376 q 555 388 533 376 q 597 426 576 400 l 736 614 q 753 660 751 633 q 756 715 756 686 l 756 875 l 769 875 l 769 715 q 769 708 769 713 q 767 655 769 681 q 749 608 764 629 l 610 421 q 563 376 588 390 q 507 363 539 363 l 497 363 l 497 125 l 483 125 m 668 1218 l 668 1204 l 336 1163 l 336 1176 l 668 1218 z "},"Ŷ":{"ha":979,"x_min":213,"x_max":769,"o":"m 483 125 l 483 363 l 469 363 q 415 376 439 363 q 368 421 392 390 l 233 608 q 215 657 218 629 q 213 715 213 685 l 213 875 l 226 875 l 226 715 q 229 660 226 686 q 246 614 232 635 l 381 426 q 423 388 400 399 q 469 376 446 376 l 507 376 q 555 388 533 376 q 597 426 576 400 l 736 614 q 753 660 751 633 q 756 715 756 686 l 756 875 l 769 875 l 769 715 q 769 708 769 713 q 767 655 769 681 q 749 608 764 629 l 610 421 q 563 376 588 390 q 507 363 539 363 l 497 363 l 497 125 l 483 125 m 653 1181 l 532 1219 q 512 1225 522 1222 q 488 1228 501 1228 q 464 1225 474 1228 q 443 1219 454 1222 l 322 1181 l 322 1196 l 438 1233 q 461 1239 450 1236 q 488 1242 472 1242 q 514 1239 503 1242 q 538 1233 525 1236 l 653 1196 l 653 1181 z "},"Ÿ":{"ha":979,"x_min":213,"x_max":769,"o":"m 483 125 l 483 363 l 469 363 q 415 376 439 363 q 368 421 392 390 l 233 608 q 215 657 218 629 q 213 715 213 685 l 213 875 l 226 875 l 226 715 q 229 660 226 686 q 246 614 232 635 l 381 426 q 423 388 400 399 q 469 376 446 376 l 507 376 q 555 388 533 376 q 597 426 576 400 l 736 614 q 753 660 751 633 q 756 715 756 686 l 756 875 l 769 875 l 769 715 q 769 708 769 713 q 767 655 769 681 q 749 608 764 629 l 610 421 q 563 376 588 390 q 507 363 539 363 l 497 363 l 497 125 l 483 125 m 296 1153 l 296 1218 l 310 1218 l 310 1153 l 296 1153 m 654 1153 l 654 1218 l 668 1218 l 668 1153 l 654 1153 z "},"Ỳ":{"ha":979,"x_min":213,"x_max":769,"o":"m 483 125 l 483 363 l 469 363 q 415 376 439 363 q 368 421 392 390 l 233 608 q 215 657 218 629 q 213 715 213 685 l 213 875 l 226 875 l 226 715 q 229 660 226 686 q 246 614 232 635 l 381 426 q 423 388 400 399 q 469 376 446 376 l 507 376 q 555 388 533 376 q 597 426 576 400 l 736 614 q 753 660 751 633 q 756 715 756 686 l 756 875 l 769 875 l 769 715 q 769 708 769 713 q 767 655 769 681 q 749 608 764 629 l 610 421 q 563 376 588 390 q 507 363 539 363 l 497 363 l 497 125 l 483 125 m 308 1218 l 640 1176 l 640 1163 l 308 1204 l 308 1218 z "},"Z":{"ha":917,"x_min":214,"x_max":728,"o":"m 657 756 l 250 233 q 235 213 240 221 q 231 190 231 204 l 231 171 q 239 144 231 150 q 260 139 247 139 l 728 139 l 728 125 l 260 125 q 217 171 217 125 l 217 193 q 224 220 217 208 q 240 244 231 232 l 647 767 q 663 788 658 779 q 667 810 667 796 l 667 829 q 658 856 667 850 q 638 861 650 861 l 214 861 l 214 875 l 638 875 q 681 829 681 875 l 681 807 q 674 780 681 792 q 657 756 668 768 z "},"Ź":{"ha":917,"x_min":214,"x_max":728,"o":"m 657 756 l 250 233 q 235 213 240 221 q 231 190 231 204 l 231 171 q 239 144 231 150 q 260 139 247 139 l 728 139 l 728 125 l 260 125 q 217 171 217 125 l 217 193 q 224 220 217 208 q 240 244 231 232 l 647 767 q 663 788 658 779 q 667 810 667 796 l 667 829 q 658 856 667 850 q 638 861 650 861 l 214 861 l 214 875 l 638 875 q 681 829 681 875 l 681 807 q 674 780 681 792 q 657 756 668 768 m 638 1218 l 638 1204 l 306 1163 l 306 1176 l 638 1218 z "},"Ż":{"ha":917,"x_min":214,"x_max":728,"o":"m 657 756 l 250 233 q 235 213 240 221 q 231 190 231 204 l 231 171 q 239 144 231 150 q 260 139 247 139 l 728 139 l 728 125 l 260 125 q 217 171 217 125 l 217 193 q 224 220 217 208 q 240 244 231 232 l 647 767 q 663 788 658 779 q 667 810 667 796 l 667 829 q 658 856 667 850 q 638 861 650 861 l 214 861 l 214 875 l 638 875 q 681 829 681 875 l 681 807 q 674 780 681 792 q 657 756 668 768 m 454 1153 l 454 1235 l 468 1235 l 468 1153 l 454 1153 z "},"Ž":{"ha":917,"x_min":214,"x_max":728,"o":"m 657 756 l 250 233 q 235 213 240 221 q 231 190 231 204 l 231 171 q 239 144 231 150 q 260 139 247 139 l 728 139 l 728 125 l 260 125 q 217 171 217 125 l 217 193 q 224 220 217 208 q 240 244 231 232 l 647 767 q 663 788 658 779 q 667 810 667 796 l 667 829 q 658 856 667 850 q 638 861 650 861 l 214 861 l 214 875 l 638 875 q 681 829 681 875 l 681 807 q 674 780 681 792 q 657 756 668 768 m 292 1221 l 413 1182 q 433 1176 424 1179 q 457 1174 443 1174 q 481 1176 471 1174 q 501 1182 492 1179 l 622 1221 l 622 1206 l 507 1168 q 483 1163 494 1165 q 457 1160 472 1160 q 431 1163 442 1160 q 407 1168 419 1165 l 292 1206 l 292 1221 z "},"Æ":{"ha":1396,"x_min":219,"x_max":1203,"o":"m 1203 861 l 776 861 l 776 514 l 1090 514 l 1090 500 l 776 500 l 776 139 l 1203 139 l 1203 125 l 763 125 l 763 365 l 233 365 l 233 125 l 219 125 l 219 404 q 222 474 219 444 q 235 532 225 503 l 338 814 q 368 863 353 850 q 408 875 383 875 l 1203 875 l 1203 861 m 763 861 l 408 861 q 375 850 388 861 q 351 808 363 839 l 249 526 q 236 472 239 500 q 233 404 233 443 l 233 379 l 763 379 l 763 861 z "},"Ð":{"ha":1050,"x_min":153,"x_max":819,"o":"m 153 499 l 258 499 l 258 875 l 597 875 q 740 849 692 875 q 803 780 788 824 q 819 682 819 736 l 819 314 q 804 218 819 261 q 741 150 789 175 q 597 125 693 125 l 258 125 l 258 485 l 153 485 l 153 499 m 272 499 l 403 499 l 403 485 l 272 485 l 272 139 l 597 139 q 731 162 686 139 q 790 224 775 185 q 806 314 806 264 l 806 682 q 790 774 806 733 q 730 838 775 814 q 597 861 685 861 l 272 861 l 272 499 z "},"Ø":{"ha":1024,"x_min":217,"x_max":806,"o":"m 719 972 l 676 872 q 778 806 750 850 q 806 704 806 763 l 806 294 q 780 197 806 239 q 690 131 754 154 q 510 107 626 107 q 360 122 419 107 l 319 28 l 304 28 l 346 126 q 244 191 272 147 q 217 294 217 235 l 217 704 q 242 803 217 761 q 331 868 267 844 q 510 892 394 892 q 664 876 601 892 l 704 972 l 719 972 m 351 139 l 658 863 q 510 878 599 878 q 339 856 400 878 q 254 796 278 835 q 231 704 231 757 l 231 294 q 256 200 231 240 q 351 139 282 160 m 510 121 q 682 142 621 121 q 767 203 743 164 q 792 294 792 243 l 792 704 q 766 799 792 758 q 671 858 740 839 l 365 135 q 510 121 424 121 z "},"Þ":{"ha":961,"x_min":246,"x_max":754,"o":"m 246 125 l 246 875 l 260 875 l 260 738 l 546 738 q 678 713 633 738 q 739 646 724 689 q 754 549 754 603 l 754 444 q 739 349 754 390 q 678 283 724 307 q 546 260 633 260 l 260 260 l 260 125 l 246 125 m 260 274 l 546 274 q 669 296 628 274 q 726 356 711 318 q 740 444 740 394 l 740 549 q 726 638 740 599 q 669 701 711 678 q 546 724 628 724 l 260 724 l 260 274 z "},"Đ":{"ha":1050,"x_min":153,"x_max":819,"o":"m 153 499 l 258 499 l 258 875 l 597 875 q 740 849 692 875 q 803 780 788 824 q 819 682 819 736 l 819 314 q 804 218 819 261 q 741 150 789 175 q 597 125 693 125 l 258 125 l 258 485 l 153 485 l 153 499 m 272 499 l 403 499 l 403 485 l 272 485 l 272 139 l 597 139 q 731 162 686 139 q 790 224 775 185 q 806 314 806 264 l 806 682 q 790 774 806 733 q 730 838 775 814 q 597 861 685 861 l 272 861 l 272 499 z "},"Ħ":{"ha":1082,"x_min":167,"x_max":915,"o":"m 167 714 l 258 714 l 258 875 l 272 875 l 272 714 l 810 714 l 810 875 l 824 875 l 824 714 l 915 714 l 915 700 l 824 700 l 824 125 l 810 125 l 810 336 l 272 336 l 272 125 l 258 125 l 258 700 l 167 700 l 167 714 m 272 700 l 272 350 l 810 350 l 810 700 l 272 700 z "},"Ĳ":{"ha":1033,"x_min":221,"x_max":794,"o":"m 221 125 l 221 139 l 583 139 q 708 163 665 139 q 765 236 750 188 q 781 356 781 285 l 781 875 l 794 875 l 794 356 q 778 230 794 282 q 717 151 763 178 q 583 125 672 125 l 221 125 m 246 556 l 246 875 l 260 875 l 260 556 l 246 556 z "},"Ŀ":{"ha":965,"x_min":247,"x_max":758,"o":"m 758 301 l 758 125 l 247 125 l 247 875 l 261 875 l 261 139 l 744 139 l 744 301 l 758 301 m 732 614 l 732 690 l 746 690 l 746 614 l 732 614 z "},"Ł":{"ha":979,"x_min":153,"x_max":772,"o":"m 153 539 l 261 557 l 261 875 l 275 875 l 275 560 l 431 585 l 431 571 l 275 546 l 275 139 l 758 139 l 758 413 l 772 413 l 772 125 l 261 125 l 261 543 l 153 525 l 153 539 z "},"Ŋ":{"ha":1036,"x_min":238,"x_max":794,"o":"m 618 15 q 742 44 704 15 q 781 139 781 72 l 781 704 q 758 796 781 757 q 678 856 735 835 q 517 878 621 878 q 356 856 414 878 q 274 796 297 835 q 251 704 251 757 l 251 125 l 238 125 l 238 704 q 262 803 238 761 q 347 868 286 844 q 517 892 408 892 q 686 868 626 892 q 770 803 746 844 q 794 704 794 761 l 794 139 q 754 34 794 67 q 618 1 714 1 l 618 15 z "},"Œ":{"ha":1410,"x_min":231,"x_max":1203,"o":"m 453 125 q 310 150 357 125 q 247 218 263 175 q 231 314 231 261 l 231 682 q 247 780 231 736 q 310 849 263 824 q 453 875 358 875 l 1203 875 l 1203 861 l 776 861 l 776 514 l 1090 514 l 1090 500 l 776 500 l 776 139 l 1203 139 l 1203 125 l 453 125 m 763 139 l 763 861 l 453 861 q 321 838 365 861 q 260 774 276 814 q 244 682 244 733 l 244 307 q 261 220 246 258 q 322 160 276 182 q 453 139 367 139 l 763 139 z "},"Ŧ":{"ha":911,"x_min":164,"x_max":747,"o":"m 261 439 l 449 439 l 449 861 l 164 861 l 164 875 l 747 875 l 747 861 l 463 861 l 463 439 l 649 439 l 649 425 l 463 425 l 463 125 l 449 125 l 449 425 l 261 425 l 261 439 z "},"ẞ":{"ha":1054,"x_min":254,"x_max":856,"o":"m 268 125 l 254 125 l 254 875 l 599 875 q 701 719 743 875 l 646 519 l 710 519 q 819 488 783 519 q 856 383 856 456 l 856 261 q 819 158 856 190 q 697 125 783 125 l 619 125 l 619 139 l 697 139 q 808 168 775 139 q 842 261 842 197 l 842 383 q 808 477 842 449 q 710 506 775 506 l 626 506 l 688 722 q 599 861 726 861 l 268 861 l 268 125 z "},"":{"ha":1022,"x_min":242,"x_max":785,"o":"m 242 125 l 242 704 q 264 803 242 761 q 344 868 286 844 q 511 892 403 892 q 680 868 621 892 q 762 803 739 844 q 785 704 785 761 l 785 125 l 771 125 l 771 376 l 256 376 l 256 125 l 242 125 m 256 390 l 771 390 l 771 704 q 749 796 771 757 q 672 856 728 835 q 511 878 615 878 q 353 856 408 878 q 276 796 297 835 q 256 704 256 757 l 256 390 z "},"":{"ha":1022,"x_min":242,"x_max":785,"o":"m 242 125 l 242 704 q 264 803 242 761 q 344 868 286 844 q 511 892 403 892 q 680 868 621 892 q 762 803 739 844 q 785 704 785 761 l 785 125 l 771 125 l 771 376 l 256 376 l 256 125 l 242 125 m 256 390 l 771 390 l 771 704 q 749 796 771 757 q 672 856 728 835 q 511 878 615 878 q 353 856 408 878 q 276 796 297 835 q 256 704 256 757 l 256 390 m 344 1218 l 676 1176 l 676 1163 l 344 1204 l 344 1218 z "},"":{"ha":1022,"x_min":242,"x_max":785,"o":"m 242 125 l 242 704 q 264 803 242 761 q 344 868 286 844 q 511 892 403 892 q 680 868 621 892 q 762 803 739 844 q 785 704 785 761 l 785 125 l 771 125 l 771 376 l 256 376 l 256 125 l 242 125 m 256 390 l 771 390 l 771 704 q 749 796 771 757 q 672 856 728 835 q 511 878 615 878 q 353 856 408 878 q 276 796 297 835 q 256 704 256 757 l 256 390 m 690 1218 l 690 1204 l 358 1163 l 358 1176 l 690 1218 z "},"":{"ha":1022,"x_min":242,"x_max":785,"o":"m 242 125 l 242 704 q 264 803 242 761 q 344 868 286 844 q 511 892 403 892 q 680 868 621 892 q 762 803 739 844 q 785 704 785 761 l 785 125 l 771 125 l 771 376 l 256 376 l 256 125 l 242 125 m 256 390 l 771 390 l 771 704 q 749 796 771 757 q 672 856 728 835 q 511 878 615 878 q 353 856 408 878 q 276 796 297 835 q 256 704 256 757 l 256 390 m 675 1181 l 554 1219 q 534 1225 544 1222 q 510 1228 524 1228 q 486 1225 496 1228 q 465 1219 476 1222 l 344 1181 l 344 1196 l 460 1233 q 483 1239 472 1236 q 510 1242 494 1242 q 536 1239 525 1242 q 560 1233 547 1236 l 675 1196 l 675 1181 z "},"":{"ha":1022,"x_min":242,"x_max":785,"o":"m 242 125 l 242 704 q 264 803 242 761 q 344 868 286 844 q 511 892 403 892 q 680 868 621 892 q 762 803 739 844 q 785 704 785 761 l 785 125 l 771 125 l 771 376 l 256 376 l 256 125 l 242 125 m 256 390 l 771 390 l 771 704 q 749 796 771 757 q 672 856 728 835 q 511 878 615 878 q 353 856 408 878 q 276 796 297 835 q 256 704 256 757 l 256 390 m 674 1154 q 614 1154 646 1151 q 529 1165 582 1157 l 507 1168 l 468 1174 q 394 1182 422 1181 q 343 1179 367 1183 l 343 1194 q 395 1196 367 1197 q 471 1188 424 1194 l 510 1182 l 532 1179 q 615 1168 585 1171 q 674 1168 646 1165 l 674 1154 z "},"":{"ha":1022,"x_min":242,"x_max":785,"o":"m 242 125 l 242 704 q 264 803 242 761 q 344 868 286 844 q 511 892 403 892 q 680 868 621 892 q 762 803 739 844 q 785 704 785 761 l 785 125 l 771 125 l 771 376 l 256 376 l 256 125 l 242 125 m 256 390 l 771 390 l 771 704 q 749 796 771 757 q 672 856 728 835 q 511 878 615 878 q 353 856 408 878 q 276 796 297 835 q 256 704 256 757 l 256 390 m 318 1153 l 318 1218 l 332 1218 l 332 1153 l 318 1153 m 676 1153 l 676 1218 l 690 1218 l 690 1153 l 676 1153 z "},"":{"ha":1022,"x_min":242,"x_max":785,"o":"m 242 125 l 242 704 q 264 803 242 761 q 344 868 286 844 q 511 892 403 892 q 680 868 621 892 q 762 803 739 844 q 785 704 785 761 l 785 125 l 771 125 l 771 376 l 256 376 l 256 125 l 242 125 m 256 390 l 771 390 l 771 704 q 749 796 771 757 q 672 856 728 835 q 511 878 615 878 q 353 856 408 878 q 276 796 297 835 q 256 704 256 757 l 256 390 m 313 1118 q 327 1192 313 1160 q 384 1241 342 1224 q 508 1258 426 1258 q 634 1240 592 1258 q 692 1191 676 1222 q 707 1118 707 1160 l 707 1056 q 692 983 707 1014 q 634 934 676 951 q 508 917 592 917 q 384 934 426 917 q 327 983 342 951 q 313 1056 313 1014 l 313 1118 m 326 1118 l 326 1056 q 341 989 326 1017 q 395 946 356 961 q 508 931 435 931 q 623 946 583 931 q 678 989 663 961 q 693 1056 693 1017 l 693 1118 q 678 1185 693 1157 q 623 1228 663 1213 q 508 1244 583 1244 q 395 1229 435 1244 q 341 1185 356 1214 q 326 1118 326 1157 z "},"":{"ha":1022,"x_min":242,"x_max":785,"o":"m 242 125 l 242 704 q 264 803 242 761 q 344 868 286 844 q 511 892 403 892 q 680 868 621 892 q 762 803 739 844 q 785 704 785 761 l 785 125 l 771 125 l 771 376 l 256 376 l 256 125 l 242 125 m 256 390 l 771 390 l 771 704 q 749 796 771 757 q 672 856 728 835 q 511 878 615 878 q 353 856 408 878 q 276 796 297 835 q 256 704 256 757 l 256 390 m 676 1176 l 676 1163 l 344 1163 l 344 1176 l 676 1176 z "},"":{"ha":1022,"x_min":242,"x_max":785,"o":"m 242 125 l 242 704 q 264 803 242 761 q 344 868 286 844 q 511 892 403 892 q 680 868 621 892 q 762 803 739 844 q 785 704 785 761 l 785 125 l 771 125 l 771 376 l 256 376 l 256 125 l 242 125 m 256 390 l 771 390 l 771 704 q 749 796 771 757 q 672 856 728 835 q 511 878 615 878 q 353 856 408 878 q 276 796 297 835 q 256 704 256 757 l 256 390 m 711 1260 l 711 1247 q 697 1195 711 1221 q 639 1153 682 1169 q 510 1136 596 1136 q 382 1153 424 1136 q 328 1195 340 1169 q 315 1247 315 1221 l 315 1260 l 329 1260 l 329 1247 q 343 1200 329 1222 q 396 1164 357 1178 q 510 1150 435 1150 q 626 1164 585 1150 q 682 1200 667 1178 q 697 1247 697 1222 l 697 1260 l 711 1260 z "},"":{"ha":1022,"x_min":242,"x_max":808,"o":"m 242 125 l 242 704 q 264 803 242 761 q 344 868 286 844 q 511 892 403 892 q 680 868 621 892 q 762 803 739 844 q 785 704 785 761 l 785 125 l 781 125 q 747 100 754 111 q 735 58 739 89 l 718 -60 q 722 -124 713 -101 q 775 -147 732 -147 l 808 -147 l 808 -161 l 775 -161 q 710 -135 724 -161 q 704 -57 696 -108 l 721 58 q 735 106 726 92 q 771 135 743 119 l 771 376 l 256 376 l 256 125 l 242 125 m 256 390 l 771 390 l 771 704 q 749 796 771 757 q 672 856 728 835 q 511 878 615 878 q 353 856 408 878 q 276 796 297 835 q 256 704 256 757 l 256 390 z "},"":{"ha":893,"x_min":225,"x_max":700,"o":"m 447 125 q 309 143 357 125 q 243 201 261 161 q 225 304 225 240 l 225 693 q 244 799 225 760 q 310 857 263 839 q 447 875 358 875 l 700 875 l 700 861 l 447 861 q 320 845 365 861 q 257 792 275 829 q 239 693 239 756 l 239 513 l 603 513 l 603 499 l 239 499 l 239 304 q 256 208 239 244 q 319 155 274 171 q 447 139 364 139 l 700 139 l 700 125 l 447 125 z "},"":{"ha":893,"x_min":225,"x_max":700,"o":"m 447 125 q 309 143 357 125 q 243 201 261 161 q 225 304 225 240 l 225 693 q 244 799 225 760 q 310 857 263 839 q 447 875 358 875 l 700 875 l 700 861 l 447 861 q 320 845 365 861 q 257 792 275 829 q 239 693 239 756 l 239 513 l 603 513 l 603 499 l 239 499 l 239 304 q 256 208 239 244 q 319 155 274 171 q 447 139 364 139 l 700 139 l 700 125 l 447 125 m 301 1218 l 633 1176 l 633 1163 l 301 1204 l 301 1218 z "},"":{"ha":893,"x_min":225,"x_max":700,"o":"m 447 125 q 309 143 357 125 q 243 201 261 161 q 225 304 225 240 l 225 693 q 244 799 225 760 q 310 857 263 839 q 447 875 358 875 l 700 875 l 700 861 l 447 861 q 320 845 365 861 q 257 792 275 829 q 239 693 239 756 l 239 513 l 603 513 l 603 499 l 239 499 l 239 304 q 256 208 239 244 q 319 155 274 171 q 447 139 364 139 l 700 139 l 700 125 l 447 125 m 661 1218 l 661 1204 l 329 1163 l 329 1176 l 661 1218 z "},"":{"ha":893,"x_min":225,"x_max":700,"o":"m 447 125 q 309 143 357 125 q 243 201 261 161 q 225 304 225 240 l 225 693 q 244 799 225 760 q 310 857 263 839 q 447 875 358 875 l 700 875 l 700 861 l 447 861 q 320 845 365 861 q 257 792 275 829 q 239 693 239 756 l 239 513 l 603 513 l 603 499 l 239 499 l 239 304 q 256 208 239 244 q 319 155 274 171 q 447 139 364 139 l 700 139 l 700 125 l 447 125 m 646 1181 l 525 1219 q 505 1225 515 1222 q 481 1228 494 1228 q 457 1225 467 1228 q 436 1219 447 1222 l 315 1181 l 315 1196 l 431 1233 q 454 1239 443 1236 q 481 1242 465 1242 q 507 1239 496 1242 q 531 1233 518 1236 l 646 1196 l 646 1181 z "},"":{"ha":893,"x_min":225,"x_max":700,"o":"m 447 125 q 309 143 357 125 q 243 201 261 161 q 225 304 225 240 l 225 693 q 244 799 225 760 q 310 857 263 839 q 447 875 358 875 l 700 875 l 700 861 l 447 861 q 320 845 365 861 q 257 792 275 829 q 239 693 239 756 l 239 513 l 603 513 l 603 499 l 239 499 l 239 304 q 256 208 239 244 q 319 155 274 171 q 447 139 364 139 l 700 139 l 700 125 l 447 125 m 303 1153 l 303 1218 l 317 1218 l 317 1153 l 303 1153 m 661 1153 l 661 1218 l 675 1218 l 675 1153 l 661 1153 z "},"":{"ha":893,"x_min":225,"x_max":700,"o":"m 447 125 q 309 143 357 125 q 243 201 261 161 q 225 304 225 240 l 225 693 q 244 799 225 760 q 310 857 263 839 q 447 875 358 875 l 700 875 l 700 861 l 447 861 q 320 845 365 861 q 257 792 275 829 q 239 693 239 756 l 239 513 l 603 513 l 603 499 l 239 499 l 239 304 q 256 208 239 244 q 319 155 274 171 q 447 139 364 139 l 700 139 l 700 125 l 447 125 m 661 1176 l 661 1163 l 329 1163 l 329 1176 l 661 1176 z "},"":{"ha":893,"x_min":225,"x_max":700,"o":"m 447 125 q 309 143 357 125 q 243 201 261 161 q 225 304 225 240 l 225 693 q 244 799 225 760 q 310 857 263 839 q 447 875 358 875 l 700 875 l 700 861 l 447 861 q 320 845 365 861 q 257 792 275 829 q 239 693 239 756 l 239 513 l 603 513 l 603 499 l 239 499 l 239 304 q 256 208 239 244 q 319 155 274 171 q 447 139 364 139 l 700 139 l 700 125 l 447 125 m 696 1260 l 696 1247 q 681 1195 696 1221 q 624 1153 667 1169 q 494 1136 581 1136 q 367 1153 408 1136 q 313 1195 325 1169 q 300 1247 300 1221 l 300 1260 l 314 1260 l 314 1247 q 328 1200 314 1222 q 381 1164 342 1178 q 494 1150 419 1150 q 610 1164 569 1150 q 667 1200 651 1178 q 682 1247 682 1222 l 682 1260 l 696 1260 z "},"":{"ha":893,"x_min":225,"x_max":700,"o":"m 447 125 q 309 143 357 125 q 243 201 261 161 q 225 304 225 240 l 225 693 q 244 799 225 760 q 310 857 263 839 q 447 875 358 875 l 700 875 l 700 861 l 447 861 q 320 845 365 861 q 257 792 275 829 q 239 693 239 756 l 239 513 l 603 513 l 603 499 l 239 499 l 239 304 q 256 208 239 244 q 319 155 274 171 q 447 139 364 139 l 700 139 l 700 125 l 447 125 m 492 1153 l 492 1235 l 506 1235 l 506 1153 l 492 1153 z "},"":{"ha":893,"x_min":225,"x_max":700,"o":"m 447 125 q 309 143 357 125 q 243 201 261 161 q 225 304 225 240 l 225 693 q 244 799 225 760 q 310 857 263 839 q 447 875 358 875 l 700 875 l 700 861 l 447 861 q 320 845 365 861 q 257 792 275 829 q 239 693 239 756 l 239 513 l 603 513 l 603 499 l 239 499 l 239 304 q 256 208 239 244 q 319 155 274 171 q 447 139 364 139 l 700 139 l 700 125 l 672 125 q 638 100 646 111 q 626 58 631 89 l 610 -60 q 614 -124 604 -101 q 667 -147 624 -147 l 700 -147 l 700 -161 l 667 -161 q 601 -135 615 -161 q 596 -57 588 -108 l 613 58 q 623 99 617 86 q 646 125 629 113 l 447 125 z "},"":{"ha":893,"x_min":225,"x_max":700,"o":"m 447 125 q 309 143 357 125 q 243 201 261 161 q 225 304 225 240 l 225 693 q 244 799 225 760 q 310 857 263 839 q 447 875 358 875 l 700 875 l 700 861 l 447 861 q 320 845 365 861 q 257 792 275 829 q 239 693 239 756 l 239 513 l 603 513 l 603 499 l 239 499 l 239 304 q 256 208 239 244 q 319 155 274 171 q 447 139 364 139 l 700 139 l 700 125 l 447 125 m 325 1221 l 446 1182 q 467 1176 457 1179 q 490 1174 476 1174 q 515 1176 504 1174 q 535 1182 525 1179 l 656 1221 l 656 1206 l 540 1168 q 517 1163 528 1165 q 490 1160 506 1160 q 464 1163 475 1160 q 440 1168 453 1165 l 325 1206 l 325 1221 z "},"":{"ha":515,"x_min":251,"x_max":265,"o":"m 251 875 l 265 875 l 265 125 l 251 125 l 251 875 z "},"":{"ha":515,"x_min":111,"x_max":401,"o":"m 251 875 l 265 875 l 265 125 l 251 125 l 251 875 m 111 1215 l 401 1179 l 401 1165 l 111 1201 l 111 1215 z "},"":{"ha":515,"x_min":111,"x_max":401,"o":"m 251 875 l 265 875 l 265 125 l 251 125 l 251 875 m 401 1215 l 401 1201 l 111 1165 l 111 1179 l 401 1215 z "},"":{"ha":515,"x_min":92,"x_max":422,"o":"m 251 875 l 265 875 l 265 125 l 251 125 l 251 875 m 422 1181 l 301 1219 q 281 1225 292 1222 q 257 1228 271 1228 q 233 1225 243 1228 q 213 1219 224 1222 l 92 1181 l 92 1196 l 207 1233 q 231 1239 219 1236 q 257 1242 242 1242 q 283 1239 272 1242 q 307 1233 294 1236 l 422 1196 l 422 1181 z "},"":{"ha":515,"x_min":64,"x_max":436,"o":"m 251 875 l 265 875 l 265 125 l 251 125 l 251 875 m 64 1153 l 64 1218 l 78 1218 l 78 1153 l 64 1153 m 422 1153 l 422 1218 l 436 1218 l 436 1153 l 422 1153 z "},"":{"ha":515,"x_min":90,"x_max":421,"o":"m 251 875 l 265 875 l 265 125 l 251 125 l 251 875 m 421 1154 q 361 1154 393 1151 q 276 1165 329 1157 l 254 1168 l 215 1174 q 142 1182 169 1181 q 90 1179 114 1183 l 90 1194 q 142 1196 114 1197 q 218 1188 171 1194 l 257 1182 l 279 1179 q 363 1168 332 1171 q 421 1168 393 1165 l 421 1154 z "},"":{"ha":515,"x_min":92,"x_max":424,"o":"m 251 875 l 265 875 l 265 125 l 251 125 l 251 875 m 424 1176 l 424 1163 l 92 1163 l 92 1176 l 424 1176 z "},"":{"ha":515,"x_min":61,"x_max":457,"o":"m 251 875 l 265 875 l 265 125 l 251 125 l 251 875 m 457 1260 l 457 1247 q 442 1195 457 1221 q 385 1153 428 1169 q 256 1136 342 1136 q 128 1153 169 1136 q 74 1195 86 1169 q 61 1247 61 1221 l 61 1260 l 75 1260 l 75 1247 q 89 1200 75 1222 q 142 1164 103 1178 q 256 1150 181 1150 q 372 1164 331 1150 q 428 1200 413 1178 q 443 1247 443 1222 l 443 1260 l 457 1260 z "},"":{"ha":515,"x_min":175,"x_max":288,"o":"m 251 875 l 265 875 l 265 125 l 260 125 q 226 100 233 111 q 214 58 218 89 l 197 -60 q 201 -124 192 -101 q 254 -147 211 -147 l 288 -147 l 288 -161 l 254 -161 q 189 -135 203 -161 q 183 -57 175 -108 l 200 58 q 214 106 206 92 q 251 136 222 119 l 251 875 z "},"":{"ha":515,"x_min":251,"x_max":265,"o":"m 251 875 l 265 875 l 265 125 l 251 125 l 251 875 m 251 1153 l 251 1235 l 265 1235 l 265 1153 l 251 1153 z "},"":{"ha":854,"x_min":247,"x_max":690,"o":"m 247 875 l 261 875 l 261 139 l 690 139 l 690 125 l 247 125 l 247 875 z "},"":{"ha":854,"x_min":221,"x_max":690,"o":"m 247 875 l 261 875 l 261 139 l 690 139 l 690 125 l 247 125 l 247 875 m 553 1218 l 553 1204 l 221 1163 l 221 1176 l 553 1218 z "},"":{"ha":854,"x_min":247,"x_max":690,"o":"m 247 875 l 261 875 l 261 139 l 690 139 l 690 125 l 247 125 l 247 875 m 546 -183 l 546 -318 q 517 -410 546 -382 q 431 -437 488 -437 l 382 -437 l 382 -424 l 431 -424 q 506 -399 481 -424 q 532 -318 532 -374 l 532 -197 l 382 -197 l 382 -183 l 546 -183 z "},"":{"ha":854,"x_min":247,"x_max":697,"o":"m 247 875 l 261 875 l 261 139 l 690 139 l 690 125 l 247 125 l 247 875 m 657 746 l 682 875 l 697 875 l 672 746 l 657 746 z "},"":{"ha":854,"x_min":247,"x_max":690,"o":"m 247 875 l 261 875 l 261 139 l 690 139 l 690 125 l 247 125 l 247 875 m 676 556 l 676 638 l 690 638 l 690 556 l 676 556 z "},"":{"ha":868,"x_min":153,"x_max":704,"o":"m 153 539 l 261 557 l 261 875 l 275 875 l 275 560 l 431 585 l 431 571 l 275 546 l 275 139 l 704 139 l 704 125 l 261 125 l 261 543 l 153 525 l 153 539 z "},"":{"ha":1486,"x_min":238,"x_max":1249,"o":"m 1249 125 l 1235 125 l 1235 704 q 1213 796 1235 757 q 1140 856 1192 835 q 993 878 1088 878 q 847 856 900 878 q 772 796 793 835 q 750 704 750 757 l 750 125 l 736 125 l 736 704 q 715 796 736 757 q 641 856 693 835 q 494 878 589 878 q 348 856 401 878 q 273 796 294 835 q 251 704 251 757 l 251 125 l 238 125 l 238 704 q 260 803 238 761 q 340 868 283 844 q 494 892 396 892 q 674 856 618 892 q 743 760 729 821 q 813 856 757 821 q 993 892 869 892 q 1149 868 1093 892 q 1226 803 1204 844 q 1249 704 1249 761 l 1249 125 z "},"":{"ha":1036,"x_min":238,"x_max":794,"o":"m 794 125 l 781 125 l 781 704 q 758 796 781 757 q 678 856 735 835 q 517 878 621 878 q 356 856 414 878 q 274 796 297 835 q 251 704 251 757 l 251 125 l 238 125 l 238 704 q 262 803 238 761 q 347 868 286 844 q 517 892 408 892 q 686 868 626 892 q 770 803 746 844 q 794 704 794 761 l 794 125 z "},"":{"ha":1036,"x_min":238,"x_max":794,"o":"m 794 125 l 781 125 l 781 704 q 758 796 781 757 q 678 856 735 835 q 517 878 621 878 q 356 856 414 878 q 274 796 297 835 q 251 704 251 757 l 251 125 l 238 125 l 238 704 q 262 803 238 761 q 347 868 286 844 q 517 892 408 892 q 686 868 626 892 q 770 803 746 844 q 794 704 794 761 l 794 125 m 681 1154 q 621 1154 653 1151 q 536 1165 589 1157 l 514 1168 l 475 1174 q 401 1182 429 1181 q 350 1179 374 1183 l 350 1194 q 402 1196 374 1197 q 478 1188 431 1194 l 517 1182 l 539 1179 q 622 1168 592 1171 q 681 1168 653 1165 l 681 1154 z "},"":{"ha":1036,"x_min":238,"x_max":794,"o":"m 794 125 l 781 125 l 781 704 q 758 796 781 757 q 678 856 735 835 q 517 878 621 878 q 356 856 414 878 q 274 796 297 835 q 251 704 251 757 l 251 125 l 238 125 l 238 704 q 262 803 238 761 q 347 868 286 844 q 517 892 408 892 q 686 868 626 892 q 770 803 746 844 q 794 704 794 761 l 794 125 m 697 1218 l 697 1204 l 365 1163 l 365 1176 l 697 1218 z "},"":{"ha":1036,"x_min":238,"x_max":794,"o":"m 794 125 l 781 125 l 781 704 q 758 796 781 757 q 678 856 735 835 q 517 878 621 878 q 356 856 414 878 q 274 796 297 835 q 251 704 251 757 l 251 125 l 238 125 l 238 704 q 262 803 238 761 q 347 868 286 844 q 517 892 408 892 q 686 868 626 892 q 770 803 746 844 q 794 704 794 761 l 794 125 m 600 -183 l 600 -318 q 571 -410 600 -382 q 485 -437 542 -437 l 436 -437 l 436 -424 l 485 -424 q 560 -399 535 -424 q 586 -318 586 -374 l 586 -197 l 436 -197 l 436 -183 l 600 -183 z "},"":{"ha":1036,"x_min":238,"x_max":794,"o":"m 794 125 l 781 125 l 781 704 q 758 796 781 757 q 678 856 735 835 q 517 878 621 878 q 356 856 414 878 q 274 796 297 835 q 251 704 251 757 l 251 125 l 238 125 l 238 704 q 262 803 238 761 q 347 868 286 844 q 517 892 408 892 q 686 868 626 892 q 770 803 746 844 q 794 704 794 761 l 794 125 m 351 1221 l 472 1182 q 493 1176 483 1179 q 517 1174 503 1174 q 541 1176 531 1174 q 561 1182 551 1179 l 682 1221 l 682 1206 l 567 1168 q 543 1163 554 1165 q 517 1160 532 1160 q 490 1163 501 1160 q 467 1168 479 1165 l 351 1206 l 351 1221 z "},"":{"ha":1486,"x_min":224,"x_max":1263,"o":"m 224 875 l 238 875 l 238 296 q 260 205 238 244 q 336 144 282 165 q 486 122 390 122 q 638 144 583 122 q 714 205 692 165 q 736 296 736 244 l 736 875 l 750 875 l 750 296 q 772 205 750 244 q 849 144 794 165 q 999 122 903 122 q 1150 144 1096 122 q 1226 205 1204 165 q 1249 296 1249 244 l 1249 875 l 1263 875 l 1263 296 q 1239 198 1263 240 q 1158 132 1215 156 q 999 108 1101 108 q 815 144 872 108 q 743 242 757 181 q 671 144 729 181 q 486 108 613 108 q 327 132 385 108 q 247 198 269 156 q 224 296 224 240 l 224 875 z "},"":{"ha":1486,"x_min":224,"x_max":1263,"o":"m 224 875 l 238 875 l 238 296 q 260 205 238 244 q 336 144 282 165 q 486 122 390 122 q 638 144 583 122 q 714 205 692 165 q 736 296 736 244 l 736 875 l 750 875 l 750 296 q 772 205 750 244 q 849 144 794 165 q 999 122 903 122 q 1150 144 1096 122 q 1226 205 1204 165 q 1249 296 1249 244 l 1249 875 l 1263 875 l 1263 296 q 1239 198 1263 240 q 1158 132 1215 156 q 999 108 1101 108 q 815 144 872 108 q 743 242 757 181 q 671 144 729 181 q 486 108 613 108 q 327 132 385 108 q 247 198 269 156 q 224 296 224 240 l 224 875 m 907 1181 l 786 1219 q 766 1225 776 1222 q 742 1228 756 1228 q 718 1225 728 1228 q 697 1219 708 1222 l 576 1181 l 576 1196 l 692 1233 q 715 1239 704 1236 q 742 1242 726 1242 q 768 1239 757 1242 q 792 1233 779 1236 l 907 1196 l 907 1181 z "},"":{"ha":1486,"x_min":224,"x_max":1263,"o":"m 224 875 l 238 875 l 238 296 q 260 205 238 244 q 336 144 282 165 q 486 122 390 122 q 638 144 583 122 q 714 205 692 165 q 736 296 736 244 l 736 875 l 750 875 l 750 296 q 772 205 750 244 q 849 144 794 165 q 999 122 903 122 q 1150 144 1096 122 q 1226 205 1204 165 q 1249 296 1249 244 l 1249 875 l 1263 875 l 1263 296 q 1239 198 1263 240 q 1158 132 1215 156 q 999 108 1101 108 q 815 144 872 108 q 743 242 757 181 q 671 144 729 181 q 486 108 613 108 q 327 132 385 108 q 247 198 269 156 q 224 296 224 240 l 224 875 m 563 1218 l 894 1176 l 894 1163 l 563 1204 l 563 1218 z "},"":{"ha":1486,"x_min":224,"x_max":1263,"o":"m 224 875 l 238 875 l 238 296 q 260 205 238 244 q 336 144 282 165 q 486 122 390 122 q 638 144 583 122 q 714 205 692 165 q 736 296 736 244 l 736 875 l 750 875 l 750 296 q 772 205 750 244 q 849 144 794 165 q 999 122 903 122 q 1150 144 1096 122 q 1226 205 1204 165 q 1249 296 1249 244 l 1249 875 l 1263 875 l 1263 296 q 1239 198 1263 240 q 1158 132 1215 156 q 999 108 1101 108 q 815 144 872 108 q 743 242 757 181 q 671 144 729 181 q 486 108 613 108 q 327 132 385 108 q 247 198 269 156 q 224 296 224 240 l 224 875 m 922 1218 l 922 1204 l 590 1163 l 590 1176 l 922 1218 z "},"":{"ha":1486,"x_min":224,"x_max":1263,"o":"m 224 875 l 238 875 l 238 296 q 260 205 238 244 q 336 144 282 165 q 486 122 390 122 q 638 144 583 122 q 714 205 692 165 q 736 296 736 244 l 736 875 l 750 875 l 750 296 q 772 205 750 244 q 849 144 794 165 q 999 122 903 122 q 1150 144 1096 122 q 1226 205 1204 165 q 1249 296 1249 244 l 1249 875 l 1263 875 l 1263 296 q 1239 198 1263 240 q 1158 132 1215 156 q 999 108 1101 108 q 815 144 872 108 q 743 242 757 181 q 671 144 729 181 q 486 108 613 108 q 327 132 385 108 q 247 198 269 156 q 224 296 224 240 l 224 875 m 550 1153 l 550 1218 l 564 1218 l 564 1153 l 550 1153 m 908 1153 l 908 1218 l 922 1218 l 922 1153 l 908 1153 z "},"":{"ha":1024,"x_min":235,"x_max":790,"o":"m 650 506 q 790 356 790 506 l 790 125 l 776 125 l 776 356 q 650 492 776 492 l 375 492 q 249 356 249 492 l 249 125 l 235 125 l 235 356 q 375 506 235 506 l 382 506 l 278 875 l 292 875 l 396 506 l 629 506 l 733 875 l 747 875 l 643 506 l 650 506 z "},"":{"ha":981,"x_min":213,"x_max":769,"o":"m 213 875 l 226 875 l 226 593 q 249 502 226 542 q 330 441 272 463 q 490 419 388 419 q 652 441 594 419 q 733 502 710 463 q 756 593 756 542 l 756 875 l 769 875 l 769 593 q 746 496 769 538 q 663 431 722 454 q 497 406 603 407 l 497 125 l 483 125 l 483 406 q 319 431 378 407 q 236 496 260 454 q 213 593 213 538 l 213 875 z "},"":{"ha":981,"x_min":213,"x_max":769,"o":"m 213 875 l 226 875 l 226 593 q 249 502 226 542 q 330 441 272 463 q 490 419 388 419 q 652 441 594 419 q 733 502 710 463 q 756 593 756 542 l 756 875 l 769 875 l 769 593 q 746 496 769 538 q 663 431 722 454 q 497 406 603 407 l 497 125 l 483 125 l 483 406 q 319 431 378 407 q 236 496 260 454 q 213 593 213 538 l 213 875 m 669 1218 l 669 1204 l 338 1163 l 338 1176 l 669 1218 z "},"":{"ha":981,"x_min":213,"x_max":769,"o":"m 213 875 l 226 875 l 226 593 q 249 502 226 542 q 330 441 272 463 q 490 419 388 419 q 652 441 594 419 q 733 502 710 463 q 756 593 756 542 l 756 875 l 769 875 l 769 593 q 746 496 769 538 q 663 431 722 454 q 497 406 603 407 l 497 125 l 483 125 l 483 406 q 319 431 378 407 q 236 496 260 454 q 213 593 213 538 l 213 875 m 654 1181 l 533 1219 q 513 1225 524 1222 q 489 1228 503 1228 q 465 1225 475 1228 q 444 1219 456 1222 l 324 1181 l 324 1196 l 439 1233 q 463 1239 451 1236 q 489 1242 474 1242 q 515 1239 504 1242 q 539 1233 526 1236 l 654 1196 l 654 1181 z "},"":{"ha":981,"x_min":213,"x_max":769,"o":"m 213 875 l 226 875 l 226 593 q 249 502 226 542 q 330 441 272 463 q 490 419 388 419 q 652 441 594 419 q 733 502 710 463 q 756 593 756 542 l 756 875 l 769 875 l 769 593 q 746 496 769 538 q 663 431 722 454 q 497 406 603 407 l 497 125 l 483 125 l 483 406 q 319 431 378 407 q 236 496 260 454 q 213 593 213 538 l 213 875 m 297 1153 l 297 1218 l 311 1218 l 311 1153 l 297 1153 m 656 1153 l 656 1218 l 669 1218 l 669 1153 l 656 1153 z "},"":{"ha":981,"x_min":213,"x_max":769,"o":"m 213 875 l 226 875 l 226 593 q 249 502 226 542 q 330 441 272 463 q 490 419 388 419 q 652 441 594 419 q 733 502 710 463 q 756 593 756 542 l 756 875 l 769 875 l 769 593 q 746 496 769 538 q 663 431 722 454 q 497 406 603 407 l 497 125 l 483 125 l 483 406 q 319 431 378 407 q 236 496 260 454 q 213 593 213 538 l 213 875 m 310 1218 l 642 1176 l 642 1163 l 310 1204 l 310 1218 z "},"":{"ha":1407,"x_min":236,"x_max":1215,"o":"m 775 124 l 775 376 l 250 376 l 250 124 l 236 124 l 236 688 q 256 786 236 744 q 326 851 275 828 q 468 875 376 875 l 1214 875 l 1214 861 l 789 861 l 789 511 l 1103 511 l 1103 497 l 789 497 l 789 138 l 1215 138 l 1215 124 l 775 124 m 250 688 l 250 390 l 775 390 l 775 861 l 468 861 q 334 840 382 861 q 268 779 286 818 q 250 688 250 740 z "},"ª":{"ha":722,"x_min":147,"x_max":575,"o":"m 561 375 l 549 375 l 549 542 l 169 542 l 169 375 l 157 375 l 157 583 q 174 678 157 636 l 236 839 q 260 885 247 867 q 307 904 274 904 l 404 904 q 451 885 436 904 q 476 838 465 865 l 544 678 q 561 583 561 636 l 561 375 m 169 554 l 549 554 l 549 583 q 544 632 549 610 q 532 674 539 654 l 465 833 q 442 876 454 860 q 403 892 431 892 l 310 892 q 269 876 281 892 q 247 835 258 860 l 185 674 q 169 583 169 632 l 169 554 m 575 90 l 147 90 l 147 101 l 575 101 l 575 90 z "},"º":{"ha":729,"x_min":147,"x_max":575,"o":"m 364 361 q 206 398 247 361 q 165 494 165 435 l 165 785 q 206 883 165 846 q 364 919 247 919 q 524 883 482 919 q 565 785 565 846 l 565 494 q 524 398 565 435 q 364 361 482 361 m 364 374 q 513 407 474 374 q 553 494 553 440 l 553 785 q 513 873 553 839 q 364 907 474 907 q 217 873 256 907 q 178 785 178 839 l 178 494 q 217 407 178 440 q 364 374 256 374 m 575 90 l 147 90 l 147 101 l 575 101 l 575 90 z "},"_":{"ha":1019,"x_min":222,"x_max":797,"o":"m 797 -7 l 222 -7 l 222 7 l 797 7 l 797 -7 z "},"-":{"ha":583,"x_min":181,"x_max":403,"o":"m 403 493 l 181 493 l 181 507 l 403 507 l 403 493 z "},"‐":{"ha":583,"x_min":181,"x_max":403,"o":"m 403 493 l 181 493 l 181 507 l 403 507 l 403 493 z "},"–":{"ha":1019,"x_min":222,"x_max":797,"o":"m 797 493 l 222 493 l 222 507 l 797 507 l 797 493 z "},"—":{"ha":1575,"x_min":222,"x_max":1353,"o":"m 1353 493 l 222 493 l 222 507 l 1353 507 l 1353 493 z "},"(":{"ha":596,"x_min":218,"x_max":408,"o":"m 408 15 q 268 48 318 15 q 218 172 218 81 l 218 826 q 267 951 218 918 q 408 983 317 983 l 408 969 q 278 941 325 969 q 232 826 232 913 l 232 172 q 279 58 232 88 q 408 29 326 29 l 408 15 z "},")":{"ha":596,"x_min":188,"x_max":378,"o":"m 188 15 l 188 29 q 317 58 269 29 q 364 172 364 88 l 364 826 q 317 941 364 913 q 188 969 271 969 l 188 983 q 328 951 279 983 q 378 826 378 918 l 378 172 q 328 48 378 81 q 188 15 278 15 z "},"[":{"ha":596,"x_min":218,"x_max":408,"o":"m 218 983 l 408 983 l 408 969 l 232 969 l 232 29 l 408 29 l 408 15 l 218 15 l 218 983 z "},"]":{"ha":596,"x_min":188,"x_max":378,"o":"m 378 983 l 378 15 l 188 15 l 188 29 l 364 29 l 364 969 l 188 969 l 188 983 l 378 983 z "},"{":{"ha":632,"x_min":179,"x_max":444,"o":"m 268 172 l 268 382 q 203 412 226 389 q 179 478 179 435 l 179 517 q 203 584 179 561 q 268 613 226 607 l 268 826 q 310 949 268 915 q 444 983 353 983 l 444 969 q 322 939 361 969 q 282 826 282 908 l 282 601 q 213 576 233 596 q 193 517 193 556 l 193 478 q 214 419 193 439 q 282 393 235 399 l 282 172 q 444 29 282 29 l 444 15 q 311 54 354 15 q 268 172 268 93 z "},"}":{"ha":632,"x_min":188,"x_max":453,"o":"m 188 15 l 188 29 q 350 172 350 29 l 350 393 q 419 419 399 399 q 439 478 439 439 l 439 517 q 419 576 439 556 q 350 601 399 596 l 350 826 q 310 939 350 908 q 188 969 271 969 l 188 983 q 322 949 279 983 q 364 826 364 915 l 364 613 q 429 584 406 607 q 453 517 453 561 l 453 478 q 429 412 453 435 q 364 382 406 389 l 364 172 q 321 54 364 93 q 188 15 278 15 z "},"#":{"ha":1042,"x_min":174,"x_max":868,"o":"m 818 306 l 701 306 l 675 125 l 661 125 l 688 306 l 300 306 l 274 125 l 260 125 l 286 306 l 174 306 l 174 319 l 288 319 l 340 688 l 224 688 l 224 701 l 342 701 l 367 875 l 381 875 l 356 701 l 743 701 l 768 875 l 782 875 l 757 701 l 868 701 l 868 688 l 756 688 l 703 319 l 818 319 l 818 306 m 301 319 l 689 319 l 742 688 l 354 688 l 301 319 z "},"%":{"ha":1432,"x_min":153,"x_max":1293,"o":"m 1293 186 q 1258 101 1293 126 q 1140 76 1222 76 q 1023 101 1060 76 q 986 186 986 126 l 986 389 q 1023 475 986 450 q 1140 500 1060 500 q 1258 475 1222 500 q 1293 389 1293 450 l 1293 186 m 460 607 q 424 522 460 547 q 307 497 389 497 q 190 522 226 497 q 153 607 153 547 l 153 810 q 190 896 153 871 q 307 921 226 921 q 424 896 389 921 q 460 810 460 871 l 460 607 m 1279 186 l 1279 389 q 1246 465 1279 443 q 1140 486 1213 486 q 1035 465 1069 486 q 1000 389 1000 443 l 1000 186 q 1035 111 1000 132 q 1140 90 1069 90 q 1246 111 1213 90 q 1279 186 1279 132 m 446 607 l 446 810 q 413 885 446 864 q 307 907 379 907 q 201 885 236 907 q 167 810 167 864 l 167 607 q 201 532 167 553 q 307 511 236 511 q 413 532 379 511 q 446 607 446 553 m 624 125 l 808 875 l 822 875 l 638 125 l 624 125 z "},"‰":{"ha":1968,"x_min":153,"x_max":1842,"o":"m 1290 186 q 1255 101 1290 126 q 1138 76 1219 76 q 1020 101 1057 76 q 983 186 983 126 l 983 389 q 1020 475 983 450 q 1138 500 1057 500 q 1255 475 1219 500 q 1290 389 1290 450 l 1290 186 m 1842 186 q 1806 101 1842 126 q 1689 76 1771 76 q 1572 101 1608 76 q 1535 186 1535 126 l 1535 389 q 1572 475 1535 450 q 1689 500 1608 500 q 1806 475 1771 500 q 1842 389 1842 450 l 1842 186 m 460 607 q 424 522 460 547 q 307 497 389 497 q 190 522 226 497 q 153 607 153 547 l 153 810 q 190 896 153 871 q 307 921 226 921 q 424 896 389 921 q 460 810 460 871 l 460 607 m 1276 186 l 1276 389 q 1243 465 1276 443 q 1138 486 1210 486 q 1032 465 1067 486 q 997 389 997 443 l 997 186 q 1032 111 997 132 q 1138 90 1067 90 q 1243 111 1210 90 q 1276 186 1276 132 m 1828 186 l 1828 389 q 1794 465 1828 443 q 1689 486 1761 486 q 1583 465 1618 486 q 1549 389 1549 443 l 1549 186 q 1583 111 1549 132 q 1689 90 1618 90 q 1794 111 1761 90 q 1828 186 1828 132 m 446 607 l 446 810 q 413 885 446 864 q 307 907 379 907 q 201 885 236 907 q 167 810 167 864 l 167 607 q 201 532 167 553 q 307 511 236 511 q 413 532 379 511 q 446 607 446 553 m 624 125 l 808 875 l 822 875 l 638 125 l 624 125 z "},"'":{"ha":494,"x_min":240,"x_max":254,"o":"m 254 875 l 254 604 l 240 604 l 240 875 l 254 875 z "},"\"":{"ha":897,"x_min":226,"x_max":671,"o":"m 240 875 l 240 604 l 226 604 l 226 875 l 240 875 m 671 875 l 671 604 l 657 604 l 657 875 l 671 875 z "},"‘":{"ha":533,"x_min":174,"x_max":360,"o":"m 174 625 l 174 790 q 207 885 174 854 q 296 917 240 917 l 360 917 l 360 903 l 296 903 q 217 875 246 903 q 188 790 188 847 l 188 639 l 360 639 l 360 625 l 174 625 z "},"’":{"ha":533,"x_min":174,"x_max":360,"o":"m 360 854 l 360 689 q 327 594 360 625 q 238 563 294 563 l 174 563 l 174 576 l 238 576 q 317 605 288 576 q 346 689 346 633 l 346 840 l 174 840 l 174 854 l 360 854 z "},"":{"ha":426,"x_min":144,"x_max":281,"o":"m 281 728 l 144 728 l 144 847 q 163 919 144 888 q 222 950 182 950 l 279 950 l 279 936 l 222 936 q 173 909 188 936 q 158 847 158 882 l 158 742 l 281 742 l 281 728 z "},"":{"ha":426,"x_min":146,"x_max":282,"o":"m 146 897 l 282 897 l 282 778 q 263 706 282 738 q 204 675 244 675 l 147 675 l 147 689 l 204 689 q 253 716 239 689 q 268 778 268 743 l 268 883 l 146 883 l 146 897 z "},"“":{"ha":950,"x_min":160,"x_max":790,"o":"m 160 625 l 160 790 q 193 885 160 854 q 282 917 226 917 l 346 917 l 346 903 l 282 903 q 203 875 232 903 q 174 790 174 847 l 174 639 l 346 639 l 346 625 l 160 625 m 604 625 l 604 790 q 638 885 604 854 q 726 917 671 917 l 790 917 l 790 903 l 726 903 q 647 875 676 903 q 618 790 618 847 l 618 639 l 790 639 l 790 625 l 604 625 z "},"”":{"ha":950,"x_min":160,"x_max":790,"o":"m 346 854 l 346 689 q 313 594 346 625 q 224 563 281 563 l 160 563 l 160 576 l 224 576 q 303 605 274 576 q 332 689 332 633 l 332 840 l 160 840 l 160 854 l 346 854 m 790 854 l 790 689 q 758 594 790 625 q 668 563 725 563 l 604 563 l 604 576 l 668 576 q 747 605 718 576 q 776 689 776 633 l 776 840 l 604 840 l 604 854 l 790 854 z "},"‚":{"ha":533,"x_min":174,"x_max":360,"o":"m 360 236 l 360 71 q 327 -24 360 7 q 238 -56 294 -56 l 174 -56 l 174 -42 l 238 -42 q 317 -13 288 -42 q 346 71 346 15 l 346 222 l 174 222 l 174 236 l 360 236 z "},"„":{"ha":950,"x_min":160,"x_max":790,"o":"m 346 236 l 346 71 q 313 -24 346 7 q 224 -56 281 -56 l 160 -56 l 160 -42 l 224 -42 q 303 -13 274 -42 q 332 71 332 15 l 332 222 l 160 222 l 160 236 l 346 236 m 790 236 l 790 71 q 758 -24 790 7 q 668 -56 725 -56 l 604 -56 l 604 -42 l 668 -42 q 747 -13 718 -42 q 776 71 776 15 l 776 222 l 604 222 l 604 236 l 790 236 z "},"‹":{"ha":782,"x_min":222,"x_max":556,"o":"m 556 303 l 556 289 l 296 342 q 240 369 258 349 q 222 431 222 389 l 222 539 q 240 601 222 581 q 294 628 258 621 l 556 681 l 556 667 l 297 614 q 251 592 267 608 q 236 539 236 575 l 236 431 q 252 379 236 396 q 299 356 268 363 l 556 303 z "},"›":{"ha":782,"x_min":236,"x_max":569,"o":"m 236 303 l 493 356 q 540 379 525 363 q 556 431 556 396 l 556 539 q 540 592 556 575 q 494 614 525 608 l 236 667 l 236 681 l 497 628 q 551 601 533 621 q 569 539 569 581 l 569 431 q 551 369 569 389 q 496 342 533 349 l 236 289 l 236 303 z "},"«":{"ha":1128,"x_min":196,"x_max":933,"o":"m 419 308 l 419 294 l 281 335 q 219 365 243 346 q 196 433 196 385 l 196 536 q 219 604 196 585 q 282 635 243 624 l 419 676 l 419 663 l 285 621 q 231 595 253 611 q 210 536 210 579 l 210 433 q 231 374 210 390 q 283 349 253 358 l 419 308 m 933 676 l 933 663 l 799 621 q 745 595 767 611 q 724 536 724 579 l 724 433 q 745 374 724 390 q 797 349 767 357 l 933 308 l 933 294 l 794 335 q 733 365 757 346 q 710 433 710 385 l 710 536 q 733 604 710 585 q 796 635 757 624 l 933 676 z "},"»":{"ha":1128,"x_min":194,"x_max":932,"o":"m 708 308 l 844 349 q 897 374 876 358 q 918 433 918 390 l 918 536 q 897 595 918 579 q 843 621 875 611 l 708 663 l 708 676 l 846 635 q 908 604 885 624 q 932 536 932 585 l 932 433 q 908 365 932 385 q 847 335 885 346 l 708 294 l 708 308 m 194 676 l 332 635 q 394 604 371 624 q 418 536 418 585 l 418 433 q 394 365 418 385 q 333 335 371 346 l 194 294 l 194 308 l 331 349 q 383 374 363 357 q 404 433 404 390 l 404 536 q 383 595 404 579 q 329 621 361 611 l 194 663 l 194 676 z "},"*":{"ha":997,"x_min":247,"x_max":756,"o":"m 253 683 l 494 604 l 494 875 l 508 875 l 508 604 l 750 683 l 756 669 l 517 592 l 664 381 l 653 372 l 501 588 l 350 372 l 339 381 l 486 592 l 247 669 l 253 683 z "},"†":{"ha":997,"x_min":194,"x_max":803,"o":"m 506 861 l 506 622 l 803 622 l 803 608 l 506 608 l 506 125 l 492 125 l 492 608 l 194 608 l 194 622 l 492 622 l 492 861 l 506 861 z "},"‡":{"ha":997,"x_min":194,"x_max":803,"o":"m 194 278 l 492 278 l 492 722 l 194 722 l 194 736 l 492 736 l 492 861 l 506 861 l 506 736 l 803 736 l 803 722 l 506 722 l 506 278 l 803 278 l 803 264 l 506 264 l 506 125 l 492 125 l 492 264 l 194 264 l 194 278 z "},".":{"ha":533,"x_min":260,"x_max":274,"o":"m 260 125 l 260 257 l 274 257 l 274 125 l 260 125 z "},",":{"ha":533,"x_min":174,"x_max":360,"o":"m 360 236 l 360 71 q 327 -24 360 7 q 238 -56 294 -56 l 174 -56 l 174 -42 l 238 -42 q 317 -13 288 -42 q 346 71 346 15 l 346 222 l 174 222 l 174 236 l 360 236 z "},":":{"ha":533,"x_min":260,"x_max":274,"o":"m 260 125 l 260 257 l 274 257 l 274 125 l 260 125 m 260 618 l 260 750 l 274 750 l 274 618 l 260 618 z "},";":{"ha":533,"x_min":174,"x_max":360,"o":"m 360 236 l 360 71 q 327 -24 360 7 q 238 -56 294 -56 l 174 -56 l 174 -42 l 238 -42 q 317 -13 288 -42 q 346 71 346 15 l 346 222 l 174 222 l 174 236 l 360 236 m 260 618 l 260 750 l 274 750 l 274 618 l 260 618 z "},"…":{"ha":1542,"x_min":260,"x_max":1282,"o":"m 260 125 l 260 257 l 274 257 l 274 125 l 260 125 m 764 125 l 764 257 l 778 257 l 778 125 l 764 125 m 1268 125 l 1268 257 l 1282 257 l 1282 125 l 1268 125 z "},"!":{"ha":589,"x_min":288,"x_max":301,"o":"m 301 875 l 301 489 l 288 489 l 288 875 l 301 875 m 288 111 l 288 171 l 301 171 l 301 111 l 288 111 z "},"¡":{"ha":588,"x_min":288,"x_max":301,"o":"m 288 125 l 288 511 l 301 511 l 301 125 l 288 125 m 301 889 l 301 829 l 288 829 l 288 889 l 301 889 z "},"?":{"ha":911,"x_min":188,"x_max":692,"o":"m 310 488 l 610 528 q 657 542 636 532 q 678 589 678 553 l 678 746 q 660 816 678 792 q 617 849 643 840 q 561 858 590 858 l 188 858 l 188 872 l 561 872 q 623 862 593 872 q 672 824 653 851 q 692 746 692 797 l 692 589 q 668 532 692 546 q 613 514 644 518 l 313 472 l 310 488 m 344 111 l 344 171 l 358 171 l 358 111 l 344 111 z "},"¿":{"ha":911,"x_min":222,"x_max":726,"o":"m 604 514 l 304 474 q 257 459 278 469 q 236 413 236 449 l 236 254 q 253 185 236 210 q 298 151 271 160 q 353 142 325 142 l 726 142 l 726 128 l 353 128 q 291 138 321 128 q 242 176 261 149 q 222 254 222 204 l 222 413 q 246 469 222 456 q 301 488 269 483 l 601 529 l 604 514 m 569 889 l 569 829 l 556 829 l 556 889 l 569 889 z "},"/":{"ha":482,"x_min":163,"x_max":321,"o":"m 321 1000 l 176 0 l 163 0 l 307 1000 l 321 1000 z "},"\\":{"ha":482,"x_min":163,"x_max":321,"o":"m 321 0 l 307 0 l 163 1000 l 176 1000 l 321 0 z "},"⁄":{"ha":440,"x_min":144,"x_max":297,"o":"m 144 125 l 283 875 l 297 875 l 158 125 l 144 125 z "},"∕":{"ha":440,"x_min":144,"x_max":297,"o":"m 144 125 l 283 875 l 297 875 l 158 125 l 144 125 z "},"|":{"ha":482,"x_min":235,"x_max":249,"o":"m 249 1000 l 249 0 l 235 0 l 235 1000 l 249 1000 z "},"¦":{"ha":482,"x_min":235,"x_max":249,"o":"m 249 319 l 249 0 l 235 0 l 235 319 l 249 319 m 249 1000 l 249 681 l 235 681 l 235 1000 l 249 1000 z "},"@":{"ha":1204,"x_min":146,"x_max":1058,"o":"m 532 222 q 436 255 464 222 q 408 363 408 288 l 408 586 q 412 640 408 614 q 431 686 415 665 q 485 719 447 707 q 590 732 522 732 l 790 732 l 790 236 l 896 236 q 1011 280 978 236 q 1044 419 1044 324 l 1044 789 q 1029 889 1044 842 q 969 973 1014 936 q 835 1031 924 1010 q 603 1053 747 1053 q 370 1031 458 1053 q 237 973 282 1010 q 176 889 192 936 q 160 789 160 842 l 160 208 q 175 109 160 157 q 235 24 190 61 q 369 -34 281 -12 q 603 -56 457 -56 l 844 -56 l 844 -69 l 603 -69 q 359 -47 450 -69 q 222 15 268 -24 q 161 104 176 54 q 146 208 146 154 l 146 789 q 161 893 146 843 q 222 982 176 943 q 360 1044 268 1021 q 603 1067 451 1067 q 847 1044 756 1067 q 983 982 938 1021 q 1043 893 1028 943 q 1058 789 1058 843 l 1058 419 q 1021 269 1058 315 q 896 222 983 222 l 532 222 m 776 236 l 776 718 l 590 718 q 473 699 508 718 q 430 651 438 681 q 422 586 422 621 l 422 363 q 447 266 422 296 q 532 236 471 236 l 776 236 z "},"&":{"ha":1064,"x_min":185,"x_max":901,"o":"m 901 425 l 811 425 l 811 251 q 777 156 811 188 q 682 125 743 125 l 347 125 q 185 275 185 125 l 185 360 q 226 473 185 429 q 354 517 268 517 l 364 517 q 292 651 292 544 l 292 729 q 331 841 292 807 q 456 875 371 875 l 629 875 l 629 861 l 456 861 q 342 829 378 861 q 306 726 306 797 l 306 651 q 433 518 306 518 l 447 518 l 447 504 l 354 504 q 237 463 275 504 q 199 360 199 422 l 199 275 q 236 172 199 204 q 356 139 274 139 l 682 139 q 767 167 738 139 q 797 251 797 196 l 797 439 l 901 439 l 901 425 z "},"":{"ha":878,"x_min":199,"x_max":686,"o":"m 507 125 l 507 0 l 493 0 l 493 125 l 381 125 q 264 142 303 125 q 212 192 225 160 q 199 264 199 224 l 199 353 q 211 433 199 397 q 260 489 224 468 q 368 511 296 510 q 303 565 317 529 q 290 639 290 600 l 290 728 q 303 801 290 768 q 356 855 317 835 q 472 875 396 875 l 493 875 l 493 1000 l 507 1000 l 507 875 l 686 875 l 686 861 l 472 861 q 368 844 404 861 q 318 799 332 828 q 304 733 304 769 l 304 639 q 313 577 304 606 q 356 531 322 549 q 458 513 389 513 l 574 513 l 574 499 l 379 499 q 275 481 311 499 q 226 431 239 463 q 213 360 213 400 l 213 264 q 226 198 213 226 q 275 154 239 169 q 381 139 311 139 l 686 139 l 686 125 l 507 125 z "},"§":{"ha":903,"x_min":210,"x_max":722,"o":"m 231 639 l 513 639 q 673 586 624 639 q 722 454 722 533 l 722 279 q 672 139 722 178 q 503 100 622 100 l 210 100 l 210 114 l 503 114 q 661 149 614 114 q 708 279 708 185 l 708 361 l 426 361 q 266 415 315 361 q 217 546 217 468 l 217 721 q 267 861 217 822 q 436 900 318 900 l 674 900 l 674 886 l 436 886 q 278 851 326 886 q 231 721 231 815 l 231 639 m 708 375 l 708 454 q 662 576 708 528 q 513 625 615 625 l 231 625 l 231 546 q 277 424 231 474 q 426 375 324 375 l 708 375 z "},"¶":{"ha":947,"x_min":171,"x_max":729,"o":"m 715 406 l 399 406 l 399 125 l 385 125 l 385 406 l 379 406 q 247 429 292 406 q 187 494 203 453 q 171 590 171 536 l 171 686 q 187 783 171 740 q 247 850 203 825 q 379 875 292 875 l 729 875 l 729 125 l 715 125 l 715 406 m 379 419 l 715 419 l 715 861 l 379 861 q 256 838 297 861 q 199 776 214 815 q 185 686 185 736 l 185 590 q 199 501 185 540 q 256 441 214 463 q 379 419 297 419 z "},"·":{"ha":506,"x_min":246,"x_max":260,"o":"m 246 431 l 246 563 l 260 563 l 260 431 l 246 431 z "},"∙":{"ha":506,"x_min":246,"x_max":260,"o":"m 246 431 l 246 563 l 260 563 l 260 431 l 246 431 z "},"•":{"ha":615,"x_min":188,"x_max":428,"o":"m 428 624 l 428 382 l 188 382 l 188 624 l 428 624 m 414 610 l 201 610 l 201 396 l 414 396 l 414 610 z "},"′":{"ha":494,"x_min":231,"x_max":265,"o":"m 231 604 l 250 875 l 265 875 l 246 604 l 231 604 z "},"″":{"ha":925,"x_min":231,"x_max":696,"o":"m 231 604 l 250 875 l 265 875 l 246 604 l 231 604 m 661 604 l 681 875 l 696 875 l 676 604 l 661 604 z "},"+":{"ha":1019,"x_min":222,"x_max":797,"o":"m 222 507 l 503 507 l 503 788 l 517 788 l 517 507 l 797 507 l 797 493 l 517 493 l 517 213 l 503 213 l 503 493 l 222 493 l 222 507 z "},"−":{"ha":1019,"x_min":222,"x_max":797,"o":"m 222 507 l 797 507 l 797 493 l 222 493 l 222 507 z "},"±":{"ha":1019,"x_min":222,"x_max":797,"o":"m 222 593 l 503 593 l 503 874 l 517 874 l 517 593 l 797 593 l 797 579 l 517 579 l 517 299 l 503 299 l 503 579 l 222 579 l 222 593 m 222 138 l 797 138 l 797 124 l 222 124 l 222 138 z "},"÷":{"ha":1019,"x_min":222,"x_max":797,"o":"m 222 507 l 797 507 l 797 493 l 222 493 l 222 507 m 503 163 l 503 225 l 517 225 l 517 163 l 503 163 m 503 775 l 503 838 l 517 838 l 517 775 l 503 775 z "},"×":{"ha":1019,"x_min":301,"x_max":718,"o":"m 311 708 l 510 510 l 708 708 l 718 699 l 519 500 l 718 301 l 708 292 l 510 490 l 311 292 l 301 301 l 500 500 l 301 699 l 311 708 z "},"=":{"ha":1019,"x_min":222,"x_max":797,"o":"m 222 299 l 797 299 l 797 285 l 222 285 l 222 299 m 222 715 l 797 715 l 797 701 l 222 701 l 222 715 z "},"<":{"ha":992,"x_min":244,"x_max":742,"o":"m 742 231 l 325 350 q 267 382 290 361 q 244 449 244 403 l 244 549 q 267 614 244 594 q 325 643 290 633 l 742 763 l 742 749 l 328 629 q 278 605 299 621 q 258 549 258 589 l 258 449 q 278 391 258 410 q 328 364 299 372 l 742 244 l 742 231 z "},">":{"ha":992,"x_min":250,"x_max":747,"o":"m 250 231 l 250 244 l 664 364 q 713 391 693 372 q 733 449 733 410 l 733 549 q 713 605 733 589 q 664 629 693 621 l 250 749 l 250 763 l 667 643 q 725 614 703 633 q 747 549 747 594 l 747 449 q 725 382 747 403 q 667 350 703 361 l 250 231 z "},"≤":{"ha":992,"x_min":244,"x_max":742,"o":"m 742 328 l 325 447 q 267 479 290 458 q 244 546 244 500 l 244 646 q 267 711 244 692 q 325 740 290 731 l 742 860 l 742 846 l 328 726 q 278 702 299 718 q 258 646 258 686 l 258 546 q 278 488 258 507 q 328 461 299 469 l 742 342 l 742 328 m 244 139 l 742 139 l 742 125 l 244 125 l 244 139 z "},"≥":{"ha":992,"x_min":250,"x_max":747,"o":"m 250 328 l 250 342 l 664 461 q 713 488 693 469 q 733 546 733 507 l 733 646 q 713 702 733 686 q 664 726 693 718 l 250 846 l 250 860 l 667 740 q 725 711 703 731 q 747 646 747 692 l 747 546 q 725 479 747 500 q 667 447 703 458 l 250 328 m 250 139 l 747 139 l 747 125 l 250 125 l 250 139 z "},"≈":{"ha":1019,"x_min":222,"x_max":797,"o":"m 222 728 q 286 740 256 738 q 356 741 317 743 q 456 729 396 739 l 511 722 l 543 718 q 556 716 550 717 q 568 714 563 715 q 658 701 621 706 q 726 699 694 697 q 797 713 758 701 l 797 697 q 728 685 760 688 q 662 688 697 683 q 578 699 626 692 q 559 701 568 700 q 540 704 550 703 l 508 708 l 453 715 q 355 727 393 725 q 287 726 317 729 q 222 713 257 722 l 222 728 m 222 325 q 286 338 256 335 q 356 338 317 340 q 456 326 396 336 l 511 319 l 543 315 q 556 313 550 314 q 568 311 563 313 q 658 299 621 303 q 726 297 694 294 q 797 310 758 299 l 797 294 q 728 283 760 285 q 662 285 697 281 q 578 296 626 289 q 559 299 568 297 q 540 301 550 300 l 508 306 l 453 313 q 355 324 393 322 q 287 323 317 326 q 222 310 257 319 l 222 325 z "},"≠":{"ha":1019,"x_min":222,"x_max":797,"o":"m 578 847 l 556 715 l 797 715 l 797 701 l 553 701 l 483 299 l 797 299 l 797 285 l 482 285 l 461 167 l 447 167 l 468 285 l 222 285 l 222 299 l 469 299 l 539 701 l 222 701 l 222 715 l 542 715 l 564 847 l 578 847 z "},"¬":{"ha":1019,"x_min":222,"x_max":797,"o":"m 783 549 l 222 549 l 222 563 l 797 563 l 797 213 l 783 213 l 783 549 z "},"^":{"ha":992,"x_min":208,"x_max":736,"o":"m 721 363 l 601 781 q 579 833 593 811 q 522 856 565 856 l 421 856 q 365 833 378 856 q 342 779 351 811 l 224 363 l 208 363 l 328 782 q 356 845 339 821 q 421 869 372 869 l 522 869 q 588 844 571 869 q 615 783 606 819 l 736 363 l 721 363 z "},"~":{"ha":1019,"x_min":222,"x_max":797,"o":"m 222 526 q 286 539 256 536 q 356 540 317 542 q 456 528 396 538 l 511 521 l 543 517 q 556 515 550 515 q 568 513 563 514 q 658 500 621 504 q 726 498 694 496 q 797 511 758 500 l 797 496 q 728 484 760 486 q 662 486 697 482 q 578 497 626 490 q 559 500 568 499 q 540 503 550 501 l 508 507 l 453 514 q 355 526 393 524 q 287 524 317 528 q 222 511 257 521 l 222 526 z "},"∂":{"ha":961,"x_min":215,"x_max":732,"o":"m 718 450 l 718 715 q 672 831 718 801 q 546 861 626 861 l 301 861 l 301 875 l 546 875 q 683 842 635 875 q 732 715 732 808 l 732 260 q 697 154 732 189 q 600 109 661 119 q 464 99 539 99 q 338 110 394 99 q 249 156 282 121 q 215 260 215 190 l 215 382 q 248 485 215 454 q 336 524 281 517 q 460 532 392 532 q 569 528 517 532 q 661 506 622 524 q 718 450 700 489 m 718 386 q 697 463 718 436 q 638 502 675 490 q 557 516 601 514 q 467 518 513 518 q 460 518 463 518 q 346 512 399 518 q 261 478 293 506 q 229 382 229 450 l 229 260 q 261 163 229 194 q 347 122 293 131 q 464 113 400 113 q 590 122 532 113 q 683 162 647 131 q 718 260 718 193 l 718 386 z "},"∏":{"ha":1054,"x_min":246,"x_max":807,"o":"m 807 875 l 807 125 l 793 125 l 793 861 l 260 861 l 260 125 l 246 125 l 246 875 l 807 875 z "},"∑":{"ha":903,"x_min":196,"x_max":714,"o":"m 689 868 l 278 868 q 247 855 260 868 q 235 825 235 842 l 235 804 q 243 767 235 782 q 269 736 251 753 l 503 508 q 528 463 528 483 l 528 454 q 522 433 528 442 q 503 408 517 424 l 247 128 q 221 99 232 110 q 210 69 210 89 l 210 49 q 250 15 210 15 l 714 15 l 714 1 l 250 1 q 196 49 196 1 l 196 69 q 207 105 196 92 q 236 136 218 118 l 492 417 q 508 437 503 429 q 514 454 514 444 l 514 463 q 509 481 514 474 q 494 497 504 488 l 261 725 q 230 762 239 746 q 221 804 221 778 l 221 825 q 237 865 221 849 q 278 882 253 882 l 689 882 l 689 868 z "},"Δ":{"ha":1014,"x_min":225,"x_max":783,"o":"m 225 268 q 230 342 225 308 q 240 400 235 375 l 322 743 q 354 831 338 806 q 397 863 371 857 q 467 868 424 868 l 538 868 q 607 863 581 868 q 650 831 633 857 q 682 743 667 806 l 769 396 q 779 341 775 374 q 783 268 783 308 l 783 125 l 225 125 l 225 268 m 239 268 l 239 139 l 769 139 l 769 268 q 765 340 769 308 q 756 393 761 371 l 668 740 q 639 821 654 797 q 600 849 624 844 q 538 854 576 854 l 467 854 q 404 849 428 854 q 365 821 381 844 q 336 740 350 797 l 254 397 q 244 340 249 372 q 239 268 239 308 z "},"∆":{"ha":1014,"x_min":225,"x_max":783,"o":"m 225 268 q 230 342 225 308 q 240 400 235 375 l 322 743 q 354 831 338 806 q 397 863 371 857 q 467 868 424 868 l 538 868 q 607 863 581 868 q 650 831 633 857 q 682 743 667 806 l 769 396 q 779 341 775 374 q 783 268 783 308 l 783 125 l 225 125 l 225 268 m 239 268 l 239 139 l 769 139 l 769 268 q 765 340 769 308 q 756 393 761 371 l 668 740 q 639 821 654 797 q 600 849 624 844 q 538 854 576 854 l 467 854 q 404 849 428 854 q 365 821 381 844 q 336 740 350 797 l 254 397 q 244 340 249 372 q 239 268 239 308 z "},"Ω":{"ha":1079,"x_min":175,"x_max":906,"o":"m 807 365 l 807 704 q 783 796 807 757 q 702 856 760 835 q 540 878 644 878 q 379 856 438 878 q 297 796 321 835 q 274 704 274 757 l 274 365 q 281 283 274 317 q 310 228 288 250 q 379 192 332 207 l 385 190 l 385 125 l 175 125 l 175 139 l 371 139 l 371 179 q 299 219 322 196 q 267 277 275 242 q 260 365 260 313 l 260 704 q 285 803 260 761 q 371 868 310 844 q 540 892 432 892 q 710 868 650 892 q 796 803 771 844 q 821 704 821 761 l 821 365 q 813 276 821 313 q 782 217 806 240 q 710 179 758 194 l 710 139 l 906 139 l 906 125 l 696 125 l 696 190 l 701 192 q 771 228 749 207 q 800 283 793 250 q 807 365 807 317 z "},"Ω":{"ha":1079,"x_min":175,"x_max":906,"o":"m 807 365 l 807 704 q 783 796 807 757 q 702 856 760 835 q 540 878 644 878 q 379 856 438 878 q 297 796 321 835 q 274 704 274 757 l 274 365 q 281 283 274 317 q 310 228 288 250 q 379 192 332 207 l 385 190 l 385 125 l 175 125 l 175 139 l 371 139 l 371 179 q 299 219 322 196 q 267 277 275 242 q 260 365 260 313 l 260 704 q 285 803 260 761 q 371 868 310 844 q 540 892 432 892 q 710 868 650 892 q 796 803 771 844 q 821 704 821 761 l 821 365 q 813 276 821 313 q 782 217 806 240 q 710 179 758 194 l 710 139 l 906 139 l 906 125 l 696 125 l 696 190 l 701 192 q 771 228 749 207 q 800 283 793 250 q 807 365 807 317 z "},"π":{"ha":1001,"x_min":236,"x_max":767,"o":"m 753 125 l 753 653 l 250 653 l 250 125 l 236 125 l 236 667 l 767 667 l 767 125 l 753 125 z "},"µ":{"ha":990,"x_min":236,"x_max":764,"o":"m 250 667 l 250 296 q 272 205 250 244 q 349 144 294 165 q 499 122 403 122 q 650 144 596 122 q 727 205 704 165 q 750 296 750 244 l 750 667 l 764 667 l 764 296 q 740 198 764 240 q 659 132 717 156 q 499 108 601 108 q 325 139 382 108 q 250 221 268 169 l 250 0 l 236 0 l 236 667 l 250 667 z "},"μ":{"ha":990,"x_min":236,"x_max":764,"o":"m 250 667 l 250 296 q 272 205 250 244 q 349 144 294 165 q 499 122 403 122 q 650 144 596 122 q 727 205 704 165 q 750 296 750 244 l 750 667 l 764 667 l 764 296 q 740 198 764 240 q 659 132 717 156 q 499 108 601 108 q 325 139 382 108 q 250 221 268 169 l 250 0 l 236 0 l 236 667 l 250 667 z "},"√":{"ha":1029,"x_min":165,"x_max":856,"o":"m 165 558 l 261 558 q 294 535 285 558 l 432 154 q 440 138 435 144 q 457 132 446 132 l 617 132 q 635 136 628 132 q 644 154 642 140 l 842 1000 l 856 1000 l 658 151 q 643 125 654 132 q 617 118 632 118 l 457 118 q 431 126 439 118 q 418 149 424 135 l 281 529 q 261 544 275 544 l 165 544 l 165 558 z "},"∞":{"ha":1219,"x_min":188,"x_max":1033,"o":"m 636 389 l 615 482 l 607 388 q 550 285 601 319 q 383 251 499 251 q 258 270 300 251 q 202 319 217 289 q 188 386 188 350 l 188 632 q 201 694 188 661 q 257 752 215 728 q 382 776 299 776 q 492 765 450 776 q 556 726 533 754 q 592 643 579 697 l 608 572 l 614 642 q 671 746 619 711 q 838 781 722 781 q 963 761 921 781 q 1019 710 1006 742 q 1033 643 1033 679 l 1033 393 q 1019 331 1033 365 q 963 272 1004 296 q 839 247 921 247 q 731 260 771 247 q 670 303 692 272 q 636 389 649 335 m 650 392 q 681 313 661 342 q 739 273 701 285 q 839 261 776 261 q 951 283 913 261 q 1005 335 990 304 q 1019 393 1019 367 l 1019 643 q 1006 705 1019 676 q 952 750 992 733 q 838 767 913 767 q 683 737 732 767 q 628 642 633 707 l 618 528 l 650 392 m 604 525 l 578 640 q 519 738 561 714 q 382 763 476 763 q 268 741 307 763 q 215 690 229 719 q 201 632 201 660 l 201 386 q 216 326 201 353 q 269 282 231 299 q 383 265 308 265 q 538 294 489 265 q 593 388 588 324 l 604 525 z "},"◊":{"ha":1015,"x_min":239,"x_max":775,"o":"m 424 865 l 590 865 q 640 832 625 865 l 763 563 q 773 535 771 544 q 775 510 775 525 l 775 490 q 773 465 775 475 q 763 436 771 456 l 642 168 q 590 135 626 135 l 422 135 q 372 168 388 135 l 251 436 q 241 465 243 456 q 239 490 239 475 l 239 510 q 241 535 239 525 q 251 563 243 544 l 372 832 q 424 865 388 865 m 424 851 q 401 846 408 851 q 386 826 393 840 l 265 557 q 255 531 257 540 q 253 510 253 522 l 253 490 q 255 467 253 476 q 265 442 257 458 l 386 174 q 422 149 397 149 l 590 149 q 614 154 606 149 q 628 174 622 160 l 749 442 q 759 467 757 458 q 761 490 761 476 l 761 510 q 759 531 761 522 q 749 557 757 540 l 626 826 q 590 851 615 851 l 424 851 z "},"∫":{"ha":658,"x_min":146,"x_max":499,"o":"m 499 983 q 381 951 426 983 q 336 829 336 919 l 336 189 q 320 71 336 111 q 263 17 304 31 q 146 3 221 3 l 146 17 q 255 30 217 17 q 308 80 293 43 q 322 189 322 117 l 322 829 q 370 961 322 925 q 499 997 418 997 l 499 983 z "},"$":{"ha":903,"x_min":196,"x_max":696,"o":"m 469 1000 l 469 875 l 672 875 l 672 861 l 364 861 q 271 829 306 861 q 236 749 236 797 l 236 635 q 256 567 236 586 q 307 542 275 549 l 600 482 q 669 447 642 474 q 696 346 696 419 l 696 265 q 654 165 696 204 q 542 125 613 125 l 469 125 l 469 0 l 456 0 l 456 125 l 196 125 l 196 139 l 542 139 q 644 174 607 139 q 682 265 682 210 l 682 346 q 659 435 682 411 q 597 468 636 460 l 304 528 q 245 556 268 535 q 222 635 222 578 l 222 749 q 261 840 222 804 q 364 875 300 875 l 456 875 l 456 1000 l 469 1000 z "},"¢":{"ha":872,"x_min":231,"x_max":685,"o":"m 511 944 l 511 817 l 685 817 l 685 803 l 453 803 q 326 787 371 803 q 263 734 281 771 q 244 635 244 697 l 244 361 q 262 265 244 301 q 324 212 279 228 q 453 196 369 196 l 685 196 l 685 182 l 511 182 l 511 56 l 497 56 l 497 182 l 453 182 q 315 200 363 182 q 249 258 267 218 q 231 361 231 297 l 231 635 q 249 741 231 701 q 316 799 268 781 q 453 817 364 817 l 497 817 l 497 944 l 511 944 z "},"£":{"ha":965,"x_min":153,"x_max":758,"o":"m 153 499 l 247 499 l 247 717 q 298 841 247 807 q 438 875 349 875 l 626 875 l 626 861 l 438 861 q 309 831 357 861 q 261 717 261 801 l 261 499 l 403 499 l 403 485 l 261 485 l 261 139 l 744 139 l 744 329 l 758 329 l 758 125 l 247 125 l 247 485 l 153 485 l 153 499 z "},"¤":{"ha":1140,"x_min":222,"x_max":925,"o":"m 817 403 q 812 345 817 372 q 793 296 807 318 l 925 161 l 914 153 l 786 283 q 711 233 761 251 q 574 214 661 214 q 435 232 486 214 q 361 283 385 250 l 233 153 l 222 161 l 353 294 q 334 344 339 317 q 329 403 329 372 l 329 600 q 335 660 329 632 q 354 713 340 689 l 225 844 l 236 853 l 363 724 q 438 773 388 756 q 574 790 488 790 q 710 772 660 790 q 783 722 760 754 l 911 853 l 922 844 l 792 711 q 811 660 806 689 q 817 600 817 632 l 817 403 m 803 403 l 803 600 q 785 694 803 654 q 717 755 767 733 q 574 776 668 776 q 429 755 479 776 q 361 694 379 733 q 343 600 343 654 l 343 403 q 361 310 343 350 q 429 249 379 271 q 574 228 479 228 q 717 249 668 228 q 785 310 767 271 q 803 403 803 350 z "},"¥":{"ha":976,"x_min":213,"x_max":769,"o":"m 257 304 l 483 304 l 483 429 l 458 429 q 407 441 428 429 q 363 483 386 453 l 243 643 q 219 703 225 675 q 213 778 213 731 l 213 875 l 226 875 l 226 778 q 232 707 226 733 q 254 651 238 681 l 374 492 q 413 454 394 465 q 458 443 432 443 l 524 443 q 569 454 550 443 q 608 492 588 465 l 728 651 q 750 707 744 681 q 756 778 756 733 l 756 875 l 769 875 l 769 778 q 764 703 769 731 q 739 643 758 675 l 619 483 q 576 441 597 453 q 524 429 554 429 l 497 429 l 497 304 l 721 304 l 721 290 l 497 290 l 497 125 l 483 125 l 483 290 l 257 290 l 257 304 z "},"€":{"ha":900,"x_min":153,"x_max":714,"o":"m 153 615 l 253 615 l 253 693 q 272 799 253 760 q 338 857 290 839 q 475 875 386 875 l 714 875 l 714 861 l 475 861 q 348 845 393 861 q 285 792 303 829 q 267 693 267 756 l 267 615 l 597 615 l 597 601 l 267 601 l 267 393 l 597 393 l 597 379 l 267 379 l 267 304 q 284 208 267 244 q 347 155 301 171 q 475 139 392 139 l 714 139 l 714 125 l 475 125 q 337 143 385 125 q 271 201 289 161 q 253 304 253 240 l 253 379 l 153 379 l 153 393 l 253 393 l 253 601 l 153 601 l 153 615 z "},"ƒ":{"ha":797,"x_min":188,"x_max":610,"o":"m 610 861 l 582 861 q 453 829 500 861 q 406 707 406 797 l 406 506 l 610 506 l 610 492 l 406 492 l 406 311 q 389 193 406 233 q 328 139 372 153 q 201 125 283 125 l 188 125 l 188 139 l 201 139 q 320 152 279 139 q 376 202 361 165 q 392 311 392 239 l 392 492 l 188 492 l 188 506 l 392 506 l 392 707 q 442 839 392 803 q 582 875 492 875 l 610 875 l 610 861 z "},"®":{"ha":778,"x_min":113,"x_max":665,"o":"m 665 483 q 643 390 665 429 q 562 329 621 350 q 389 308 503 308 q 217 329 276 308 q 135 390 157 350 q 113 483 113 429 l 113 817 q 135 913 113 874 q 217 974 157 953 q 389 994 276 994 q 562 974 503 994 q 643 913 621 953 q 665 817 665 874 l 665 483 m 651 483 l 651 817 q 629 907 651 871 q 551 962 607 943 q 389 981 494 981 q 228 962 285 981 q 149 907 171 943 q 126 817 126 871 l 126 483 q 149 396 126 432 q 228 341 171 360 q 389 322 285 322 q 551 341 494 322 q 629 396 607 360 q 651 483 651 432 m 503 501 l 503 581 q 444 632 503 632 l 288 632 l 288 501 l 274 501 l 274 818 l 383 818 q 454 797 432 818 q 476 742 476 775 l 476 701 q 471 669 476 683 q 451 646 465 654 q 517 581 517 643 l 517 501 l 503 501 m 288 646 l 383 646 q 446 660 429 646 q 463 701 463 675 l 463 742 q 383 804 463 804 l 288 804 l 288 646 z "},"™":{"ha":1254,"x_min":81,"x_max":1090,"o":"m 682 485 l 682 894 q 690 914 682 907 q 707 921 697 921 l 717 921 q 732 918 724 921 q 746 906 740 915 l 874 726 q 885 718 881 718 l 888 718 q 895 722 893 718 q 900 728 897 725 l 1026 906 q 1041 918 1033 915 q 1056 921 1049 921 l 1065 921 q 1090 894 1090 921 l 1090 485 l 1076 485 l 1076 894 q 1065 907 1076 907 l 1056 907 q 1038 897 1046 907 l 911 719 q 901 708 906 713 q 888 704 897 704 l 885 704 q 863 718 871 704 l 735 897 q 717 907 726 907 l 707 907 q 696 894 696 907 l 696 485 l 682 485 m 81 921 l 474 921 l 474 907 l 282 907 l 282 485 l 268 485 l 268 907 l 81 907 l 81 921 z "},"°":{"ha":671,"x_min":158,"x_max":514,"o":"m 514 628 q 476 543 514 568 q 336 518 439 518 q 197 543 235 518 q 158 628 158 568 l 158 807 q 197 893 158 868 q 336 918 235 918 q 476 893 439 918 q 514 807 514 868 l 514 628 m 500 628 l 500 807 q 465 883 500 861 q 336 904 429 904 q 208 883 244 904 q 172 807 172 861 l 172 628 q 208 553 172 574 q 336 532 244 532 q 465 553 429 532 q 500 628 500 574 z "},"©":{"ha":1204,"x_min":146,"x_max":1058,"o":"m 1058 208 q 1042 105 1058 154 q 977 17 1025 56 q 839 -44 929 -22 q 603 -67 749 -67 q 367 -46 457 -67 q 228 12 276 -25 q 163 99 181 49 q 146 208 146 150 l 146 789 q 160 893 146 843 q 219 982 174 943 q 356 1044 264 1021 q 603 1067 447 1067 q 850 1044 758 1067 q 986 982 942 1021 q 1044 893 1031 943 q 1058 789 1058 843 l 1058 208 m 1044 208 l 1044 789 q 1031 889 1044 842 q 972 973 1017 936 q 840 1031 928 1010 q 603 1053 751 1053 q 366 1031 454 1053 q 233 973 278 1010 q 174 889 189 936 q 160 789 160 842 l 160 208 q 178 103 160 151 q 243 21 196 56 q 378 -33 290 -14 q 603 -53 465 -53 q 827 -32 740 -53 q 961 26 914 -11 q 1026 110 1008 63 q 1044 208 1044 157 m 597 240 q 468 270 501 240 q 435 371 435 300 l 435 650 q 469 751 435 722 q 597 781 504 781 l 765 781 l 765 768 l 597 768 q 480 742 511 768 q 449 650 449 715 l 449 371 q 479 281 449 307 q 597 254 510 254 l 765 254 l 765 240 l 597 240 z "},"℗":{"ha":1204,"x_min":146,"x_max":1058,"o":"m 1058 208 q 1042 105 1058 154 q 977 17 1025 56 q 839 -44 929 -22 q 603 -67 749 -67 q 367 -46 457 -67 q 228 12 276 -25 q 163 99 181 49 q 146 208 146 150 l 146 789 q 160 893 146 843 q 219 982 174 943 q 356 1044 264 1021 q 603 1067 447 1067 q 850 1044 758 1067 q 986 982 942 1021 q 1044 893 1031 943 q 1058 789 1058 843 l 1058 208 m 1044 208 l 1044 789 q 1031 889 1044 842 q 972 973 1017 936 q 840 1031 928 1010 q 603 1053 751 1053 q 366 1031 454 1053 q 233 973 278 1010 q 174 889 189 936 q 160 789 160 842 l 160 208 q 178 103 160 151 q 243 21 196 56 q 378 -33 290 -14 q 603 -53 465 -53 q 827 -32 740 -53 q 961 26 914 -11 q 1026 110 1008 63 q 1044 208 1044 157 m 447 436 l 447 240 l 433 240 l 433 783 l 651 783 q 748 765 715 783 q 792 716 781 747 q 803 644 803 685 l 803 571 q 792 501 803 532 q 748 453 781 471 q 651 436 715 436 l 447 436 m 651 450 q 742 466 713 450 q 780 509 771 482 q 789 571 789 536 l 789 644 q 780 708 789 681 q 742 753 771 736 q 651 769 713 769 l 447 769 l 447 450 l 651 450 z "},"´":{"ha":694,"x_min":181,"x_max":513,"o":"m 513 1218 l 513 1204 l 181 1163 l 181 1176 l 513 1218 z "},"`":{"ha":694,"x_min":181,"x_max":513,"o":"m 181 1218 l 513 1176 l 513 1163 l 181 1204 l 181 1218 z "},"˝":{"ha":694,"x_min":126,"x_max":538,"o":"m 126 1181 l 161 1315 l 176 1315 l 142 1181 l 126 1181 m 488 1181 l 522 1315 l 538 1315 l 503 1181 l 488 1181 z "},"ˆ":{"ha":694,"x_min":181,"x_max":511,"o":"m 511 1181 l 390 1219 q 370 1225 381 1222 q 346 1228 360 1228 q 322 1225 332 1228 q 301 1219 313 1222 l 181 1181 l 181 1196 l 296 1233 q 319 1239 308 1236 q 346 1242 331 1242 q 372 1239 361 1242 q 396 1233 383 1236 l 511 1196 l 511 1181 z "},"ˇ":{"ha":694,"x_min":181,"x_max":511,"o":"m 181 1221 l 301 1182 q 322 1176 313 1179 q 346 1174 332 1174 q 370 1176 360 1174 q 390 1182 381 1179 l 511 1221 l 511 1206 l 396 1168 q 372 1163 383 1165 q 346 1160 361 1160 q 319 1163 331 1160 q 296 1168 308 1165 l 181 1206 l 181 1221 z "},"˘":{"ha":694,"x_min":151,"x_max":547,"o":"m 547 1260 l 547 1247 q 533 1195 547 1221 q 475 1153 518 1169 q 346 1136 432 1136 q 218 1153 260 1136 q 164 1195 176 1169 q 151 1247 151 1221 l 151 1260 l 165 1260 l 165 1247 q 179 1200 165 1222 q 232 1164 193 1178 q 346 1150 271 1150 q 462 1164 421 1150 q 518 1200 503 1178 q 533 1247 533 1222 l 533 1260 l 547 1260 z "},"˜":{"ha":694,"x_min":179,"x_max":510,"o":"m 510 1154 q 450 1154 482 1151 q 365 1165 418 1157 l 343 1168 l 304 1174 q 231 1182 258 1181 q 179 1179 203 1183 l 179 1194 q 231 1196 203 1197 q 307 1188 260 1194 l 346 1182 l 368 1179 q 451 1168 421 1171 q 510 1168 482 1165 l 510 1154 z "},"¯":{"ha":694,"x_min":181,"x_max":513,"o":"m 513 1176 l 513 1163 l 181 1163 l 181 1176 l 513 1176 z "},"¨":{"ha":694,"x_min":154,"x_max":526,"o":"m 154 1153 l 154 1218 l 168 1218 l 168 1153 l 154 1153 m 513 1153 l 513 1218 l 526 1218 l 526 1153 l 513 1153 z "},"˙":{"ha":694,"x_min":343,"x_max":357,"o":"m 343 1153 l 343 1235 l 357 1235 l 357 1153 l 343 1153 z "},"˚":{"ha":694,"x_min":151,"x_max":546,"o":"m 151 1354 q 166 1428 151 1396 q 223 1477 181 1460 q 347 1494 265 1494 q 473 1476 431 1494 q 531 1427 515 1458 q 546 1354 546 1396 l 546 1278 q 531 1205 546 1236 q 473 1156 515 1174 q 347 1139 431 1139 q 223 1156 265 1139 q 166 1205 181 1174 q 151 1278 151 1236 l 151 1354 m 165 1354 l 165 1278 q 180 1211 165 1239 q 234 1168 194 1183 q 347 1153 274 1153 q 462 1168 422 1153 q 517 1211 501 1183 q 532 1278 532 1239 l 532 1354 q 517 1421 532 1393 q 462 1465 501 1449 q 347 1481 422 1481 q 234 1465 274 1481 q 180 1422 194 1450 q 165 1354 165 1393 z "},"¸":{"ha":694,"x_min":311,"x_max":392,"o":"m 392 133 l 325 -50 l 311 -50 l 378 135 l 392 133 z "},"˛":{"ha":694,"x_min":288,"x_max":400,"o":"m 400 -161 l 367 -161 q 301 -135 315 -161 q 296 -57 288 -108 l 313 58 q 326 106 318 92 q 364 136 335 119 l 372 125 q 338 100 346 111 q 326 58 331 89 l 310 -60 q 314 -124 304 -101 q 367 -147 324 -147 l 400 -147 l 400 -161 z "},"̦":{"ha":694,"x_min":265,"x_max":429,"o":"m 429 -183 l 429 -318 q 400 -410 429 -382 q 314 -437 371 -437 l 265 -437 l 265 -424 l 314 -424 q 390 -399 364 -424 q 415 -318 415 -374 l 415 -197 l 265 -197 l 265 -183 l 429 -183 z "},"":{"ha":694,"x_min":265,"x_max":429,"o":"m 429 -183 l 429 -318 q 400 -410 429 -382 q 314 -437 371 -437 l 265 -437 l 265 -424 l 314 -424 q 390 -399 364 -424 q 415 -318 415 -374 l 415 -197 l 265 -197 l 265 -183 l 429 -183 z "},"":{"ha":694,"x_min":308,"x_max":349,"o":"m 308 746 l 333 875 l 349 875 l 324 746 l 308 746 z "},"←":{"ha":1389,"x_min":424,"x_max":1007,"o":"m 707 307 l 424 499 l 707 689 l 707 506 l 1007 506 l 1007 492 l 707 492 l 707 307 m 693 332 l 693 664 l 449 499 l 693 332 z "},"↑":{"ha":1389,"x_min":504,"x_max":886,"o":"m 886 479 l 701 479 l 701 179 l 688 179 l 688 479 l 504 479 l 694 763 l 886 479 m 861 493 l 694 738 l 529 493 l 861 493 z "},"→":{"ha":1389,"x_min":382,"x_max":965,"o":"m 682 307 l 682 492 l 382 492 l 382 506 l 682 506 l 682 689 l 965 499 l 682 307 m 696 332 l 940 499 l 696 664 l 696 332 z "},"↓":{"ha":1389,"x_min":504,"x_max":886,"o":"m 504 521 l 689 521 l 689 821 l 703 821 l 703 521 l 886 521 l 696 238 l 504 521 m 529 507 l 696 263 l 861 507 l 529 507 z "},"↖":{"ha":1389,"x_min":476,"x_max":894,"o":"m 542 382 l 476 718 l 811 651 l 682 522 l 894 310 l 885 300 l 672 513 l 542 382 m 550 410 l 783 643 l 494 700 l 550 410 z "},"↗":{"ha":1389,"x_min":496,"x_max":914,"o":"m 849 382 l 718 513 l 506 300 l 496 310 l 708 522 l 579 651 l 914 718 l 849 382 m 840 410 l 896 700 l 607 643 l 840 410 z "},"↘":{"ha":1389,"x_min":496,"x_max":914,"o":"m 849 618 l 914 282 l 579 349 l 708 478 l 496 690 l 506 700 l 718 488 l 849 618 m 840 590 l 607 357 l 896 300 l 840 590 z "},"↙":{"ha":1389,"x_min":489,"x_max":907,"o":"m 554 621 l 685 490 l 897 703 l 907 693 l 694 481 l 824 351 l 489 285 l 554 621 m 563 593 l 507 303 l 796 360 l 563 593 z "},"↪":{"ha":1389,"x_min":357,"x_max":1008,"o":"m 819 307 l 544 307 q 408 353 460 307 q 357 479 357 399 l 357 767 q 408 898 357 849 q 556 947 460 947 l 938 947 l 938 933 l 556 933 q 419 888 468 933 q 371 767 371 842 l 371 479 q 418 363 371 404 q 544 321 465 321 l 819 321 l 819 442 l 1008 315 l 819 189 l 819 307 m 833 214 l 983 315 l 833 417 l 833 214 z "},"↫":{"ha":1389,"x_min":410,"x_max":1061,"o":"m 599 189 l 410 315 l 599 442 l 599 321 l 874 321 q 1000 363 953 321 q 1047 479 1047 404 l 1047 767 q 999 888 1047 842 q 863 933 950 933 l 481 933 l 481 947 l 863 947 q 1010 898 958 947 q 1061 767 1061 849 l 1061 479 q 1010 353 1061 399 q 874 307 960 307 l 599 307 l 599 189 m 585 214 l 585 417 l 435 315 l 585 214 z "},"↰":{"ha":1389,"x_min":410,"x_max":1021,"o":"m 599 585 l 599 464 l 410 590 l 599 717 l 599 599 l 833 599 q 970 553 919 599 q 1021 426 1021 508 l 1021 125 l 1007 125 l 1007 426 q 960 543 1007 501 q 833 585 913 585 l 599 585 m 585 692 l 435 590 l 585 489 l 585 692 z "},"↱":{"ha":1389,"x_min":371,"x_max":982,"o":"m 793 717 l 982 590 l 793 464 l 793 585 l 558 585 q 432 543 479 585 q 385 426 385 501 l 385 125 l 371 125 l 371 426 q 422 553 371 508 q 558 599 474 599 l 793 599 l 793 717 m 807 692 l 807 489 l 957 590 l 807 692 z "},"↲":{"ha":1389,"x_min":410,"x_max":1021,"o":"m 599 256 l 410 382 l 599 508 l 599 388 l 833 388 q 960 429 913 388 q 1007 546 1007 471 l 1007 847 l 1021 847 l 1021 546 q 970 419 1021 465 q 833 374 919 374 l 599 374 l 599 256 m 585 281 l 585 483 l 435 382 l 585 281 z "},"↳":{"ha":1389,"x_min":343,"x_max":954,"o":"m 765 363 l 531 363 q 394 408 446 363 q 343 535 343 454 l 343 836 l 357 836 l 357 535 q 404 418 357 460 q 531 376 451 376 l 765 376 l 765 497 l 954 371 l 765 244 l 765 363 m 779 269 l 929 371 l 779 472 l 779 269 z "},"☚":{"ha":1389,"x_min":0,"x_max":0,"o":""},"☛":{"ha":1389,"x_min":0,"x_max":0,"o":""},"":{"ha":1389,"x_min":0,"x_max":0,"o":""},"":{"ha":1389,"x_min":0,"x_max":0,"o":""},"":{"ha":1389,"x_min":0,"x_max":0,"o":""},"":{"ha":1389,"x_min":0,"x_max":0,"o":""},"":{"ha":1389,"x_min":0,"x_max":0,"o":""},"":{"ha":1389,"x_min":0,"x_max":0,"o":""},"☜":{"ha":1389,"x_min":0,"x_max":0,"o":""},"☝":{"ha":1389,"x_min":0,"x_max":0,"o":""},"☞":{"ha":1389,"x_min":0,"x_max":0,"o":""},"☟":{"ha":1389,"x_min":0,"x_max":0,"o":""},"":{"ha":1389,"x_min":0,"x_max":0,"o":""},"":{"ha":1389,"x_min":0,"x_max":0,"o":""},"":{"ha":1389,"x_min":0,"x_max":0,"o":""},"":{"ha":1389,"x_min":0,"x_max":0,"o":""},"":{"ha":1389,"x_min":0,"x_max":0,"o":""},"":{"ha":1389,"x_min":0,"x_max":0,"o":""},"":{"ha":1389,"x_min":0,"x_max":0,"o":""},"":{"ha":1389,"x_min":0,"x_max":0,"o":""},"":{"ha":1389,"x_min":0,"x_max":0,"o":""},"":{"ha":1389,"x_min":0,"x_max":0,"o":""},"":{"ha":1389,"x_min":0,"x_max":0,"o":""},"":{"ha":1389,"x_min":0,"x_max":0,"o":""},"":{"ha":1389,"x_min":0,"x_max":0,"o":""},"":{"ha":1389,"x_min":0,"x_max":0,"o":""},"":{"ha":1389,"x_min":0,"x_max":0,"o":""},"":{"ha":1389,"x_min":0,"x_max":0,"o":""},"":{"ha":1389,"x_min":0,"x_max":0,"o":""},"":{"ha":1389,"x_min":0,"x_max":0,"o":""},"":{"ha":1389,"x_min":0,"x_max":0,"o":""},"":{"ha":1389,"x_min":0,"x_max":0,"o":""}," ":{"ha":1389,"x_min":0,"x_max":0,"o":""}," ":{"ha":1389,"x_min":0,"x_max":0,"o":""}," ":{"ha":694,"x_min":0,"x_max":0,"o":""}," ":{"ha":694,"x_min":0,"x_max":0,"o":""},"█":{"ha":1389,"x_min":-56,"x_max":1444,"o":"m -56 -222 l -56 -208 l 1444 -208 l 1444 -222 l -56 -222 m -56 1208 l -56 1222 l 1444 1222 l 1444 1208 l -56 1208 z "},"":{"ha":1389,"x_min":-28,"x_max":1417,"o":"m -14 -250 l -28 -250 l -28 1250 l -14 1250 l -14 -250 m 1417 -250 l 1403 -250 l 1403 1250 l 1417 1250 l 1417 -250 z "},"◖":{"ha":758,"x_min":28,"x_max":814,"o":"m 814 1208 l 750 1208 q 465 1156 594 1208 q 240 1010 335 1104 q 94 785 146 915 q 42 500 42 656 q 94 215 42 344 q 240 -10 146 85 q 465 -156 335 -104 q 750 -208 594 -208 l 814 -208 l 814 -222 l 750 -222 q 459 -169 592 -222 q 230 -20 326 -117 q 81 209 133 76 q 28 500 28 342 q 81 791 28 658 q 230 1020 133 924 q 459 1169 326 1117 q 750 1222 592 1222 l 814 1222 l 814 1208 z "},"◗":{"ha":758,"x_min":-56,"x_max":731,"o":"m -56 1208 l -56 1222 l 8 1222 q 299 1169 167 1222 q 528 1020 432 1117 q 678 791 625 924 q 731 500 731 658 q 678 209 731 342 q 528 -20 625 76 q 299 -169 432 -117 q 8 -222 167 -222 l -56 -222 l -56 -208 l 8 -208 q 294 -156 164 -208 q 518 -10 424 -104 q 665 215 613 85 q 717 500 717 344 q 665 785 717 656 q 518 1010 613 915 q 294 1156 424 1104 q 8 1208 164 1208 l -56 1208 z "},"":{"ha":1854,"x_min":206,"x_max":1650,"o":"m 1636 93 l 1636 157 q 1584 442 1636 313 q 1438 667 1532 572 q 1213 813 1343 761 q 928 865 1083 865 q 642 813 772 865 q 418 667 513 761 q 272 442 324 572 q 219 157 219 313 l 219 93 l 206 93 l 206 157 q 258 448 206 315 q 408 677 311 581 q 637 826 504 774 q 928 879 769 879 q 1219 826 1086 879 q 1448 677 1351 774 q 1597 448 1544 581 q 1650 157 1650 315 l 1650 93 l 1636 93 z "},"":{"ha":1854,"x_min":206,"x_max":1650,"o":"m 1636 907 l 1650 907 l 1650 843 q 1597 552 1650 685 q 1448 323 1544 419 q 1219 174 1351 226 q 928 121 1086 121 q 637 174 769 121 q 408 323 504 226 q 258 552 311 419 q 206 843 206 685 l 206 907 l 219 907 l 219 843 q 272 558 219 688 q 418 333 324 428 q 642 187 513 239 q 928 135 772 135 q 1213 187 1083 135 q 1438 333 1343 239 q 1584 558 1532 428 q 1636 843 1636 688 l 1636 907 z "},"":{"ha":778,"x_min":97,"x_max":833,"o":"m 694 -208 l 833 -208 l 833 -222 l 708 -222 l 708 -325 q 686 -347 708 -347 l 578 -347 q 556 -325 556 -347 l 556 -264 l 528 -264 q 444 -241 482 -264 q 384 -181 407 -218 q 361 -97 361 -143 l 361 -74 l 338 -69 q 209 4 263 -57 q 126 187 156 65 q 97 500 97 308 q 126 814 97 693 q 209 996 156 935 q 338 1069 263 1057 l 361 1074 l 361 1097 q 384 1181 361 1143 q 444 1242 407 1219 q 528 1264 482 1264 l 556 1264 l 556 1325 q 578 1347 556 1347 l 686 1347 q 708 1325 708 1347 l 708 1222 l 833 1222 l 833 1208 l 694 1208 l 694 1325 q 686 1333 694 1333 l 578 1333 q 569 1325 569 1333 l 569 1250 l 528 1250 q 451 1229 486 1250 q 396 1174 417 1208 q 375 1097 375 1139 l 375 1063 l 340 1056 q 171 907 231 1038 q 111 500 111 776 q 171 94 111 224 q 340 -56 231 -36 l 369 -61 l 375 -62 l 375 -97 q 396 -174 375 -139 q 451 -229 417 -208 q 528 -250 486 -250 l 569 -250 l 569 -325 q 578 -333 569 -333 l 686 -333 q 694 -325 694 -333 l 694 -208 z "},"":{"ha":778,"x_min":-56,"x_max":681,"o":"m 83 -208 l 83 -325 q 92 -333 83 -333 l 200 -333 q 208 -325 208 -333 l 208 -250 l 250 -250 q 326 -229 292 -250 q 382 -174 361 -208 q 403 -97 403 -139 l 403 -62 l 408 -61 l 438 -56 q 608 94 549 -36 q 667 500 667 224 q 608 907 667 776 q 438 1056 549 1038 l 403 1063 l 403 1097 q 382 1174 403 1139 q 326 1229 361 1208 q 250 1250 292 1250 l 208 1250 l 208 1325 q 200 1333 208 1333 l 92 1333 q 83 1325 83 1333 l 83 1208 l -56 1208 l -56 1222 l 69 1222 l 69 1325 q 92 1347 69 1347 l 200 1347 q 222 1325 222 1347 l 222 1264 l 250 1264 q 334 1242 296 1264 q 394 1181 372 1219 q 417 1097 417 1143 l 417 1074 l 440 1069 q 569 996 515 1057 q 652 814 624 935 q 681 500 681 693 q 652 187 681 308 q 569 4 624 65 q 440 -69 515 -57 l 417 -74 l 417 -97 q 394 -181 417 -143 q 334 -241 372 -218 q 250 -264 296 -264 l 222 -264 l 222 -325 q 200 -347 222 -347 l 92 -347 q 69 -325 69 -347 l 69 -222 l -56 -222 l -56 -208 l 83 -208 z "},"":{"ha":1778,"x_min":42,"x_max":1736,"o":"m 1597 208 l 1714 208 q 1722 217 1722 208 l 1722 325 q 1714 333 1722 333 l 1639 333 l 1639 375 q 1618 451 1639 417 q 1563 507 1597 486 q 1486 528 1528 528 l 1451 528 l 1450 533 l 1444 563 q 1296 733 1426 674 q 889 792 1165 792 q 483 733 613 792 q 333 563 353 674 l 326 528 l 292 528 q 215 507 250 528 q 160 451 181 486 q 139 375 139 417 l 139 333 l 64 333 q 56 325 56 333 l 56 217 q 64 208 56 208 l 181 208 l 181 69 l 167 69 l 167 194 l 64 194 q 42 217 42 194 l 42 325 q 64 347 42 347 l 125 347 l 125 375 q 148 459 125 421 q 208 519 171 497 q 292 542 246 542 l 315 542 l 319 565 q 393 694 332 640 q 575 777 454 749 q 889 806 696 806 q 1203 777 1082 806 q 1385 694 1324 749 q 1458 565 1446 640 l 1463 542 l 1486 542 q 1570 519 1532 542 q 1631 459 1608 497 q 1653 375 1653 421 l 1653 347 l 1714 347 q 1736 325 1736 347 l 1736 217 q 1714 194 1736 194 l 1611 194 l 1611 69 l 1597 69 l 1597 208 z "},"":{"ha":1778,"x_min":42,"x_max":1736,"o":"m 181 792 l 64 792 q 56 783 56 792 l 56 675 q 64 667 56 667 l 139 667 l 139 625 q 160 549 139 583 q 215 493 181 514 q 292 472 250 472 l 326 472 l 328 467 l 333 438 q 483 268 353 328 q 889 208 613 208 q 1296 268 1165 208 q 1444 438 1426 328 l 1451 472 l 1486 472 q 1563 493 1528 472 q 1618 549 1597 514 q 1639 625 1639 583 l 1639 667 l 1714 667 q 1722 675 1722 667 l 1722 783 q 1714 792 1722 792 l 1597 792 l 1597 931 l 1611 931 l 1611 806 l 1714 806 q 1736 783 1736 806 l 1736 675 q 1714 653 1736 653 l 1653 653 l 1653 625 q 1631 542 1653 579 q 1570 481 1608 504 q 1486 458 1532 458 l 1463 458 l 1458 435 q 1385 306 1446 360 q 1203 224 1324 253 q 889 194 1082 194 q 575 224 696 194 q 393 306 454 253 q 319 435 332 360 l 315 458 l 292 458 q 208 481 246 458 q 148 542 171 504 q 125 625 125 579 l 125 653 l 64 653 q 42 675 42 653 l 42 783 q 64 806 42 806 l 167 806 l 167 931 l 181 931 l 181 792 z "},"":{"ha":486,"x_min":125,"x_max":542,"o":"m 542 1208 l 425 1208 q 417 1200 417 1208 l 417 1125 l 375 1125 q 299 1104 333 1125 q 243 1049 264 1083 q 222 972 222 1014 l 222 931 l 147 931 q 139 922 139 931 l 139 78 q 147 69 139 69 l 222 69 l 222 28 q 243 -49 222 -14 q 299 -104 264 -83 q 375 -125 333 -125 l 417 -125 l 417 -200 q 425 -208 417 -208 l 542 -208 l 542 -222 l 425 -222 q 403 -200 403 -222 l 403 -139 l 375 -139 q 292 -116 329 -139 q 231 -56 254 -93 q 208 28 208 -18 l 208 56 l 147 56 q 125 78 125 56 l 125 922 q 147 944 125 944 l 208 944 l 208 972 q 231 1056 208 1018 q 292 1117 254 1094 q 375 1139 329 1139 l 403 1139 l 403 1200 q 425 1222 403 1222 l 542 1222 l 542 1208 z "},"":{"ha":486,"x_min":-56,"x_max":361,"o":"m -56 1208 l -56 1222 l 61 1222 q 83 1200 83 1222 l 83 1139 l 111 1139 q 194 1117 157 1139 q 255 1056 232 1094 q 278 972 278 1018 l 278 944 l 339 944 q 361 922 361 944 l 361 78 q 339 56 361 56 l 278 56 l 278 28 q 255 -56 278 -18 q 194 -116 232 -93 q 111 -139 157 -139 l 83 -139 l 83 -200 q 61 -222 83 -222 l -56 -222 l -56 -208 l 61 -208 q 69 -200 69 -208 l 69 -125 l 111 -125 q 188 -104 153 -125 q 243 -49 222 -83 q 264 28 264 -14 l 264 69 l 339 69 q 347 78 347 69 l 347 922 q 339 931 347 931 l 264 931 l 264 972 q 243 1049 264 1014 q 188 1104 222 1083 q 111 1125 153 1125 l 69 1125 l 69 1200 q 61 1208 69 1208 l -56 1208 z "},"":{"ha":1778,"x_min":167,"x_max":1611,"o":"m 1611 278 l 1597 278 l 1597 394 q 1589 403 1597 403 l 1514 403 l 1514 444 q 1493 521 1514 486 q 1438 576 1472 556 q 1361 597 1403 597 l 1319 597 l 1319 672 q 1311 681 1319 681 l 467 681 q 458 672 458 681 l 458 597 l 417 597 q 340 576 375 597 q 285 521 306 556 q 264 444 264 486 l 264 403 l 189 403 q 181 394 181 403 l 181 278 l 167 278 l 167 394 q 189 417 167 417 l 250 417 l 250 444 q 273 528 250 490 q 333 589 296 567 q 417 611 371 611 l 444 611 l 444 672 q 467 694 444 694 l 1311 694 q 1333 672 1333 694 l 1333 611 l 1361 611 q 1445 589 1407 611 q 1506 528 1483 567 q 1528 444 1528 490 l 1528 417 l 1589 417 q 1611 394 1611 417 l 1611 278 z "},"":{"ha":1778,"x_min":167,"x_max":1611,"o":"m 167 722 l 181 722 l 181 606 q 189 597 181 597 l 264 597 l 264 556 q 285 479 264 514 q 340 424 306 444 q 417 403 375 403 l 458 403 l 458 328 q 467 319 458 319 l 1311 319 q 1319 328 1319 319 l 1319 403 l 1361 403 q 1438 424 1403 403 q 1493 479 1472 444 q 1514 556 1514 514 l 1514 597 l 1589 597 q 1597 606 1597 597 l 1597 722 l 1611 722 l 1611 606 q 1589 583 1611 583 l 1528 583 l 1528 556 q 1506 472 1528 510 q 1445 412 1483 435 q 1361 389 1407 389 l 1333 389 l 1333 328 q 1311 306 1333 306 l 467 306 q 444 328 444 306 l 444 389 l 417 389 q 333 412 371 389 q 273 472 296 435 q 250 556 250 510 l 250 583 l 189 583 q 167 606 167 583 l 167 722 z "},"":{"ha":486,"x_min":67,"x_max":542,"o":"m 322 140 l 174 -235 q 185 -237 171 -239 l 383 -214 q 433 -209 419 -210 q 469 -208 447 -208 l 542 -208 l 542 -222 l 469 -222 q 434 -223 447 -222 q 386 -228 421 -224 l 175 -253 q 160 -248 165 -254 q 160 -229 154 -242 l 308 147 q 313 183 315 163 q 299 218 311 204 l 81 481 q 81 519 67 500 l 299 782 q 313 817 311 797 q 308 853 315 838 l 163 1224 q 162 1248 157 1243 q 182 1251 167 1253 l 386 1228 q 434 1223 421 1224 q 469 1222 447 1222 l 542 1222 l 542 1208 l 469 1208 q 433 1209 447 1208 q 383 1214 419 1210 l 179 1238 q 176 1229 169 1239 l 322 858 q 327 815 329 839 q 310 774 325 790 l 92 511 q 88 500 88 507 q 92 489 88 493 l 310 226 q 327 185 325 210 q 322 140 329 160 z "},"":{"ha":486,"x_min":-56,"x_max":421,"o":"m 164 140 q 160 185 157 160 q 176 226 163 210 l 394 489 q 394 511 406 500 l 176 774 q 160 815 163 790 q 164 858 157 839 l 310 1229 q 307 1238 317 1239 l 103 1214 q 53 1209 67 1210 q 17 1208 39 1208 l -56 1208 l -56 1222 l 17 1222 q 52 1223 39 1222 q 100 1228 65 1224 l 304 1251 q 325 1248 319 1253 q 324 1224 331 1243 l 178 853 q 173 817 171 838 q 188 782 175 797 l 406 519 q 406 481 421 500 l 188 218 q 174 183 175 204 q 178 147 172 163 l 326 -229 q 327 -248 332 -242 q 311 -253 322 -254 l 100 -228 q 52 -223 65 -224 q 17 -222 39 -222 l -56 -222 l -56 -208 l 17 -208 q 53 -209 39 -208 q 103 -214 67 -210 l 301 -237 q 313 -235 315 -239 l 164 140 z "},"":{"ha":1778,"x_min":136,"x_max":1643,"o":"m 531 472 l 156 621 q 153 610 151 624 l 176 411 q 181 361 181 375 q 182 325 182 347 l 182 253 l 168 253 l 168 325 q 167 360 168 347 q 163 408 167 374 l 138 619 q 142 635 136 631 q 161 635 149 640 l 538 486 q 574 482 553 481 q 608 496 594 483 l 871 714 q 910 714 890 729 l 1172 496 q 1208 481 1188 483 q 1243 486 1228 479 l 1614 632 q 1638 633 1633 639 q 1642 613 1643 628 l 1618 408 q 1613 360 1614 374 q 1613 325 1613 347 l 1613 253 l 1599 253 l 1599 325 q 1599 361 1599 347 q 1604 411 1600 375 l 1628 615 q 1619 618 1631 625 l 1249 472 q 1205 468 1229 465 q 1164 485 1181 471 l 901 703 q 879 703 890 714 l 617 485 q 575 468 600 471 q 531 472 550 465 z "},"":{"ha":1778,"x_min":135,"x_max":1642,"o":"m 529 528 q 574 533 549 535 q 615 515 599 531 l 878 297 q 889 293 882 293 q 900 297 896 293 l 1163 515 q 1203 533 1179 531 q 1247 528 1228 535 l 1618 382 q 1626 385 1629 375 l 1603 589 q 1598 639 1599 625 q 1597 675 1597 653 l 1597 747 l 1611 747 l 1611 675 q 1612 640 1611 653 q 1617 592 1613 626 l 1640 388 q 1637 367 1642 372 q 1613 368 1632 363 l 1242 514 q 1206 519 1226 521 q 1171 504 1186 517 l 908 286 q 869 286 889 272 l 607 504 q 572 519 593 517 q 536 514 551 521 l 160 365 q 141 365 147 360 q 136 381 135 371 l 161 592 q 166 640 165 626 q 167 675 167 653 l 167 747 l 181 747 l 181 675 q 180 639 181 653 q 175 589 179 625 l 151 390 q 154 379 150 376 l 529 528 z "},"":{"ha":486,"x_min":167,"x_max":542,"o":"m 542 1208 l 228 1208 q 181 1161 181 1208 l 181 -161 q 228 -208 181 -208 l 542 -208 l 542 -222 l 228 -222 q 167 -161 167 -222 l 167 1161 q 228 1222 167 1222 l 542 1222 l 542 1208 z "},"":{"ha":486,"x_min":-56,"x_max":319,"o":"m -56 1208 l -56 1222 l 258 1222 q 319 1161 319 1222 l 319 -161 q 258 -222 319 -222 l -56 -222 l -56 -208 l 258 -208 q 306 -161 306 -208 l 306 1161 q 258 1208 306 1208 l -56 1208 z "},"":{"ha":1778,"x_min":167,"x_max":1611,"o":"m 181 299 l 167 299 l 167 613 q 228 674 167 674 l 1550 674 q 1611 613 1611 674 l 1611 299 l 1597 299 l 1597 613 q 1550 660 1597 660 l 228 660 q 181 613 181 660 l 181 299 z "},"":{"ha":1778,"x_min":167,"x_max":1611,"o":"m 181 701 l 181 388 q 228 340 181 340 l 1550 340 q 1597 388 1597 340 l 1597 701 l 1611 701 l 1611 388 q 1550 326 1611 326 l 228 326 q 167 388 167 326 l 167 701 l 181 701 z "},"":{"ha":486,"x_min":125,"x_max":542,"o":"m 542 1208 l 451 1208 q 318 1172 376 1208 q 219 1054 260 1136 q 159 836 179 972 q 139 500 139 700 q 159 164 139 300 q 219 -54 179 28 q 318 -172 260 -136 q 451 -208 376 -208 l 542 -208 l 542 -222 l 451 -222 q 315 -187 375 -222 q 212 -69 254 -151 q 147 152 169 13 q 125 500 125 292 q 147 848 125 708 q 212 1069 169 988 q 315 1187 254 1151 q 451 1222 375 1222 l 542 1222 l 542 1208 z "},"":{"ha":486,"x_min":-56,"x_max":361,"o":"m -56 1208 l -56 1222 l 35 1222 q 172 1187 111 1222 q 274 1069 232 1151 q 339 848 317 988 q 361 500 361 708 q 339 152 361 292 q 274 -69 317 13 q 172 -187 232 -151 q 35 -222 111 -222 l -56 -222 l -56 -208 l 35 -208 q 168 -172 110 -208 q 267 -54 226 -136 q 327 164 307 28 q 347 500 347 300 q 327 836 347 700 q 267 1054 307 972 q 168 1172 226 1136 q 35 1208 110 1208 l -56 1208 z "},"":{"ha":1778,"x_min":167,"x_max":1611,"o":"m 1597 278 l 1597 368 q 1561 501 1597 443 q 1443 600 1525 560 q 1225 660 1361 640 q 889 681 1089 681 q 553 660 689 681 q 335 600 417 640 q 217 501 253 560 q 181 368 181 443 l 181 278 l 167 278 l 167 368 q 202 505 167 444 q 319 608 238 565 q 541 672 401 650 q 889 694 681 694 q 1237 672 1097 694 q 1458 608 1376 650 q 1576 505 1540 565 q 1611 368 1611 444 l 1611 278 l 1597 278 z "},"":{"ha":1778,"x_min":167,"x_max":1611,"o":"m 1597 722 l 1611 722 l 1611 632 q 1576 495 1611 556 q 1458 392 1540 435 q 1237 328 1376 350 q 889 306 1097 306 q 541 328 681 306 q 319 392 401 350 q 202 495 238 435 q 167 632 167 556 l 167 722 l 181 722 l 181 632 q 217 499 181 557 q 335 400 253 440 q 553 340 417 360 q 889 319 689 319 q 1225 340 1089 319 q 1443 400 1361 360 q 1561 499 1525 440 q 1597 632 1597 557 l 1597 722 z "},"":{"ha":903,"x_min":26,"x_max":958,"o":"m 958 1208 l 49 1208 q 43 1202 42 1208 q 46 1193 44 1196 l 321 503 l 321 500 l 315 485 l 49 -187 q 44 -199 47 -189 q 49 -208 40 -208 l 958 -208 l 958 -222 l 49 -222 q 32 -209 35 -222 q 35 -182 29 -196 l 301 490 l 306 500 l 32 1188 q 31 1213 26 1203 q 49 1222 35 1222 l 958 1222 l 958 1208 z "},"":{"ha":903,"x_min":-56,"x_max":876,"o":"m -56 1208 l -56 1222 l 854 1222 q 872 1213 868 1222 q 871 1188 876 1203 l 597 500 l 601 490 l 868 -182 q 872 -209 874 -196 q 854 -222 869 -222 l -56 -222 l -56 -208 l 854 -208 q 859 -199 863 -208 q 854 -187 856 -189 l 588 485 l 582 500 l 582 503 l 857 1193 q 860 1202 858 1196 q 854 1208 861 1208 l -56 1208 z "},"":{"ha":1389,"x_min":-28,"x_max":1417,"o":"m -14 21 l -28 21 l -28 928 q -15 947 -28 942 q 7 947 -3 951 l 694 674 l 1376 944 q 1403 946 1390 950 q 1417 922 1417 942 l 1417 21 l 1403 21 l 1403 922 q 1382 931 1403 939 l 694 658 l 1 933 q -7 934 0 935 q -14 928 -14 933 l -14 21 z "},"":{"ha":1389,"x_min":-28,"x_max":1417,"o":"m -14 979 l -14 69 q -7 64 -14 63 q 1 67 0 65 l 694 342 l 1382 69 q 1383 69 1382 69 q 1397 65 1392 65 q 1403 72 1403 64 l 1403 979 l 1417 979 l 1417 69 q 1403 53 1417 56 q 1376 56 1390 50 l 694 326 l 7 53 q -17 51 -7 47 q -28 69 -28 56 l -28 979 l -14 979 z "},"":{"ha":1250,"x_min":56,"x_max":1306,"o":"m 1306 1208 l 1246 1208 q 1058 1272 1125 1208 q 992 1464 992 1335 q 983 1472 992 1472 l 322 1472 q 314 1464 314 1472 l 314 1208 l 78 1208 q 69 1200 69 1208 l 69 -200 q 78 -208 69 -208 l 314 -208 l 314 -464 q 322 -472 314 -472 l 983 -472 q 992 -464 992 -472 q 1061 -272 992 -335 q 1256 -208 1131 -208 l 1306 -208 l 1306 -222 l 1256 -222 q 1072 -281 1138 -222 q 1006 -464 1006 -340 q 983 -486 1006 -486 l 322 -486 q 300 -464 300 -486 l 300 -222 l 78 -222 q 56 -200 56 -222 l 56 1200 q 78 1222 56 1222 l 300 1222 l 300 1464 q 322 1486 300 1486 l 983 1486 q 1006 1464 1006 1486 q 1069 1282 1006 1342 q 1246 1222 1132 1222 l 1306 1222 l 1306 1208 z "},"":{"ha":1250,"x_min":-56,"x_max":1194,"o":"m -56 1208 l -56 1222 l 4 1222 q 182 1282 119 1222 q 244 1464 244 1342 q 267 1486 244 1486 l 928 1486 q 950 1464 950 1486 l 950 1222 l 1172 1222 q 1194 1200 1194 1222 l 1194 -200 q 1172 -222 1194 -222 l 950 -222 l 950 -464 q 928 -486 950 -486 l 267 -486 q 244 -464 244 -486 q 179 -281 244 -340 q -6 -222 114 -222 l -56 -222 l -56 -208 l -6 -208 q 189 -272 119 -208 q 258 -464 258 -335 q 267 -472 258 -472 l 928 -472 q 936 -464 936 -472 l 936 -208 l 1172 -208 q 1181 -200 1181 -208 l 1181 1200 q 1172 1208 1181 1208 l 936 1208 l 936 1464 q 928 1472 936 1472 l 267 1472 q 258 1464 258 1472 q 192 1272 258 1335 q 4 1208 125 1208 l -56 1208 z "},"":{"ha":1778,"x_min":-97,"x_max":1875,"o":"m 1597 -139 l 1597 -79 q 1660 108 1597 42 q 1853 175 1724 175 q 1861 183 1861 175 l 1861 844 q 1853 853 1861 853 l 1597 853 l 1597 1089 q 1589 1097 1597 1097 l 189 1097 q 181 1089 181 1097 l 181 853 l -75 853 q -83 844 -83 853 l -83 183 q -75 175 -83 175 q 117 106 54 175 q 181 -89 181 36 l 181 -139 l 167 -139 l 167 -89 q 108 96 167 31 q -75 161 49 161 q -97 183 -97 161 l -97 844 q -75 867 -97 867 l 167 867 l 167 1089 q 189 1111 167 1111 l 1589 1111 q 1611 1089 1611 1111 l 1611 867 l 1853 867 q 1875 844 1875 867 l 1875 183 q 1853 161 1875 161 q 1671 99 1731 161 q 1611 -79 1611 36 l 1611 -139 l 1597 -139 z "},"":{"ha":1778,"x_min":-97,"x_max":1875,"o":"m 1597 1139 l 1611 1139 l 1611 1079 q 1671 902 1611 965 q 1853 839 1731 839 q 1875 817 1875 839 l 1875 156 q 1853 133 1875 133 l 1611 133 l 1611 -89 q 1589 -111 1611 -111 l 189 -111 q 167 -89 167 -111 l 167 133 l -75 133 q -97 156 -97 133 l -97 817 q -75 839 -97 839 q 108 905 49 839 q 167 1089 167 971 l 167 1139 l 181 1139 l 181 1089 q 117 894 181 964 q -75 825 54 825 q -83 817 -83 825 l -83 156 q -75 147 -83 147 l 181 147 l 181 -89 q 189 -97 181 -97 l 1589 -97 q 1597 -89 1597 -97 l 1597 147 l 1853 147 q 1861 156 1861 147 l 1861 817 q 1853 825 1861 825 q 1660 892 1724 825 q 1597 1079 1597 958 l 1597 1139 z "},"":{"ha":903,"x_min":39,"x_max":957,"o":"m 957 1208 l 850 1208 l 850 1446 q 834 1480 850 1468 q 799 1492 818 1492 q 703 1435 747 1492 l 97 629 q 64 567 75 600 q 53 501 53 535 q 64 435 53 468 q 97 374 75 403 l 703 -432 q 749 -474 724 -460 q 799 -489 775 -489 q 834 -477 818 -489 q 850 -443 850 -465 l 850 -208 l 957 -208 l 957 -222 l 864 -222 l 864 -443 q 844 -487 864 -471 q 799 -503 825 -503 q 744 -487 772 -503 q 692 -440 715 -472 l 86 365 q 50 432 61 397 q 39 501 39 467 q 50 572 39 538 q 86 638 61 607 l 692 1443 q 744 1490 715 1475 q 799 1506 772 1506 q 844 1490 825 1506 q 864 1446 864 1474 l 864 1222 l 957 1222 l 957 1208 z "},"➡":{"ha":903,"x_min":-56,"x_max":863,"o":"m -56 1208 l -56 1222 l 38 1222 l 38 1446 q 57 1490 38 1474 q 103 1506 76 1506 q 158 1490 129 1506 q 210 1443 186 1475 l 815 638 q 851 572 840 607 q 863 501 863 538 q 851 432 863 467 q 815 365 840 397 l 210 -440 q 158 -487 188 -472 q 103 -503 129 -503 q 57 -487 76 -503 q 38 -443 38 -471 l 38 -222 l -56 -222 l -56 -208 l 51 -208 l 51 -443 q 67 -477 51 -465 q 103 -489 83 -489 q 152 -474 126 -489 q 199 -432 178 -460 l 804 374 q 838 435 828 403 q 849 501 849 468 q 838 567 849 535 q 804 629 828 600 l 199 1435 q 103 1492 154 1492 q 67 1480 83 1492 q 51 1446 51 1468 l 51 1208 l -56 1208 z "},"":{"ha":1389,"x_min":-310,"x_max":1699,"o":"m -12 26 l -26 26 l -26 119 l -250 119 q -294 139 -278 119 q -310 185 -310 158 q -294 240 -310 211 q -247 292 -279 268 l 558 897 q 694 944 622 944 q 831 897 767 944 l 1636 292 q 1683 240 1668 268 q 1699 185 1699 211 q 1683 139 1699 158 q 1639 119 1667 119 l 1418 119 l 1418 26 l 1404 26 l 1404 133 l 1639 133 q 1673 149 1661 133 q 1685 185 1685 165 q 1670 234 1685 208 q 1628 281 1656 260 l 822 886 q 694 931 763 931 q 567 886 626 931 l -239 281 q -296 185 -296 236 q -284 149 -296 165 q -250 133 -272 133 l -12 133 l -12 26 z "},"":{"ha":1389,"x_min":-310,"x_max":1699,"o":"m 1401 974 l 1415 974 l 1415 881 l 1639 881 q 1683 861 1667 881 q 1699 815 1699 842 q 1683 760 1699 789 q 1636 708 1668 732 l 831 103 q 694 56 767 56 q 558 103 622 56 l -247 708 q -294 760 -278 732 q -310 815 -310 789 q -294 861 -310 842 q -250 881 -278 881 l -29 881 l -29 974 l -15 974 l -15 867 l -250 867 q -284 851 -272 867 q -296 815 -296 835 q -281 766 -296 792 q -239 719 -267 740 l 567 114 q 694 69 626 69 q 822 114 763 69 l 1628 719 q 1685 815 1685 764 q 1673 851 1685 835 q 1639 867 1661 867 l 1401 867 l 1401 974 z "},"":{"ha":1389,"x_min":-83,"x_max":1615,"o":"m -56 1208 l -56 1222 l 360 1222 q 766 1158 583 1222 q 1080 960 949 1093 q 1281 623 1211 828 q 1351 139 1351 418 l 1351 -428 l 1593 -428 q 1615 -449 1615 -428 q 1606 -471 1615 -458 q 1586 -492 1596 -483 l 824 -1208 q 792 -1233 807 -1224 q 760 -1242 776 -1242 q 696 -1208 732 -1242 l -57 -492 q -74 -473 -65 -482 q -83 -450 -83 -464 q -61 -428 -83 -428 l 157 -428 l 157 -335 q 127 -248 157 -274 q 26 -222 97 -222 l -56 -222 l -56 -208 l 26 -208 q 138 -237 106 -208 q 171 -335 171 -267 l 171 -442 l -61 -442 q -69 -450 -69 -442 q -61 -465 -69 -456 q -46 -481 -53 -474 l 704 -1197 q 733 -1219 719 -1211 q 760 -1228 746 -1228 q 788 -1219 775 -1228 q 815 -1197 801 -1211 l 1578 -481 q 1594 -463 1588 -472 q 1601 -449 1601 -454 q 1593 -442 1601 -442 l 1338 -442 l 1338 139 q 1268 616 1338 414 q 1069 949 1199 818 q 760 1144 940 1081 q 360 1208 581 1208 l -56 1208 z "},"":{"ha":1389,"x_min":-83,"x_max":1615,"o":"m -56 -208 l 360 -208 q 760 -144 581 -208 q 1069 51 940 -81 q 1268 384 1199 182 q 1338 861 1338 586 l 1338 1442 l 1593 1442 q 1601 1449 1601 1442 q 1594 1464 1601 1456 q 1578 1481 1588 1472 l 815 2197 q 788 2219 801 2211 q 760 2228 775 2228 q 733 2220 746 2228 q 704 2197 719 2213 l -46 1481 q -61 1465 -53 1474 q -69 1450 -69 1457 q -61 1442 -69 1442 l 171 1442 l 171 1335 q 138 1238 171 1267 q 26 1208 106 1208 l -56 1208 l -56 1222 l 26 1222 q 127 1248 97 1222 q 157 1335 157 1274 l 157 1428 l -61 1428 q -83 1450 -83 1428 q -74 1473 -83 1464 q -57 1492 -65 1482 l 696 2208 q 760 2242 732 2242 q 792 2233 776 2242 q 824 2208 807 2224 l 1586 1492 q 1606 1472 1596 1483 q 1615 1449 1615 1460 q 1593 1428 1615 1428 l 1351 1428 l 1351 861 q 1281 377 1351 582 q 1080 40 1211 172 q 766 -158 949 -93 q 360 -222 583 -222 l -56 -222 l -56 -208 z "},"":{"ha":1854,"x_min":-814,"x_max":1650,"o":"m 1636 1250 l 1650 1250 l 1650 835 q 1585 428 1650 611 q 1388 115 1521 246 q 1051 -87 1256 -17 q 567 -157 846 -157 l 0 -157 l 0 -399 q -21 -421 0 -421 q -43 -411 -31 -421 q -64 -392 -56 -401 l -781 371 q -805 403 -796 388 q -814 435 -814 418 q -781 499 -814 464 l -64 1251 q -45 1269 -54 1260 q -22 1278 -36 1278 q 0 1256 0 1278 l 0 1038 l 93 1038 q 180 1067 154 1038 q 206 1168 206 1097 l 206 1250 l 219 1250 l 219 1168 q 190 1056 219 1089 q 93 1024 161 1024 l -14 1024 l -14 1256 q -22 1264 -14 1264 q -37 1256 -28 1264 q -53 1240 -46 1247 l -769 490 q -792 462 -783 475 q -800 435 -800 449 q -792 408 -800 421 q -769 379 -783 394 l -53 -383 q -35 -400 -44 -393 q -21 -407 -26 -407 q -14 -399 -14 -407 l -14 -143 l 567 -143 q 1044 -74 842 -143 q 1377 125 1246 -4 q 1572 434 1508 254 q 1636 835 1636 614 l 1636 1250 z "},"":{"ha":1854,"x_min":206,"x_max":2669,"o":"m 219 1250 l 219 835 q 283 434 219 614 q 478 125 347 254 q 812 -74 610 -4 q 1289 -143 1014 -143 l 1869 -143 l 1869 -399 q 1876 -407 1869 -407 q 1892 -400 1883 -407 q 1908 -383 1900 -393 l 2625 379 q 2647 408 2639 394 q 2656 435 2656 421 q 2648 462 2656 449 q 2625 490 2640 475 l 1908 1240 q 1893 1256 1901 1247 q 1878 1264 1885 1264 q 1869 1256 1869 1264 l 1869 1024 l 1763 1024 q 1665 1056 1694 1024 q 1636 1168 1636 1089 l 1636 1250 l 1650 1250 l 1650 1168 q 1676 1067 1650 1097 q 1763 1038 1701 1038 l 1856 1038 l 1856 1256 q 1878 1278 1856 1278 q 1901 1269 1892 1278 q 1919 1251 1910 1260 l 2636 499 q 2669 435 2669 464 q 2660 403 2669 418 q 2636 371 2651 388 l 1919 -392 q 1899 -411 1911 -401 q 1876 -421 1888 -421 q 1856 -399 1856 -421 l 1856 -157 l 1289 -157 q 805 -87 1010 -157 q 467 115 600 -17 q 270 428 335 246 q 206 835 206 611 l 206 1250 l 219 1250 z "},"⬛":{"ha":1778,"x_min":167,"x_max":1611,"o":"m 167 -222 l 167 1222 l 1611 1222 l 1611 -222 l 167 -222 m 1597 -208 l 1597 1208 l 181 1208 l 181 -208 l 1597 -208 z "},"⬤":{"ha":1778,"x_min":125,"x_max":1653,"o":"m 889 1250 q 1197 1194 1057 1250 q 1440 1037 1338 1139 q 1597 794 1542 935 q 1653 486 1653 654 q 1597 178 1653 318 q 1440 -65 1542 38 q 1197 -222 1338 -167 q 889 -278 1057 -278 q 581 -222 721 -278 q 338 -65 440 -167 q 181 178 236 38 q 125 486 125 318 q 181 794 125 654 q 338 1037 236 935 q 581 1194 440 1139 q 889 1250 721 1250 m 889 1236 q 586 1181 724 1236 q 349 1026 449 1126 q 194 789 249 926 q 139 486 139 651 q 194 183 139 321 q 349 -54 249 46 q 586 -209 449 -154 q 889 -264 724 -264 q 1192 -209 1054 -264 q 1429 -54 1329 -154 q 1584 183 1529 46 q 1639 486 1639 321 q 1584 789 1639 651 q 1429 1026 1529 926 q 1192 1181 1329 1126 q 889 1236 1054 1236 z "},"":{"ha":1778,"x_min":167,"x_max":1611,"o":"m 893 -264 q 623 -229 757 -264 q 372 -124 489 -194 q 168 49 256 -54 l 167 50 l 167 950 l 168 951 q 374 1125 258 1056 q 622 1229 490 1194 q 889 1264 754 1264 q 1156 1229 1025 1264 q 1404 1125 1288 1194 q 1610 951 1521 1056 l 1611 950 l 1611 51 l 1610 50 q 1408 -125 1524 -56 q 1161 -229 1293 -194 q 893 -264 1029 -264 m 893 -250 q 1156 -217 1026 -250 q 1399 -115 1285 -183 q 1597 57 1513 -47 l 1597 944 q 1394 1114 1508 1046 q 1151 1216 1281 1182 q 889 1250 1022 1250 q 626 1216 756 1250 q 383 1114 497 1182 q 181 944 269 1046 l 181 56 q 381 -114 267 -46 q 627 -216 496 -182 q 893 -250 758 -250 z "},"［":{"ha":1778,"x_min":125,"x_max":1653,"o":"m 1653 504 q 1618 234 1653 368 q 1514 -17 1583 100 q 1340 -221 1444 -133 l 1339 -222 l 439 -222 l 438 -221 q 264 -15 333 -131 q 160 233 194 101 q 125 500 125 365 q 160 767 125 636 q 264 1015 194 899 q 438 1221 333 1132 l 439 1222 l 1338 1222 l 1339 1221 q 1514 1019 1444 1135 q 1618 772 1583 904 q 1653 504 1653 640 m 1639 504 q 1606 767 1639 638 q 1504 1010 1572 896 q 1332 1208 1436 1124 l 444 1208 q 275 1006 343 1119 q 173 763 207 892 q 139 500 139 633 q 173 238 139 367 q 275 -6 207 108 q 444 -208 343 -119 l 1333 -208 q 1503 -8 1435 -122 q 1605 238 1571 107 q 1639 504 1639 369 z "},"":{"ha":1778,"x_min":167,"x_max":1611,"o":"m 167 -222 l 167 1222 l 972 1222 q 1318 1147 1175 1222 q 1536 929 1461 1072 q 1611 582 1611 786 l 1611 -222 l 167 -222 m 1597 -208 l 1597 582 q 1524 922 1597 782 q 1310 1135 1450 1061 q 972 1208 1171 1208 l 181 1208 l 181 -208 l 1597 -208 z "},"＼":{"ha":1778,"x_min":167,"x_max":1611,"o":"m 1611 -222 l 167 -222 l 167 583 q 242 929 167 786 q 460 1147 317 1072 q 807 1222 604 1222 l 1611 1222 l 1611 -222 m 1597 1208 l 807 1208 q 468 1135 608 1208 q 254 922 328 1061 q 181 583 181 782 l 181 -208 l 1597 -208 l 1597 1208 z "},"":{"ha":1778,"x_min":167,"x_max":1753,"o":"m 167 1222 l 1753 1222 l 1467 -222 l 167 -222 l 167 1222 m 1736 1208 l 181 1208 l 181 -208 l 1456 -208 l 1736 1208 z "},"］":{"ha":1778,"x_min":167,"x_max":1611,"o":"m 167 -222 l 167 1364 l 1611 1078 l 1611 -222 l 167 -222 m 181 1347 l 181 -208 l 1597 -208 l 1597 1067 l 181 1347 z "},"":{"ha":1778,"x_min":28,"x_max":1614,"o":"m 1614 1222 l 1614 -222 l 314 -222 l 28 1222 l 1614 1222 m 44 1208 l 325 -208 l 1600 -208 l 1600 1208 l 44 1208 z "},"＾":{"ha":1778,"x_min":167,"x_max":1611,"o":"m 167 1225 l 1611 1225 l 1611 -75 l 167 -361 l 167 1225 m 181 -344 l 1597 -64 l 1597 1211 l 181 1211 l 181 -344 z "},"◜":{"ha":1778,"x_min":167,"x_max":1611,"o":"m 1611 -222 l 167 -222 l 167 -15 q 475 914 167 606 q 1404 1222 783 1222 l 1611 1222 l 1611 -222 m 1597 1208 l 1404 1208 q 485 904 790 1208 q 181 -15 181 600 l 181 -208 l 1597 -208 l 1597 1208 z "},"◝":{"ha":1778,"x_min":167,"x_max":1611,"o":"m 167 -222 l 167 1222 l 374 1222 q 1303 914 994 1222 q 1611 -15 1611 606 l 1611 -222 l 167 -222 m 181 1208 l 181 -208 l 1597 -208 l 1597 -15 q 1293 904 1597 600 q 374 1208 989 1208 l 181 1208 z "},"◟":{"ha":1778,"x_min":167,"x_max":1611,"o":"m 1611 1222 l 1611 -222 l 1404 -222 q 475 86 783 -222 q 167 1015 167 394 l 167 1222 l 1611 1222 m 1597 -208 l 1597 1208 l 181 1208 l 181 1015 q 485 97 181 401 q 1404 -208 790 -208 l 1597 -208 z "},"◞":{"ha":1778,"x_min":167,"x_max":1611,"o":"m 167 1222 l 1611 1222 l 1611 1015 q 1303 86 1611 394 q 374 -222 994 -222 l 167 -222 l 167 1222 m 181 -208 l 374 -208 q 1293 97 989 -208 q 1597 1015 1597 401 l 1597 1208 l 181 1208 l 181 -208 z "},"":{"ha":1847,"x_min":38,"x_max":1824,"o":"m 824 -458 q 786 -439 801 -458 l 71 435 q 47 470 56 454 q 38 501 38 486 q 47 533 38 517 q 69 567 56 549 l 788 1443 q 826 1469 806 1469 q 849 1444 849 1469 l 849 1222 l 1824 1222 l 1538 500 l 1824 -222 l 849 -222 l 849 -433 q 842 -451 849 -443 q 824 -458 835 -458 m 824 -444 q 835 -433 835 -444 l 835 -208 l 1803 -208 l 1522 500 l 1803 1208 l 835 1208 l 835 1444 q 826 1456 835 1456 q 799 1435 815 1456 l 81 558 q 60 528 68 542 q 51 501 51 515 q 60 474 51 488 q 82 443 68 461 l 797 -431 q 824 -444 811 -444 z "},"":{"ha":1847,"x_min":24,"x_max":1810,"o":"m 1024 -458 q 1006 -451 1014 -458 q 999 -433 999 -443 l 999 -222 l 24 -222 l 310 500 l 24 1222 l 999 1222 l 999 1444 q 1021 1469 999 1469 q 1060 1443 1042 1469 l 1778 567 q 1801 533 1793 549 q 1810 501 1810 517 q 1801 470 1810 486 q 1776 435 1792 454 l 1061 -439 q 1024 -458 1046 -458 m 1024 -444 q 1050 -431 1036 -444 l 1765 443 q 1788 474 1779 461 q 1796 501 1796 488 q 1788 528 1796 515 q 1767 558 1779 542 l 1049 1435 q 1021 1456 1032 1456 q 1013 1444 1013 1456 l 1013 1208 l 44 1208 l 325 500 l 44 -208 l 1013 -208 l 1013 -433 q 1024 -444 1013 -444 z "},"":{"ha":1778,"x_min":-75,"x_max":1853,"o":"m 1611 -467 l 889 -183 l 167 -471 l 167 633 l -43 633 q -69 639 -64 633 q -75 654 -75 644 q -68 674 -75 665 q -47 696 -61 683 l 822 1413 q 857 1436 842 1428 q 888 1444 872 1444 q 919 1436 903 1444 q 953 1413 935 1428 l 1833 694 q 1853 658 1853 679 q 1826 633 1853 633 l 1611 633 l 1611 -467 m 1597 -449 l 1597 647 l 1826 647 q 1839 658 1839 647 q 1825 683 1839 674 l 944 1401 q 915 1423 928 1415 q 888 1431 901 1431 q 860 1423 874 1431 q 831 1401 847 1415 l -39 685 q -55 669 -49 676 q -61 654 -61 663 q -43 647 -61 647 l 181 647 l 181 -450 l 889 -168 l 1597 -449 z "},"":{"ha":1778,"x_min":-75,"x_max":1853,"o":"m 167 1451 l 889 1168 l 1611 1456 l 1611 351 l 1821 351 q 1847 346 1842 351 q 1853 331 1853 340 q 1846 311 1853 321 q 1825 289 1839 301 l 956 -428 q 922 -451 938 -443 q 890 -460 906 -460 q 860 -451 875 -460 q 825 -428 844 -443 l -56 290 q -75 326 -75 306 q -49 351 -75 351 l 167 351 l 167 1451 m 181 1433 l 181 338 l -49 338 q -61 326 -61 338 q -47 301 -61 311 l 833 -417 q 863 -438 850 -431 q 890 -446 876 -446 q 917 -438 904 -446 q 947 -417 931 -431 l 1817 300 q 1833 315 1826 308 q 1839 331 1839 322 q 1821 338 1839 338 l 1597 338 l 1597 1435 l 889 1153 l 181 1433 z "},"":{"ha":1778,"x_min":35,"x_max":1761,"o":"m 1738 -222 l 346 -222 q 307 -190 319 -222 l 44 468 q 44 528 35 499 l 307 1190 q 346 1222 319 1222 l 1732 1222 q 1754 1204 1760 1222 l 1475 500 l 1754 -206 q 1738 -222 1761 -222 m 1460 500 l 1460 503 l 1740 1208 l 346 1208 q 330 1201 336 1208 q 321 1185 324 1194 l 58 522 q 58 474 50 499 l 321 -185 q 330 -201 324 -194 q 346 -208 336 -208 l 1739 -208 l 1460 500 z "},"":{"ha":1778,"x_min":22,"x_max":1749,"o":"m 46 -222 q 29 -206 22 -222 l 308 500 l 29 1204 q 51 1222 24 1222 l 1438 1222 q 1476 1190 1464 1222 l 1739 528 q 1739 468 1749 499 l 1476 -190 q 1438 -222 1464 -222 l 46 -222 m 324 500 l 44 -208 l 1438 -208 q 1454 -201 1449 -208 q 1463 -185 1460 -194 l 1725 474 q 1725 522 1733 499 l 1463 1185 q 1454 1201 1460 1194 q 1438 1208 1449 1208 l 43 1208 l 324 503 l 324 500 z "},"":{"ha":1778,"x_min":163,"x_max":1607,"o":"m 1607 -339 q 1590 -356 1607 -362 l 885 -76 l 181 -356 q 163 -333 163 -361 l 163 1053 q 194 1092 163 1079 l 857 1354 q 917 1354 888 1364 l 1575 1092 q 1607 1053 1607 1079 l 1607 -339 m 885 -61 l 1593 -340 l 1593 1053 q 1586 1069 1593 1064 q 1569 1078 1579 1075 l 911 1340 q 863 1340 888 1349 l 200 1078 q 183 1069 190 1075 q 176 1053 176 1064 l 176 -342 l 882 -61 l 885 -61 z "},"":{"ha":1778,"x_min":163,"x_max":1607,"o":"m 163 1353 q 179 1369 163 1376 l 885 1090 l 1589 1369 q 1607 1347 1607 1375 l 1607 -39 q 1575 -78 1607 -65 l 913 -340 q 853 -340 883 -350 l 194 -78 q 163 -39 163 -65 l 163 1353 m 885 1075 l 176 1354 l 176 -39 q 183 -55 176 -49 q 200 -64 190 -61 l 858 -326 q 907 -326 883 -335 l 1569 -64 q 1586 -55 1579 -61 q 1593 -39 1593 -49 l 1593 1356 l 888 1075 l 885 1075 z "},"":{"ha":1389,"x_min":0,"x_max":0,"o":""},"Ａ":{"ha":1389,"x_min":422,"x_max":963,"o":"m 963 125 l 949 125 l 949 364 l 436 364 l 436 125 l 422 125 l 422 421 q 428 492 422 460 q 446 556 435 525 l 535 783 q 569 849 550 822 q 636 875 589 875 l 743 875 q 808 849 789 875 q 843 782 826 822 l 939 556 q 956 492 950 525 q 963 421 963 460 l 963 125 m 436 378 l 949 378 l 949 421 q 943 490 949 458 q 926 550 938 522 l 831 776 q 799 837 815 813 q 743 861 782 861 l 636 861 q 578 838 594 861 q 547 778 561 814 l 458 550 q 442 490 449 522 q 436 421 436 458 l 436 378 z "},"ａ":{"ha":1389,"x_min":422,"x_max":963,"o":"m 963 125 l 949 125 l 949 364 l 436 364 l 436 125 l 422 125 l 422 421 q 428 492 422 460 q 446 556 435 525 l 535 783 q 569 849 550 822 q 636 875 589 875 l 743 875 q 808 849 789 875 q 843 782 826 822 l 939 556 q 956 492 950 525 q 963 421 963 460 l 963 125 m 436 378 l 949 378 l 949 421 q 943 490 949 458 q 926 550 938 522 l 831 776 q 799 837 815 813 q 743 861 782 861 l 636 861 q 578 838 594 861 q 547 778 561 814 l 458 550 q 442 490 449 522 q 436 421 436 458 l 436 378 z "},"":{"ha":1389,"x_min":422,"x_max":963,"o":"m 963 125 l 949 125 l 949 336 l 436 336 l 436 125 l 422 125 l 422 393 q 428 465 422 432 q 446 528 435 497 l 521 728 q 563 793 536 767 q 636 819 589 819 l 743 819 q 815 793 789 819 q 857 726 840 767 l 939 528 q 963 393 963 469 l 963 125 m 436 350 l 949 350 l 949 393 q 943 463 949 431 q 926 522 938 494 l 844 721 q 806 781 829 757 q 743 806 782 806 l 636 806 q 571 782 594 806 q 533 722 547 758 l 458 522 q 442 463 449 494 q 436 393 436 431 l 436 350 m 529 1163 l 861 1121 l 861 1107 l 529 1149 l 529 1163 z "},"":{"ha":1389,"x_min":422,"x_max":963,"o":"m 963 125 l 949 125 l 949 336 l 436 336 l 436 125 l 422 125 l 422 393 q 428 465 422 432 q 446 528 435 497 l 521 728 q 563 793 536 767 q 636 819 589 819 l 743 819 q 815 793 789 819 q 857 726 840 767 l 939 528 q 963 393 963 469 l 963 125 m 436 350 l 949 350 l 949 393 q 943 463 949 431 q 926 522 938 494 l 844 721 q 806 781 829 757 q 743 806 782 806 l 636 806 q 571 782 594 806 q 533 722 547 758 l 458 522 q 442 463 449 494 q 436 393 436 431 l 436 350 m 861 1163 l 861 1149 l 529 1107 l 529 1121 l 861 1163 z "},"":{"ha":1389,"x_min":422,"x_max":963,"o":"m 860 1125 l 739 1164 q 719 1169 729 1167 q 694 1172 708 1172 q 671 1169 681 1172 q 650 1164 661 1167 l 529 1125 l 529 1140 l 644 1178 q 668 1183 657 1181 q 694 1186 679 1186 q 721 1183 710 1186 q 744 1178 732 1181 l 860 1140 l 860 1125 m 963 125 l 949 125 l 949 336 l 436 336 l 436 125 l 422 125 l 422 393 q 428 465 422 432 q 446 528 435 497 l 521 728 q 563 793 536 767 q 636 819 589 819 l 743 819 q 815 793 789 819 q 857 726 840 767 l 939 528 q 963 393 963 469 l 963 125 m 436 350 l 949 350 l 949 393 q 943 463 949 431 q 926 522 938 494 l 844 721 q 806 781 829 757 q 743 806 782 806 l 636 806 q 571 782 594 806 q 533 722 547 758 l 458 522 q 442 463 449 494 q 436 393 436 431 l 436 350 z "},"":{"ha":1389,"x_min":422,"x_max":963,"o":"m 963 125 l 949 125 l 949 336 l 436 336 l 436 125 l 422 125 l 422 393 q 428 465 422 432 q 446 528 435 497 l 521 728 q 563 793 536 767 q 636 819 589 819 l 743 819 q 815 793 789 819 q 857 726 840 767 l 939 528 q 963 393 963 469 l 963 125 m 436 350 l 949 350 l 949 393 q 943 463 949 431 q 926 522 938 494 l 844 721 q 806 781 829 757 q 743 806 782 806 l 636 806 q 571 782 594 806 q 533 722 547 758 l 458 522 q 442 463 449 494 q 436 393 436 431 l 436 350 m 858 1099 q 799 1099 831 1096 q 714 1110 767 1101 l 692 1113 l 653 1118 q 579 1126 607 1125 q 528 1124 551 1128 l 528 1139 q 580 1140 551 1142 q 656 1132 608 1139 l 694 1126 l 717 1124 q 800 1113 769 1115 q 858 1113 831 1110 l 858 1099 z "},"":{"ha":1389,"x_min":422,"x_max":963,"o":"m 503 1097 l 503 1163 l 517 1163 l 517 1097 l 503 1097 m 861 1097 l 861 1163 l 875 1163 l 875 1097 l 861 1097 m 963 125 l 949 125 l 949 336 l 436 336 l 436 125 l 422 125 l 422 393 q 428 465 422 432 q 446 528 435 497 l 521 728 q 563 793 536 767 q 636 819 589 819 l 743 819 q 815 793 789 819 q 857 726 840 767 l 939 528 q 963 393 963 469 l 963 125 m 436 350 l 949 350 l 949 393 q 943 463 949 431 q 926 522 938 494 l 844 721 q 806 781 829 757 q 743 806 782 806 l 636 806 q 571 782 594 806 q 533 722 547 758 l 458 522 q 442 463 449 494 q 436 393 436 431 l 436 350 z "},"":{"ha":1389,"x_min":422,"x_max":963,"o":"m 963 125 l 949 125 l 949 364 l 436 364 l 436 125 l 422 125 l 422 421 q 428 492 422 460 q 446 556 435 525 l 535 756 q 570 820 551 793 q 636 847 589 847 l 743 847 q 807 820 789 847 q 843 754 825 793 l 939 556 q 958 493 953 526 q 963 421 963 460 l 963 125 m 436 378 l 949 378 l 949 421 q 943 490 949 458 q 926 550 938 522 l 831 749 q 799 809 815 785 q 743 833 782 833 l 636 833 q 578 810 594 833 q 547 750 561 786 l 458 550 q 442 490 449 522 q 436 421 436 458 l 436 378 m 497 1069 q 512 1143 497 1111 q 569 1192 526 1175 q 693 1210 611 1210 q 819 1192 776 1210 q 876 1142 861 1174 q 892 1069 892 1111 l 892 1015 q 876 942 892 974 q 819 894 861 911 q 693 876 776 876 q 569 894 611 876 q 512 942 526 911 q 497 1015 497 974 l 497 1069 m 511 1069 l 511 1015 q 526 949 511 976 q 580 906 540 921 q 693 890 619 890 q 808 906 768 890 q 863 949 847 921 q 878 1015 878 976 l 878 1069 q 863 1136 878 1108 q 808 1180 847 1164 q 693 1196 768 1196 q 580 1181 619 1196 q 526 1137 540 1165 q 511 1069 511 1108 z "},"":{"ha":1389,"x_min":422,"x_max":963,"o":"m 861 1121 l 861 1107 l 529 1107 l 529 1121 l 861 1121 m 963 125 l 949 125 l 949 336 l 436 336 l 436 125 l 422 125 l 422 393 q 428 465 422 432 q 446 528 435 497 l 521 728 q 563 793 536 767 q 636 819 589 819 l 743 819 q 815 793 789 819 q 857 726 840 767 l 939 528 q 963 393 963 469 l 963 125 m 436 350 l 949 350 l 949 393 q 943 463 949 431 q 926 522 938 494 l 844 721 q 806 781 829 757 q 743 806 782 806 l 636 806 q 571 782 594 806 q 533 722 547 758 l 458 522 q 442 463 449 494 q 436 393 436 431 l 436 350 z "},"":{"ha":1389,"x_min":422,"x_max":963,"o":"m 963 125 l 949 125 l 949 336 l 436 336 l 436 125 l 422 125 l 422 393 q 428 465 422 432 q 446 528 435 497 l 521 728 q 563 793 536 767 q 636 819 589 819 l 743 819 q 815 793 789 819 q 857 726 840 767 l 939 528 q 963 393 963 469 l 963 125 m 436 350 l 949 350 l 949 393 q 943 463 949 431 q 926 522 938 494 l 844 721 q 806 781 829 757 q 743 806 782 806 l 636 806 q 571 782 594 806 q 533 722 547 758 l 458 522 q 442 463 449 494 q 436 393 436 431 l 436 350 m 896 1204 l 896 1192 q 881 1140 896 1165 q 824 1097 867 1114 q 694 1081 781 1081 q 567 1097 608 1081 q 513 1140 525 1114 q 500 1192 500 1165 l 500 1204 l 514 1204 l 514 1192 q 528 1144 514 1167 q 581 1108 542 1122 q 694 1094 619 1094 q 810 1108 769 1094 q 867 1144 851 1122 q 882 1192 882 1167 l 882 1204 l 896 1204 z "},"":{"ha":1389,"x_min":422,"x_max":988,"o":"m 963 181 l 960 181 q 926 156 933 167 q 914 114 918 144 l 897 -4 q 901 -69 892 -46 q 954 -92 911 -92 l 988 -92 l 988 -106 l 954 -106 q 889 -79 903 -106 q 883 -1 875 -53 l 900 114 q 913 160 906 146 q 949 190 921 174 l 949 392 l 436 392 l 436 181 l 422 181 l 422 449 q 428 520 422 488 q 446 583 435 553 l 521 783 q 563 849 536 822 q 636 875 589 875 l 743 875 q 815 849 789 875 q 857 782 840 822 l 939 583 q 963 449 963 525 l 963 181 m 436 406 l 949 406 l 949 449 q 943 518 949 486 q 926 578 938 550 l 844 776 q 806 837 829 813 q 743 861 782 861 l 636 861 q 571 838 594 861 q 533 778 547 814 l 458 578 q 442 518 449 550 q 436 449 436 486 l 436 406 z "},"Ｂ":{"ha":1389,"x_min":429,"x_max":972,"o":"m 429 875 l 699 875 q 815 855 776 875 q 867 801 854 835 q 881 728 881 768 l 881 639 q 866 563 881 597 q 792 513 851 528 q 908 492 869 513 q 959 435 946 471 q 972 353 972 399 l 972 264 q 959 192 972 224 q 907 142 946 160 q 790 125 868 125 l 429 125 l 429 875 m 443 499 l 443 139 l 790 139 q 896 154 860 139 q 945 198 932 169 q 958 264 958 226 l 958 353 q 946 427 958 394 q 898 479 933 460 q 792 499 863 499 l 443 499 m 699 513 q 810 531 775 513 q 856 577 846 549 q 867 639 867 606 l 867 728 q 854 796 867 765 q 806 844 842 826 q 699 861 769 861 l 443 861 l 443 513 l 699 513 z "},"ｂ":{"ha":1389,"x_min":429,"x_max":972,"o":"m 429 875 l 699 875 q 815 855 776 875 q 867 801 854 835 q 881 728 881 768 l 881 639 q 866 563 881 597 q 792 513 851 528 q 908 492 869 513 q 959 435 946 471 q 972 353 972 399 l 972 264 q 959 192 972 224 q 907 142 946 160 q 790 125 868 125 l 429 125 l 429 875 m 443 499 l 443 139 l 790 139 q 896 154 860 139 q 945 198 932 169 q 958 264 958 226 l 958 353 q 946 427 958 394 q 898 479 933 460 q 792 499 863 499 l 443 499 m 699 513 q 810 531 775 513 q 856 577 846 549 q 867 639 867 606 l 867 728 q 854 796 867 765 q 806 844 842 826 q 699 861 769 861 l 443 861 l 443 513 l 699 513 z "},"Ｃ":{"ha":1389,"x_min":424,"x_max":974,"o":"m 974 125 l 646 125 q 508 143 556 125 q 442 201 460 161 q 424 304 424 240 l 424 693 q 442 799 424 760 q 509 857 461 839 q 646 875 557 875 l 974 875 l 974 861 l 646 861 q 519 845 564 861 q 456 792 474 829 q 438 693 438 756 l 438 304 q 455 208 438 244 q 517 155 472 171 q 646 139 563 139 l 974 139 l 974 125 z "},"ｃ":{"ha":1389,"x_min":424,"x_max":974,"o":"m 974 125 l 646 125 q 508 143 556 125 q 442 201 460 161 q 424 304 424 240 l 424 693 q 442 799 424 760 q 509 857 461 839 q 646 875 557 875 l 974 875 l 974 861 l 646 861 q 519 845 564 861 q 456 792 474 829 q 438 693 438 756 l 438 304 q 455 208 438 244 q 517 155 472 171 q 646 139 563 139 l 974 139 l 974 125 z "},"":{"ha":1389,"x_min":424,"x_max":974,"o":"m 974 181 l 764 181 l 700 6 l 686 6 l 749 181 l 646 181 q 508 199 556 181 q 442 256 460 217 q 424 360 424 296 l 424 693 q 442 799 424 760 q 509 857 461 839 q 646 875 557 875 l 974 875 l 974 861 l 646 861 q 519 845 564 861 q 456 792 474 829 q 438 693 438 756 l 438 360 q 455 263 438 300 q 517 210 472 226 q 646 194 563 194 l 974 194 l 974 181 z "},"":{"ha":1389,"x_min":424,"x_max":974,"o":"m 974 125 l 646 125 q 508 143 556 125 q 442 201 460 161 q 424 304 424 240 l 424 638 q 442 744 424 704 q 509 801 461 783 q 646 819 557 819 l 974 819 l 974 806 l 646 806 q 519 790 564 806 q 456 737 474 774 q 438 638 438 700 l 438 304 q 455 208 438 244 q 517 155 472 171 q 646 139 563 139 l 974 139 l 974 125 m 874 1163 l 874 1149 l 542 1107 l 542 1121 l 874 1163 z "},"":{"ha":1389,"x_min":424,"x_max":974,"o":"m 872 1125 l 751 1164 q 731 1169 742 1167 q 707 1172 721 1172 q 683 1169 693 1172 q 663 1164 674 1167 l 542 1125 l 542 1140 l 657 1178 q 681 1183 669 1181 q 707 1186 692 1186 q 733 1183 722 1186 q 757 1178 744 1181 l 872 1140 l 872 1125 m 974 125 l 646 125 q 508 143 556 125 q 442 201 460 161 q 424 304 424 240 l 424 638 q 442 744 424 704 q 509 801 461 783 q 646 819 557 819 l 974 819 l 974 806 l 646 806 q 519 790 564 806 q 456 737 474 774 q 438 638 438 700 l 438 304 q 455 208 438 244 q 517 155 472 171 q 646 139 563 139 l 974 139 l 974 125 z "},"":{"ha":1389,"x_min":424,"x_max":974,"o":"m 704 1097 l 704 1179 l 718 1179 l 718 1097 l 704 1097 m 974 125 l 646 125 q 508 143 556 125 q 442 201 460 161 q 424 304 424 240 l 424 638 q 442 744 424 704 q 509 801 461 783 q 646 819 557 819 l 974 819 l 974 806 l 646 806 q 519 790 564 806 q 456 737 474 774 q 438 638 438 700 l 438 304 q 455 208 438 244 q 517 155 472 171 q 646 139 563 139 l 974 139 l 974 125 z "},"":{"ha":1389,"x_min":424,"x_max":974,"o":"m 542 1165 l 663 1126 q 683 1121 674 1124 q 707 1118 693 1118 q 731 1121 721 1118 q 751 1126 742 1124 l 872 1165 l 872 1150 l 757 1113 q 733 1107 744 1110 q 707 1104 722 1104 q 681 1107 692 1104 q 657 1113 669 1110 l 542 1150 l 542 1165 m 974 125 l 646 125 q 508 143 556 125 q 442 201 460 161 q 424 304 424 240 l 424 638 q 442 744 424 704 q 509 801 461 783 q 646 819 557 819 l 974 819 l 974 806 l 646 806 q 519 790 564 806 q 456 737 474 774 q 438 638 438 700 l 438 304 q 455 208 438 244 q 517 155 472 171 q 646 139 563 139 l 974 139 l 974 125 z "},"Ｄ":{"ha":1389,"x_min":429,"x_max":968,"o":"m 746 125 l 429 125 l 429 875 l 746 875 q 888 849 840 875 q 952 780 936 824 q 968 682 968 736 l 968 314 q 953 218 968 261 q 890 150 938 175 q 746 125 842 125 m 443 139 l 746 139 q 879 162 835 139 q 939 224 924 185 q 954 314 954 264 l 954 682 q 939 774 954 733 q 878 838 924 814 q 746 861 833 861 l 443 861 l 443 139 z "},"ｄ":{"ha":1389,"x_min":429,"x_max":968,"o":"m 746 125 l 429 125 l 429 875 l 746 875 q 888 849 840 875 q 952 780 936 824 q 968 682 968 736 l 968 314 q 953 218 968 261 q 890 150 938 175 q 746 125 842 125 m 443 139 l 746 139 q 879 162 835 139 q 939 224 924 185 q 954 314 954 264 l 954 682 q 939 774 954 733 q 878 838 924 814 q 746 861 833 861 l 443 861 l 443 139 z "},"":{"ha":1389,"x_min":429,"x_max":968,"o":"m 746 125 l 429 125 l 429 819 l 746 819 q 888 794 840 819 q 952 724 936 768 q 968 626 968 681 l 968 314 q 953 218 968 261 q 890 150 938 175 q 746 125 842 125 m 443 139 l 746 139 q 879 162 835 139 q 939 224 924 185 q 954 314 954 264 l 954 626 q 939 718 954 678 q 878 782 924 758 q 746 806 833 806 l 443 806 l 443 139 m 528 1165 l 649 1126 q 669 1121 660 1124 q 693 1118 679 1118 q 717 1121 707 1118 q 738 1126 728 1124 l 858 1165 l 858 1150 l 743 1113 q 719 1107 731 1110 q 693 1104 708 1104 q 667 1107 678 1104 q 643 1113 656 1110 l 528 1150 l 528 1165 z "},"Ｅ":{"ha":1389,"x_min":428,"x_max":974,"o":"m 861 499 l 442 499 l 442 139 l 974 139 l 974 125 l 428 125 l 428 875 l 974 875 l 974 861 l 442 861 l 442 513 l 861 513 l 861 499 z "},"ｅ":{"ha":1389,"x_min":428,"x_max":974,"o":"m 861 499 l 442 499 l 442 139 l 974 139 l 974 125 l 428 125 l 428 875 l 974 875 l 974 861 l 442 861 l 442 513 l 861 513 l 861 499 z "},"":{"ha":1389,"x_min":428,"x_max":974,"o":"m 861 471 l 442 471 l 442 139 l 974 139 l 974 125 l 428 125 l 428 819 l 974 819 l 974 806 l 442 806 l 442 485 l 861 485 l 861 471 m 528 1163 l 860 1121 l 860 1107 l 528 1149 l 528 1163 z "},"":{"ha":1389,"x_min":428,"x_max":974,"o":"m 860 1163 l 860 1149 l 528 1107 l 528 1121 l 860 1163 m 861 471 l 442 471 l 442 139 l 974 139 l 974 125 l 428 125 l 428 819 l 974 819 l 974 806 l 442 806 l 442 485 l 861 485 l 861 471 z "},"":{"ha":1389,"x_min":428,"x_max":974,"o":"m 858 1125 l 738 1164 q 717 1169 728 1167 q 693 1172 707 1172 q 669 1169 679 1172 q 649 1164 660 1167 l 528 1125 l 528 1140 l 643 1178 q 667 1183 656 1181 q 693 1186 678 1186 q 719 1183 708 1186 q 743 1178 731 1181 l 858 1140 l 858 1125 m 861 471 l 442 471 l 442 139 l 974 139 l 974 125 l 428 125 l 428 819 l 974 819 l 974 806 l 442 806 l 442 485 l 861 485 l 861 471 z "},"":{"ha":1389,"x_min":428,"x_max":974,"o":"m 861 471 l 442 471 l 442 139 l 974 139 l 974 125 l 428 125 l 428 819 l 974 819 l 974 806 l 442 806 l 442 485 l 861 485 l 861 471 m 501 1097 l 501 1163 l 515 1163 l 515 1097 l 501 1097 m 860 1097 l 860 1163 l 874 1163 l 874 1097 l 860 1097 z "},"":{"ha":1389,"x_min":428,"x_max":974,"o":"m 860 1121 l 860 1107 l 528 1107 l 528 1121 l 860 1121 m 861 471 l 442 471 l 442 139 l 974 139 l 974 125 l 428 125 l 428 819 l 974 819 l 974 806 l 442 806 l 442 485 l 861 485 l 861 471 z "},"":{"ha":1389,"x_min":428,"x_max":974,"o":"m 861 471 l 442 471 l 442 139 l 974 139 l 974 125 l 428 125 l 428 819 l 974 819 l 974 806 l 442 806 l 442 485 l 861 485 l 861 471 m 894 1204 l 894 1192 q 880 1140 894 1165 q 822 1097 865 1114 q 693 1081 779 1081 q 565 1097 607 1081 q 511 1140 524 1114 q 499 1192 499 1165 l 499 1204 l 513 1204 l 513 1192 q 526 1144 513 1167 q 579 1108 540 1122 q 693 1094 618 1094 q 809 1108 768 1094 q 865 1144 850 1122 q 881 1192 881 1167 l 881 1204 l 894 1204 z "},"":{"ha":1389,"x_min":428,"x_max":974,"o":"m 690 1097 l 690 1179 l 704 1179 l 704 1097 l 690 1097 m 861 471 l 442 471 l 442 139 l 974 139 l 974 125 l 428 125 l 428 819 l 974 819 l 974 806 l 442 806 l 442 485 l 861 485 l 861 471 z "},"":{"ha":1389,"x_min":428,"x_max":974,"o":"m 861 526 l 442 526 l 442 194 l 974 194 l 974 181 l 944 181 q 910 156 918 167 q 899 114 903 144 l 882 -4 q 886 -69 876 -46 q 939 -92 896 -92 l 972 -92 l 972 -106 l 939 -106 q 874 -79 888 -106 q 868 -1 860 -53 l 885 114 q 895 155 889 142 q 918 181 901 168 l 428 181 l 428 875 l 974 875 l 974 861 l 442 861 l 442 540 l 861 540 l 861 526 z "},"":{"ha":1389,"x_min":428,"x_max":974,"o":"m 861 471 l 442 471 l 442 139 l 974 139 l 974 125 l 428 125 l 428 819 l 974 819 l 974 806 l 442 806 l 442 485 l 861 485 l 861 471 m 528 1165 l 649 1126 q 669 1121 660 1124 q 693 1118 679 1118 q 717 1121 707 1118 q 738 1126 728 1124 l 858 1165 l 858 1150 l 743 1113 q 719 1107 731 1110 q 693 1104 708 1104 q 667 1107 678 1104 q 643 1113 656 1110 l 528 1150 l 528 1165 z "},"Ｆ":{"ha":1389,"x_min":431,"x_max":974,"o":"m 431 125 l 431 875 l 974 875 l 974 861 l 444 861 l 444 464 l 861 464 l 861 450 l 444 450 l 444 125 l 431 125 z "},"ｆ":{"ha":1389,"x_min":431,"x_max":974,"o":"m 431 125 l 431 875 l 974 875 l 974 861 l 444 861 l 444 464 l 861 464 l 861 450 l 444 450 l 444 125 l 431 125 z "},"Ｇ":{"ha":1389,"x_min":422,"x_max":961,"o":"m 961 404 l 961 125 l 672 125 q 517 143 571 125 q 442 201 463 161 q 422 304 422 240 l 422 693 q 441 799 422 760 q 508 857 460 839 q 644 875 556 875 l 896 875 l 896 861 l 644 861 q 517 845 563 861 q 454 792 472 829 q 436 693 436 756 l 436 304 q 456 208 436 244 q 528 155 476 171 q 672 139 579 139 l 947 139 l 947 404 l 961 404 z "},"ｇ":{"ha":1389,"x_min":422,"x_max":961,"o":"m 961 404 l 961 125 l 672 125 q 517 143 571 125 q 442 201 463 161 q 422 304 422 240 l 422 693 q 441 799 422 760 q 508 857 460 839 q 644 875 556 875 l 896 875 l 896 861 l 644 861 q 517 845 563 861 q 454 792 472 829 q 436 693 436 756 l 436 304 q 456 208 436 244 q 528 155 476 171 q 672 139 579 139 l 947 139 l 947 404 l 961 404 z "},"":{"ha":1389,"x_min":422,"x_max":961,"o":"m 422 635 q 441 741 422 701 q 508 799 460 781 q 644 817 556 817 l 896 817 l 896 803 l 644 803 q 517 787 563 803 q 454 734 472 771 q 436 635 436 697 l 436 304 q 456 208 436 244 q 528 155 476 171 q 672 139 579 139 l 947 139 l 947 404 l 961 404 l 961 125 l 672 125 q 517 143 571 125 q 442 201 463 161 q 422 304 422 240 l 422 635 m 858 1125 l 738 1164 q 717 1169 728 1167 q 693 1172 707 1172 q 669 1169 679 1172 q 649 1164 660 1167 l 528 1125 l 528 1140 l 643 1178 q 667 1183 656 1181 q 693 1186 678 1186 q 719 1183 708 1186 q 743 1178 731 1181 l 858 1140 l 858 1125 z "},"":{"ha":1389,"x_min":422,"x_max":961,"o":"m 422 635 q 441 741 422 701 q 508 799 460 781 q 644 817 556 817 l 896 817 l 896 803 l 644 803 q 517 787 563 803 q 454 734 472 771 q 436 635 436 697 l 436 304 q 456 208 436 244 q 528 155 476 171 q 672 139 579 139 l 947 139 l 947 404 l 961 404 l 961 125 l 672 125 q 517 143 571 125 q 442 201 463 161 q 422 304 422 240 l 422 635 m 894 1204 l 894 1192 q 880 1140 894 1165 q 822 1097 865 1114 q 693 1081 779 1081 q 565 1097 607 1081 q 511 1140 524 1114 q 499 1192 499 1165 l 499 1204 l 513 1204 l 513 1192 q 526 1144 513 1167 q 579 1108 540 1122 q 693 1094 618 1094 q 809 1108 768 1094 q 865 1144 850 1122 q 881 1192 881 1167 l 881 1204 l 894 1204 z "},"":{"ha":1389,"x_min":422,"x_max":961,"o":"m 422 635 q 441 741 422 701 q 508 799 460 781 q 644 817 556 817 l 896 817 l 896 803 l 644 803 q 517 787 563 803 q 454 734 472 771 q 436 635 436 697 l 436 304 q 456 208 436 244 q 528 155 476 171 q 672 139 579 139 l 947 139 l 947 404 l 961 404 l 961 125 l 672 125 q 517 143 571 125 q 442 201 463 161 q 422 304 422 240 l 422 635 m 690 1097 l 690 1179 l 704 1179 l 704 1097 l 690 1097 z "},"":{"ha":1389,"x_min":422,"x_max":961,"o":"m 422 690 q 441 797 422 757 q 508 854 460 836 q 644 872 556 872 l 896 872 l 896 858 l 644 858 q 517 842 563 858 q 454 790 472 826 q 436 690 436 753 l 436 360 q 456 263 436 300 q 528 210 476 226 q 672 194 579 194 l 947 194 l 947 460 l 961 460 l 961 181 l 672 181 q 517 199 571 181 q 442 256 463 217 q 422 360 422 296 l 422 690 m 788 -117 l 788 -237 q 758 -322 788 -293 q 679 -350 729 -350 l 604 -350 l 604 -336 l 679 -336 q 749 -311 724 -336 q 774 -237 774 -286 l 774 -131 l 604 -131 l 604 -117 l 788 -117 z "},"Ｈ":{"ha":1389,"x_min":429,"x_max":960,"o":"m 960 875 l 960 125 l 946 125 l 946 493 l 443 493 l 443 125 l 429 125 l 429 875 l 443 875 l 443 507 l 946 507 l 946 875 l 960 875 z "},"ｈ":{"ha":1389,"x_min":429,"x_max":960,"o":"m 960 875 l 960 125 l 946 125 l 946 493 l 443 493 l 443 125 l 429 125 l 429 875 l 443 875 l 443 507 l 946 507 l 946 875 l 960 875 z "},"":{"ha":1389,"x_min":429,"x_max":960,"o":"m 960 819 l 960 125 l 946 125 l 946 465 l 443 465 l 443 125 l 429 125 l 429 819 l 443 819 l 443 479 l 946 479 l 946 819 l 960 819 m 858 1125 l 738 1164 q 717 1169 728 1167 q 693 1172 707 1172 q 669 1169 679 1172 q 649 1164 660 1167 l 528 1125 l 528 1140 l 643 1178 q 667 1183 656 1181 q 693 1186 678 1186 q 719 1183 708 1186 q 743 1178 731 1181 l 858 1140 l 858 1125 z "},"Ｉ":{"ha":1389,"x_min":415,"x_max":974,"o":"m 415 875 l 974 875 l 974 861 l 701 861 l 701 139 l 974 139 l 974 125 l 415 125 l 415 139 l 688 139 l 688 861 l 415 861 l 415 875 z "},"ｉ":{"ha":1389,"x_min":415,"x_max":974,"o":"m 415 875 l 974 875 l 974 861 l 701 861 l 701 139 l 974 139 l 974 125 l 415 125 l 415 139 l 688 139 l 688 861 l 415 861 l 415 875 z "},"":{"ha":1389,"x_min":415,"x_max":974,"o":"m 415 819 l 974 819 l 974 806 l 701 806 l 701 139 l 974 139 l 974 125 l 415 125 l 415 139 l 688 139 l 688 806 l 415 806 l 415 819 m 528 1163 l 860 1121 l 860 1107 l 528 1149 l 528 1163 z "},"":{"ha":1389,"x_min":415,"x_max":974,"o":"m 415 819 l 974 819 l 974 806 l 701 806 l 701 139 l 974 139 l 974 125 l 415 125 l 415 139 l 688 139 l 688 806 l 415 806 l 415 819 m 860 1163 l 860 1149 l 528 1107 l 528 1121 l 860 1163 z "},"":{"ha":1389,"x_min":415,"x_max":974,"o":"m 415 819 l 974 819 l 974 806 l 701 806 l 701 139 l 974 139 l 974 125 l 415 125 l 415 139 l 688 139 l 688 806 l 415 806 l 415 819 m 858 1125 l 738 1164 q 717 1169 728 1167 q 693 1172 707 1172 q 669 1169 679 1172 q 649 1164 660 1167 l 528 1125 l 528 1140 l 643 1178 q 667 1183 656 1181 q 693 1186 678 1186 q 719 1183 708 1186 q 743 1178 731 1181 l 858 1140 l 858 1125 z "},"":{"ha":1389,"x_min":415,"x_max":974,"o":"m 415 819 l 974 819 l 974 806 l 701 806 l 701 139 l 974 139 l 974 125 l 415 125 l 415 139 l 688 139 l 688 806 l 415 806 l 415 819 m 501 1097 l 501 1163 l 515 1163 l 515 1097 l 501 1097 m 860 1097 l 860 1163 l 874 1163 l 874 1097 l 860 1097 z "},"":{"ha":1389,"x_min":415,"x_max":974,"o":"m 415 819 l 974 819 l 974 806 l 701 806 l 701 139 l 974 139 l 974 125 l 415 125 l 415 139 l 688 139 l 688 806 l 415 806 l 415 819 m 857 1099 q 797 1099 829 1096 q 713 1110 765 1101 l 690 1113 l 651 1118 q 578 1126 606 1125 q 526 1124 550 1128 l 526 1139 q 578 1140 550 1142 q 654 1132 607 1139 l 693 1126 l 715 1124 q 799 1113 768 1115 q 857 1113 829 1110 l 857 1099 z "},"":{"ha":1389,"x_min":415,"x_max":974,"o":"m 415 819 l 974 819 l 974 806 l 701 806 l 701 139 l 974 139 l 974 125 l 415 125 l 415 139 l 688 139 l 688 806 l 415 806 l 415 819 m 860 1121 l 860 1107 l 528 1107 l 528 1121 l 860 1121 z "},"":{"ha":1389,"x_min":415,"x_max":974,"o":"m 415 819 l 974 819 l 974 806 l 701 806 l 701 139 l 974 139 l 974 125 l 415 125 l 415 139 l 688 139 l 688 806 l 415 806 l 415 819 m 894 1204 l 894 1192 q 880 1140 894 1165 q 822 1097 865 1114 q 693 1081 779 1081 q 565 1097 607 1081 q 511 1140 524 1114 q 499 1192 499 1165 l 499 1204 l 513 1204 l 513 1192 q 526 1144 513 1167 q 579 1108 540 1122 q 693 1094 618 1094 q 809 1108 768 1094 q 865 1144 850 1122 q 881 1192 881 1167 l 881 1204 l 894 1204 z "},"":{"ha":1389,"x_min":415,"x_max":974,"o":"m 415 875 l 974 875 l 974 861 l 701 861 l 701 194 l 974 194 l 974 181 l 946 181 q 912 156 919 167 q 900 114 904 144 l 883 -4 q 888 -69 878 -46 q 940 -92 897 -92 l 974 -92 l 974 -106 l 940 -106 q 875 -79 889 -106 q 869 -1 861 -53 l 886 114 q 897 155 890 142 q 919 181 903 168 l 415 181 l 415 194 l 688 194 l 688 861 l 415 861 l 415 875 z "},"":{"ha":1389,"x_min":415,"x_max":974,"o":"m 415 819 l 974 819 l 974 806 l 701 806 l 701 139 l 974 139 l 974 125 l 415 125 l 415 139 l 688 139 l 688 806 l 415 806 l 415 819 m 690 1097 l 690 1179 l 704 1179 l 704 1097 l 690 1097 z "},"Ｊ":{"ha":1389,"x_min":422,"x_max":958,"o":"m 958 875 l 958 296 q 935 199 958 242 q 856 133 913 157 q 696 108 799 108 q 527 132 586 108 q 445 198 468 156 q 422 296 422 240 l 422 413 l 436 413 l 436 296 q 459 204 436 243 q 539 144 482 165 q 696 122 596 122 q 846 144 792 122 q 922 205 900 165 q 944 296 944 244 l 944 875 l 958 875 z "},"ｊ":{"ha":1389,"x_min":422,"x_max":958,"o":"m 958 875 l 958 296 q 935 199 958 242 q 856 133 913 157 q 696 108 799 108 q 527 132 586 108 q 445 198 468 156 q 422 296 422 240 l 422 413 l 436 413 l 436 296 q 459 204 436 243 q 539 144 482 165 q 696 122 596 122 q 846 144 792 122 q 922 205 900 165 q 944 296 944 244 l 944 875 l 958 875 z "},"":{"ha":1389,"x_min":422,"x_max":983,"o":"m 958 819 l 958 296 q 935 199 958 242 q 856 133 913 157 q 696 108 799 108 q 527 132 586 108 q 445 198 468 156 q 422 296 422 240 l 422 413 l 436 413 l 436 296 q 459 204 436 243 q 539 144 482 165 q 696 122 596 122 q 846 144 792 122 q 922 205 900 165 q 944 296 944 244 l 944 819 l 958 819 m 983 1125 l 863 1164 q 842 1169 853 1167 q 818 1172 832 1172 q 794 1169 804 1172 q 774 1164 785 1167 l 653 1125 l 653 1140 l 768 1178 q 792 1183 781 1181 q 818 1186 803 1186 q 844 1183 833 1186 q 868 1178 856 1181 l 983 1140 l 983 1125 z "},"Ｋ":{"ha":1389,"x_min":431,"x_max":963,"o":"m 444 875 l 444 506 l 722 506 l 882 875 l 897 875 l 738 506 l 794 506 q 922 474 881 506 q 963 369 963 443 l 963 125 l 949 125 l 949 369 q 910 464 949 436 q 794 492 872 492 l 444 492 l 444 125 l 431 125 l 431 875 l 444 875 z "},"ｋ":{"ha":1389,"x_min":431,"x_max":963,"o":"m 444 875 l 444 506 l 722 506 l 882 875 l 897 875 l 738 506 l 794 506 q 922 474 881 506 q 963 369 963 443 l 963 125 l 949 125 l 949 369 q 910 464 949 436 q 794 492 872 492 l 444 492 l 444 125 l 431 125 l 431 875 l 444 875 z "},"":{"ha":1389,"x_min":431,"x_max":963,"o":"m 444 875 l 444 533 l 722 533 l 882 875 l 897 875 l 738 533 l 794 533 q 922 502 881 533 q 963 397 963 471 l 963 181 l 949 181 l 949 397 q 910 492 949 464 q 794 519 872 519 l 444 519 l 444 181 l 431 181 l 431 875 l 444 875 m 788 -117 l 788 -237 q 758 -322 788 -293 q 679 -350 729 -350 l 604 -350 l 604 -336 l 679 -336 q 749 -311 724 -336 q 774 -237 774 -286 l 774 -131 l 604 -131 l 604 -117 l 788 -117 z "},"Ｌ":{"ha":1389,"x_min":431,"x_max":968,"o":"m 968 413 l 968 125 l 431 125 l 431 875 l 444 875 l 444 139 l 954 139 l 954 413 l 968 413 z "},"ｌ":{"ha":1389,"x_min":431,"x_max":968,"o":"m 968 413 l 968 125 l 431 125 l 431 875 l 444 875 l 444 139 l 954 139 l 954 413 l 968 413 z "},"":{"ha":1389,"x_min":403,"x_max":968,"o":"m 968 399 l 968 125 l 431 125 l 431 819 l 444 819 l 444 139 l 954 139 l 954 399 l 968 399 m 735 1163 l 735 1149 l 403 1107 l 403 1121 l 735 1163 z "},"":{"ha":1389,"x_min":431,"x_max":968,"o":"m 968 454 l 968 181 l 431 181 l 431 875 l 444 875 l 444 194 l 954 194 l 954 454 l 968 454 m 788 -117 l 788 -237 q 758 -322 788 -293 q 679 -350 729 -350 l 604 -350 l 604 -336 l 679 -336 q 749 -311 724 -336 q 774 -237 774 -286 l 774 -131 l 604 -131 l 604 -117 l 788 -117 z "},"":{"ha":1389,"x_min":431,"x_max":982,"o":"m 968 413 l 968 125 l 431 125 l 431 875 l 444 875 l 444 139 l 954 139 l 954 413 l 968 413 m 942 746 l 967 875 l 982 875 l 957 746 l 942 746 z "},"Ｍ":{"ha":1389,"x_min":385,"x_max":993,"o":"m 689 507 q 718 517 708 507 q 746 565 728 526 l 875 851 q 895 871 882 867 q 921 875 908 875 l 950 875 q 990 832 990 875 l 993 125 l 979 125 l 976 832 q 972 852 976 843 q 950 861 967 861 l 924 861 q 903 859 914 861 q 886 842 893 857 l 757 558 q 726 506 739 519 q 689 493 714 493 q 651 506 664 493 q 621 558 639 519 l 492 842 q 476 859 486 857 q 454 861 465 861 l 433 861 q 408 852 414 861 q 401 832 401 843 l 399 125 l 385 125 l 388 832 q 433 875 388 875 l 457 875 q 483 871 469 875 q 503 851 497 867 l 632 565 q 659 517 649 528 q 689 507 669 507 z "},"ｍ":{"ha":1389,"x_min":385,"x_max":993,"o":"m 689 507 q 718 517 708 507 q 746 565 728 526 l 875 851 q 895 871 882 867 q 921 875 908 875 l 950 875 q 990 832 990 875 l 993 125 l 979 125 l 976 832 q 972 852 976 843 q 950 861 967 861 l 924 861 q 903 859 914 861 q 886 842 893 857 l 757 558 q 726 506 739 519 q 689 493 714 493 q 651 506 664 493 q 621 558 639 519 l 492 842 q 476 859 486 857 q 454 861 465 861 l 433 861 q 408 852 414 861 q 401 832 401 843 l 399 125 l 385 125 l 388 832 q 433 875 388 875 l 457 875 q 483 871 469 875 q 503 851 497 867 l 632 565 q 659 517 649 528 q 689 507 669 507 z "},"Ｎ":{"ha":1389,"x_min":425,"x_max":965,"o":"m 463 864 l 951 289 l 951 875 l 965 875 l 965 125 l 951 125 l 951 268 l 449 857 q 442 861 444 861 q 439 857 439 861 l 439 125 l 425 125 l 425 860 q 442 876 425 876 q 463 864 450 876 z "},"ｎ":{"ha":1389,"x_min":425,"x_max":965,"o":"m 463 864 l 951 289 l 951 875 l 965 875 l 965 125 l 951 125 l 951 268 l 449 857 q 442 861 444 861 q 439 857 439 861 l 439 125 l 425 125 l 425 860 q 442 876 425 876 q 463 864 450 876 z "},"":{"ha":1389,"x_min":425,"x_max":965,"o":"m 463 808 l 951 261 l 951 819 l 965 819 l 965 125 l 951 125 l 951 240 l 449 801 q 442 806 444 806 q 439 801 439 806 l 439 125 l 425 125 l 425 804 q 442 821 425 821 q 463 808 450 821 m 857 1099 q 797 1099 829 1096 q 713 1110 765 1101 l 690 1113 l 651 1118 q 578 1126 606 1125 q 526 1124 550 1128 l 526 1139 q 578 1140 550 1142 q 654 1132 607 1139 l 693 1126 l 715 1124 q 799 1113 768 1115 q 857 1113 829 1110 l 857 1099 z "},"":{"ha":1389,"x_min":425,"x_max":965,"o":"m 463 808 l 951 261 l 951 819 l 965 819 l 965 125 l 951 125 l 951 240 l 449 801 q 442 806 444 806 q 439 801 439 806 l 439 125 l 425 125 l 425 804 q 442 821 425 821 q 463 808 450 821 m 860 1163 l 860 1149 l 528 1107 l 528 1121 l 860 1163 z "},"":{"ha":1389,"x_min":425,"x_max":965,"o":"m 463 864 l 951 317 l 951 875 l 965 875 l 965 181 l 951 181 l 951 296 l 449 857 q 442 861 444 861 q 439 857 439 861 l 439 181 l 425 181 l 425 860 q 442 876 425 876 q 463 864 450 876 m 788 -117 l 788 -237 q 758 -322 788 -293 q 679 -350 729 -350 l 604 -350 l 604 -336 l 679 -336 q 749 -311 724 -336 q 774 -237 774 -286 l 774 -131 l 604 -131 l 604 -117 l 788 -117 z "},"":{"ha":1389,"x_min":425,"x_max":965,"o":"m 463 808 l 951 261 l 951 819 l 965 819 l 965 125 l 951 125 l 951 240 l 449 801 q 442 806 444 806 q 439 801 439 806 l 439 125 l 425 125 l 425 804 q 442 821 425 821 q 463 808 450 821 m 528 1165 l 649 1126 q 669 1121 660 1124 q 693 1118 679 1118 q 717 1121 707 1118 q 738 1126 728 1124 l 858 1165 l 858 1150 l 743 1113 q 719 1107 731 1110 q 693 1104 708 1104 q 667 1107 678 1104 q 643 1113 656 1110 l 528 1150 l 528 1165 z "},"Ｏ":{"ha":1389,"x_min":424,"x_max":967,"o":"m 693 107 q 529 131 588 107 q 447 197 471 154 q 424 294 424 239 l 424 704 q 447 803 424 761 q 529 868 471 844 q 693 892 588 892 q 858 868 799 892 q 942 803 918 844 q 967 704 967 761 l 967 294 q 942 197 967 239 q 858 131 918 154 q 693 107 799 107 m 693 121 q 850 142 793 121 q 930 203 907 164 q 953 294 953 243 l 953 704 q 930 796 953 757 q 850 856 907 835 q 693 878 793 878 q 538 856 593 878 q 460 796 482 835 q 438 704 438 757 l 438 294 q 460 203 438 243 q 538 142 482 164 q 693 121 593 121 z "},"ｏ":{"ha":1389,"x_min":424,"x_max":967,"o":"m 693 107 q 529 131 588 107 q 447 197 471 154 q 424 294 424 239 l 424 704 q 447 803 424 761 q 529 868 471 844 q 693 892 588 892 q 858 868 799 892 q 942 803 918 844 q 967 704 967 761 l 967 294 q 942 197 967 239 q 858 131 918 154 q 693 107 799 107 m 693 121 q 850 142 793 121 q 930 203 907 164 q 953 294 953 243 l 953 704 q 930 796 953 757 q 850 856 907 835 q 693 878 793 878 q 538 856 593 878 q 460 796 482 835 q 438 704 438 757 l 438 294 q 460 203 438 243 q 538 142 482 164 q 693 121 593 121 z "},"":{"ha":1389,"x_min":424,"x_max":967,"o":"m 693 107 q 529 131 588 107 q 447 197 471 154 q 424 294 424 239 l 424 649 q 447 747 424 706 q 529 813 471 789 q 693 836 588 836 q 858 813 799 836 q 942 747 918 789 q 967 649 967 706 l 967 294 q 942 197 967 239 q 858 131 918 154 q 693 107 799 107 m 693 121 q 850 142 793 121 q 930 203 907 164 q 953 294 953 243 l 953 649 q 930 740 953 701 q 850 801 907 779 q 693 822 793 822 q 538 801 593 822 q 460 740 482 779 q 438 649 438 701 l 438 294 q 460 203 438 243 q 538 142 482 164 q 693 121 593 121 m 528 1163 l 860 1121 l 860 1107 l 528 1149 l 528 1163 z "},"":{"ha":1389,"x_min":424,"x_max":967,"o":"m 693 107 q 529 131 588 107 q 447 197 471 154 q 424 294 424 239 l 424 649 q 447 747 424 706 q 529 813 471 789 q 693 836 588 836 q 858 813 799 836 q 942 747 918 789 q 967 649 967 706 l 967 294 q 942 197 967 239 q 858 131 918 154 q 693 107 799 107 m 693 121 q 850 142 793 121 q 930 203 907 164 q 953 294 953 243 l 953 649 q 930 740 953 701 q 850 801 907 779 q 693 822 793 822 q 538 801 593 822 q 460 740 482 779 q 438 649 438 701 l 438 294 q 460 203 438 243 q 538 142 482 164 q 693 121 593 121 m 860 1163 l 860 1149 l 528 1107 l 528 1121 l 860 1163 z "},"":{"ha":1389,"x_min":424,"x_max":967,"o":"m 693 107 q 529 131 588 107 q 447 197 471 154 q 424 294 424 239 l 424 649 q 447 747 424 706 q 529 813 471 789 q 693 836 588 836 q 858 813 799 836 q 942 747 918 789 q 967 649 967 706 l 967 294 q 942 197 967 239 q 858 131 918 154 q 693 107 799 107 m 693 121 q 850 142 793 121 q 930 203 907 164 q 953 294 953 243 l 953 649 q 930 740 953 701 q 850 801 907 779 q 693 822 793 822 q 538 801 593 822 q 460 740 482 779 q 438 649 438 701 l 438 294 q 460 203 438 243 q 538 142 482 164 q 693 121 593 121 m 858 1125 l 738 1164 q 717 1169 728 1167 q 693 1172 707 1172 q 669 1169 679 1172 q 649 1164 660 1167 l 528 1125 l 528 1140 l 643 1178 q 667 1183 656 1181 q 693 1186 678 1186 q 719 1183 708 1186 q 743 1178 731 1181 l 858 1140 l 858 1125 z "},"":{"ha":1389,"x_min":424,"x_max":967,"o":"m 693 107 q 529 131 588 107 q 447 197 471 154 q 424 294 424 239 l 424 649 q 447 747 424 706 q 529 813 471 789 q 693 836 588 836 q 858 813 799 836 q 942 747 918 789 q 967 649 967 706 l 967 294 q 942 197 967 239 q 858 131 918 154 q 693 107 799 107 m 693 121 q 850 142 793 121 q 930 203 907 164 q 953 294 953 243 l 953 649 q 930 740 953 701 q 850 801 907 779 q 693 822 793 822 q 538 801 593 822 q 460 740 482 779 q 438 649 438 701 l 438 294 q 460 203 438 243 q 538 142 482 164 q 693 121 593 121 m 857 1099 q 797 1099 829 1096 q 713 1110 765 1101 l 690 1113 l 651 1118 q 578 1126 606 1125 q 526 1124 550 1128 l 526 1139 q 578 1140 550 1142 q 654 1132 607 1139 l 693 1126 l 715 1124 q 799 1113 768 1115 q 857 1113 829 1110 l 857 1099 z "},"":{"ha":1389,"x_min":424,"x_max":967,"o":"m 693 107 q 529 131 588 107 q 447 197 471 154 q 424 294 424 239 l 424 649 q 447 747 424 706 q 529 813 471 789 q 693 836 588 836 q 858 813 799 836 q 942 747 918 789 q 967 649 967 706 l 967 294 q 942 197 967 239 q 858 131 918 154 q 693 107 799 107 m 693 121 q 850 142 793 121 q 930 203 907 164 q 953 294 953 243 l 953 649 q 930 740 953 701 q 850 801 907 779 q 693 822 793 822 q 538 801 593 822 q 460 740 482 779 q 438 649 438 701 l 438 294 q 460 203 438 243 q 538 142 482 164 q 693 121 593 121 m 501 1097 l 501 1163 l 515 1163 l 515 1097 l 501 1097 m 860 1097 l 860 1163 l 874 1163 l 874 1097 l 860 1097 z "},"":{"ha":1389,"x_min":424,"x_max":967,"o":"m 693 107 q 529 131 588 107 q 447 197 471 154 q 424 294 424 239 l 424 649 q 447 747 424 706 q 529 813 471 789 q 693 836 588 836 q 858 813 799 836 q 942 747 918 789 q 967 649 967 706 l 967 294 q 942 197 967 239 q 858 131 918 154 q 693 107 799 107 m 693 121 q 850 142 793 121 q 930 203 907 164 q 953 294 953 243 l 953 649 q 930 740 953 701 q 850 801 907 779 q 693 822 793 822 q 538 801 593 822 q 460 740 482 779 q 438 649 438 701 l 438 294 q 460 203 438 243 q 538 142 482 164 q 693 121 593 121 m 860 1121 l 860 1107 l 528 1107 l 528 1121 l 860 1121 z "}}}
